<?xml version="1.0" encoding="utf-8" standalone="no"?>
<!DOCTYPE svg PUBLIC "-//W3C//DTD SVG 1.1//EN"
  "http://www.w3.org/Graphics/SVG/1.1/DTD/svg11.dtd">
<svg xmlns:xlink="http://www.w3.org/1999/xlink" width="1321.275pt" height="725.154375pt" viewBox="0 0 1321.275 725.154375" xmlns="http://www.w3.org/2000/svg" version="1.1">
 <metadata>
  <rdf:RDF xmlns:dc="http://purl.org/dc/elements/1.1/" xmlns:cc="http://creativecommons.org/ns#" xmlns:rdf="http://www.w3.org/1999/02/22-rdf-syntax-ns#">
   <cc:Work>
    <dc:type rdf:resource="http://purl.org/dc/dcmitype/StillImage"/>
    <dc:date>2024-11-03T00:30:16.450411</dc:date>
    <dc:format>image/svg+xml</dc:format>
    <dc:creator>
     <cc:Agent>
      <dc:title>Matplotlib v3.9.2, https://matplotlib.org/</dc:title>
     </cc:Agent>
    </dc:creator>
   </cc:Work>
  </rdf:RDF>
 </metadata>
 <defs>
  <style type="text/css">*{stroke-linejoin: round; stroke-linecap: butt}</style>
 </defs>
 <g id="figure_1">
  <g id="patch_1">
   <path d="M 0 725.154375 
L 1321.275 725.154375 
L 1321.275 0 
L 0 0 
L 0 725.154375 
z
" style="fill: none"/>
  </g>
  <g id="axes_1">
   <g id="patch_2">
    <path d="M 55.345313 687.598125 
L 1171.345313 687.598125 
L 1171.345313 22.318125 
L 55.345313 22.318125 
L 55.345313 687.598125 
z
" style="fill: none"/>
   </g>
   <g id="matplotlib.axis_1">
    <g id="xtick_1">
     <g id="line2d_1">
      <defs>
       <path id="m049924252e" d="M 0 0 
L 0 3.5 
" style="stroke: #000000; stroke-width: 0.8"/>
      </defs>
      <g>
       <use xlink:href="#m049924252e" x="164.886814" y="687.598125" style="stroke: #000000; stroke-width: 0.8"/>
      </g>
     </g>
     <g id="text_1">
      <!-- −30 -->
      <g transform="translate(154.334471 702.196563) scale(0.1 -0.1)">
       <defs>
        <path id="DejaVuSans-2212" d="M 678 2272 
L 4684 2272 
L 4684 1741 
L 678 1741 
L 678 2272 
z
" transform="scale(0.015625)"/>
        <path id="DejaVuSans-33" d="M 2597 2516 
Q 3050 2419 3304 2112 
Q 3559 1806 3559 1356 
Q 3559 666 3084 287 
Q 2609 -91 1734 -91 
Q 1441 -91 1130 -33 
Q 819 25 488 141 
L 488 750 
Q 750 597 1062 519 
Q 1375 441 1716 441 
Q 2309 441 2620 675 
Q 2931 909 2931 1356 
Q 2931 1769 2642 2001 
Q 2353 2234 1838 2234 
L 1294 2234 
L 1294 2753 
L 1863 2753 
Q 2328 2753 2575 2939 
Q 2822 3125 2822 3475 
Q 2822 3834 2567 4026 
Q 2313 4219 1838 4219 
Q 1578 4219 1281 4162 
Q 984 4106 628 3988 
L 628 4550 
Q 988 4650 1302 4700 
Q 1616 4750 1894 4750 
Q 2613 4750 3031 4423 
Q 3450 4097 3450 3541 
Q 3450 3153 3228 2886 
Q 3006 2619 2597 2516 
z
" transform="scale(0.015625)"/>
        <path id="DejaVuSans-30" d="M 2034 4250 
Q 1547 4250 1301 3770 
Q 1056 3291 1056 2328 
Q 1056 1369 1301 889 
Q 1547 409 2034 409 
Q 2525 409 2770 889 
Q 3016 1369 3016 2328 
Q 3016 3291 2770 3770 
Q 2525 4250 2034 4250 
z
M 2034 4750 
Q 2819 4750 3233 4129 
Q 3647 3509 3647 2328 
Q 3647 1150 3233 529 
Q 2819 -91 2034 -91 
Q 1250 -91 836 529 
Q 422 1150 422 2328 
Q 422 3509 836 4129 
Q 1250 4750 2034 4750 
z
" transform="scale(0.015625)"/>
       </defs>
       <use xlink:href="#DejaVuSans-2212"/>
       <use xlink:href="#DejaVuSans-33" x="83.789062"/>
       <use xlink:href="#DejaVuSans-30" x="147.412109"/>
      </g>
     </g>
    </g>
    <g id="xtick_2">
     <g id="line2d_2">
      <g>
       <use xlink:href="#m049924252e" x="311.922388" y="687.598125" style="stroke: #000000; stroke-width: 0.8"/>
      </g>
     </g>
     <g id="text_2">
      <!-- −20 -->
      <g transform="translate(301.370044 702.196563) scale(0.1 -0.1)">
       <defs>
        <path id="DejaVuSans-32" d="M 1228 531 
L 3431 531 
L 3431 0 
L 469 0 
L 469 531 
Q 828 903 1448 1529 
Q 2069 2156 2228 2338 
Q 2531 2678 2651 2914 
Q 2772 3150 2772 3378 
Q 2772 3750 2511 3984 
Q 2250 4219 1831 4219 
Q 1534 4219 1204 4116 
Q 875 4013 500 3803 
L 500 4441 
Q 881 4594 1212 4672 
Q 1544 4750 1819 4750 
Q 2544 4750 2975 4387 
Q 3406 4025 3406 3419 
Q 3406 3131 3298 2873 
Q 3191 2616 2906 2266 
Q 2828 2175 2409 1742 
Q 1991 1309 1228 531 
z
" transform="scale(0.015625)"/>
       </defs>
       <use xlink:href="#DejaVuSans-2212"/>
       <use xlink:href="#DejaVuSans-32" x="83.789062"/>
       <use xlink:href="#DejaVuSans-30" x="147.412109"/>
      </g>
     </g>
    </g>
    <g id="xtick_3">
     <g id="line2d_3">
      <g>
       <use xlink:href="#m049924252e" x="458.957961" y="687.598125" style="stroke: #000000; stroke-width: 0.8"/>
      </g>
     </g>
     <g id="text_3">
      <!-- −10 -->
      <g transform="translate(448.405617 702.196563) scale(0.1 -0.1)">
       <defs>
        <path id="DejaVuSans-31" d="M 794 531 
L 1825 531 
L 1825 4091 
L 703 3866 
L 703 4441 
L 1819 4666 
L 2450 4666 
L 2450 531 
L 3481 531 
L 3481 0 
L 794 0 
L 794 531 
z
" transform="scale(0.015625)"/>
       </defs>
       <use xlink:href="#DejaVuSans-2212"/>
       <use xlink:href="#DejaVuSans-31" x="83.789062"/>
       <use xlink:href="#DejaVuSans-30" x="147.412109"/>
      </g>
     </g>
    </g>
    <g id="xtick_4">
     <g id="line2d_4">
      <g>
       <use xlink:href="#m049924252e" x="605.993534" y="687.598125" style="stroke: #000000; stroke-width: 0.8"/>
      </g>
     </g>
     <g id="text_4">
      <!-- 0 -->
      <g transform="translate(602.812284 702.196563) scale(0.1 -0.1)">
       <use xlink:href="#DejaVuSans-30"/>
      </g>
     </g>
    </g>
    <g id="xtick_5">
     <g id="line2d_5">
      <g>
       <use xlink:href="#m049924252e" x="753.029107" y="687.598125" style="stroke: #000000; stroke-width: 0.8"/>
      </g>
     </g>
     <g id="text_5">
      <!-- 10 -->
      <g transform="translate(746.666607 702.196563) scale(0.1 -0.1)">
       <use xlink:href="#DejaVuSans-31"/>
       <use xlink:href="#DejaVuSans-30" x="63.623047"/>
      </g>
     </g>
    </g>
    <g id="xtick_6">
     <g id="line2d_6">
      <g>
       <use xlink:href="#m049924252e" x="900.06468" y="687.598125" style="stroke: #000000; stroke-width: 0.8"/>
      </g>
     </g>
     <g id="text_6">
      <!-- 20 -->
      <g transform="translate(893.70218 702.196563) scale(0.1 -0.1)">
       <use xlink:href="#DejaVuSans-32"/>
       <use xlink:href="#DejaVuSans-30" x="63.623047"/>
      </g>
     </g>
    </g>
    <g id="xtick_7">
     <g id="line2d_7">
      <g>
       <use xlink:href="#m049924252e" x="1047.100253" y="687.598125" style="stroke: #000000; stroke-width: 0.8"/>
      </g>
     </g>
     <g id="text_7">
      <!-- 30 -->
      <g transform="translate(1040.737753 702.196563) scale(0.1 -0.1)">
       <use xlink:href="#DejaVuSans-33"/>
       <use xlink:href="#DejaVuSans-30" x="63.623047"/>
      </g>
     </g>
    </g>
    <g id="text_8">
     <!-- Latitude -->
     <g transform="translate(592.766406 715.874687) scale(0.1 -0.1)">
      <defs>
       <path id="DejaVuSans-4c" d="M 628 4666 
L 1259 4666 
L 1259 531 
L 3531 531 
L 3531 0 
L 628 0 
L 628 4666 
z
" transform="scale(0.015625)"/>
       <path id="DejaVuSans-61" d="M 2194 1759 
Q 1497 1759 1228 1600 
Q 959 1441 959 1056 
Q 959 750 1161 570 
Q 1363 391 1709 391 
Q 2188 391 2477 730 
Q 2766 1069 2766 1631 
L 2766 1759 
L 2194 1759 
z
M 3341 1997 
L 3341 0 
L 2766 0 
L 2766 531 
Q 2569 213 2275 61 
Q 1981 -91 1556 -91 
Q 1019 -91 701 211 
Q 384 513 384 1019 
Q 384 1609 779 1909 
Q 1175 2209 1959 2209 
L 2766 2209 
L 2766 2266 
Q 2766 2663 2505 2880 
Q 2244 3097 1772 3097 
Q 1472 3097 1187 3025 
Q 903 2953 641 2809 
L 641 3341 
Q 956 3463 1253 3523 
Q 1550 3584 1831 3584 
Q 2591 3584 2966 3190 
Q 3341 2797 3341 1997 
z
" transform="scale(0.015625)"/>
       <path id="DejaVuSans-74" d="M 1172 4494 
L 1172 3500 
L 2356 3500 
L 2356 3053 
L 1172 3053 
L 1172 1153 
Q 1172 725 1289 603 
Q 1406 481 1766 481 
L 2356 481 
L 2356 0 
L 1766 0 
Q 1100 0 847 248 
Q 594 497 594 1153 
L 594 3053 
L 172 3053 
L 172 3500 
L 594 3500 
L 594 4494 
L 1172 4494 
z
" transform="scale(0.015625)"/>
       <path id="DejaVuSans-69" d="M 603 3500 
L 1178 3500 
L 1178 0 
L 603 0 
L 603 3500 
z
M 603 4863 
L 1178 4863 
L 1178 4134 
L 603 4134 
L 603 4863 
z
" transform="scale(0.015625)"/>
       <path id="DejaVuSans-75" d="M 544 1381 
L 544 3500 
L 1119 3500 
L 1119 1403 
Q 1119 906 1312 657 
Q 1506 409 1894 409 
Q 2359 409 2629 706 
Q 2900 1003 2900 1516 
L 2900 3500 
L 3475 3500 
L 3475 0 
L 2900 0 
L 2900 538 
Q 2691 219 2414 64 
Q 2138 -91 1772 -91 
Q 1169 -91 856 284 
Q 544 659 544 1381 
z
M 1991 3584 
L 1991 3584 
z
" transform="scale(0.015625)"/>
       <path id="DejaVuSans-64" d="M 2906 2969 
L 2906 4863 
L 3481 4863 
L 3481 0 
L 2906 0 
L 2906 525 
Q 2725 213 2448 61 
Q 2172 -91 1784 -91 
Q 1150 -91 751 415 
Q 353 922 353 1747 
Q 353 2572 751 3078 
Q 1150 3584 1784 3584 
Q 2172 3584 2448 3432 
Q 2725 3281 2906 2969 
z
M 947 1747 
Q 947 1113 1208 752 
Q 1469 391 1925 391 
Q 2381 391 2643 752 
Q 2906 1113 2906 1747 
Q 2906 2381 2643 2742 
Q 2381 3103 1925 3103 
Q 1469 3103 1208 2742 
Q 947 2381 947 1747 
z
" transform="scale(0.015625)"/>
       <path id="DejaVuSans-65" d="M 3597 1894 
L 3597 1613 
L 953 1613 
Q 991 1019 1311 708 
Q 1631 397 2203 397 
Q 2534 397 2845 478 
Q 3156 559 3463 722 
L 3463 178 
Q 3153 47 2828 -22 
Q 2503 -91 2169 -91 
Q 1331 -91 842 396 
Q 353 884 353 1716 
Q 353 2575 817 3079 
Q 1281 3584 2069 3584 
Q 2775 3584 3186 3129 
Q 3597 2675 3597 1894 
z
M 3022 2063 
Q 3016 2534 2758 2815 
Q 2500 3097 2075 3097 
Q 1594 3097 1305 2825 
Q 1016 2553 972 2059 
L 3022 2063 
z
" transform="scale(0.015625)"/>
      </defs>
      <use xlink:href="#DejaVuSans-4c"/>
      <use xlink:href="#DejaVuSans-61" x="55.712891"/>
      <use xlink:href="#DejaVuSans-74" x="116.992188"/>
      <use xlink:href="#DejaVuSans-69" x="156.201172"/>
      <use xlink:href="#DejaVuSans-74" x="183.984375"/>
      <use xlink:href="#DejaVuSans-75" x="223.193359"/>
      <use xlink:href="#DejaVuSans-64" x="286.572266"/>
      <use xlink:href="#DejaVuSans-65" x="350.048828"/>
     </g>
    </g>
   </g>
   <g id="matplotlib.axis_2">
    <g id="ytick_1">
     <g id="line2d_8">
      <defs>
       <path id="m5e537dbd3f" d="M 0 0 
L -3.5 0 
" style="stroke: #000000; stroke-width: 0.8"/>
      </defs>
      <g>
       <use xlink:href="#m5e537dbd3f" x="55.345313" y="667.477122" style="stroke: #000000; stroke-width: 0.8"/>
      </g>
     </g>
     <g id="text_9">
      <!-- −100 -->
      <g transform="translate(20.878125 671.276341) scale(0.1 -0.1)">
       <use xlink:href="#DejaVuSans-2212"/>
       <use xlink:href="#DejaVuSans-31" x="83.789062"/>
       <use xlink:href="#DejaVuSans-30" x="147.412109"/>
       <use xlink:href="#DejaVuSans-30" x="211.035156"/>
      </g>
     </g>
    </g>
    <g id="ytick_2">
     <g id="line2d_9">
      <g>
       <use xlink:href="#m5e537dbd3f" x="55.345313" y="553.551663" style="stroke: #000000; stroke-width: 0.8"/>
      </g>
     </g>
     <g id="text_10">
      <!-- −80 -->
      <g transform="translate(27.240625 557.350882) scale(0.1 -0.1)">
       <defs>
        <path id="DejaVuSans-38" d="M 2034 2216 
Q 1584 2216 1326 1975 
Q 1069 1734 1069 1313 
Q 1069 891 1326 650 
Q 1584 409 2034 409 
Q 2484 409 2743 651 
Q 3003 894 3003 1313 
Q 3003 1734 2745 1975 
Q 2488 2216 2034 2216 
z
M 1403 2484 
Q 997 2584 770 2862 
Q 544 3141 544 3541 
Q 544 4100 942 4425 
Q 1341 4750 2034 4750 
Q 2731 4750 3128 4425 
Q 3525 4100 3525 3541 
Q 3525 3141 3298 2862 
Q 3072 2584 2669 2484 
Q 3125 2378 3379 2068 
Q 3634 1759 3634 1313 
Q 3634 634 3220 271 
Q 2806 -91 2034 -91 
Q 1263 -91 848 271 
Q 434 634 434 1313 
Q 434 1759 690 2068 
Q 947 2378 1403 2484 
z
M 1172 3481 
Q 1172 3119 1398 2916 
Q 1625 2713 2034 2713 
Q 2441 2713 2670 2916 
Q 2900 3119 2900 3481 
Q 2900 3844 2670 4047 
Q 2441 4250 2034 4250 
Q 1625 4250 1398 4047 
Q 1172 3844 1172 3481 
z
" transform="scale(0.015625)"/>
       </defs>
       <use xlink:href="#DejaVuSans-2212"/>
       <use xlink:href="#DejaVuSans-38" x="83.789062"/>
       <use xlink:href="#DejaVuSans-30" x="147.412109"/>
      </g>
     </g>
    </g>
    <g id="ytick_3">
     <g id="line2d_10">
      <g>
       <use xlink:href="#m5e537dbd3f" x="55.345313" y="439.626204" style="stroke: #000000; stroke-width: 0.8"/>
      </g>
     </g>
     <g id="text_11">
      <!-- −60 -->
      <g transform="translate(27.240625 443.425423) scale(0.1 -0.1)">
       <defs>
        <path id="DejaVuSans-36" d="M 2113 2584 
Q 1688 2584 1439 2293 
Q 1191 2003 1191 1497 
Q 1191 994 1439 701 
Q 1688 409 2113 409 
Q 2538 409 2786 701 
Q 3034 994 3034 1497 
Q 3034 2003 2786 2293 
Q 2538 2584 2113 2584 
z
M 3366 4563 
L 3366 3988 
Q 3128 4100 2886 4159 
Q 2644 4219 2406 4219 
Q 1781 4219 1451 3797 
Q 1122 3375 1075 2522 
Q 1259 2794 1537 2939 
Q 1816 3084 2150 3084 
Q 2853 3084 3261 2657 
Q 3669 2231 3669 1497 
Q 3669 778 3244 343 
Q 2819 -91 2113 -91 
Q 1303 -91 875 529 
Q 447 1150 447 2328 
Q 447 3434 972 4092 
Q 1497 4750 2381 4750 
Q 2619 4750 2861 4703 
Q 3103 4656 3366 4563 
z
" transform="scale(0.015625)"/>
       </defs>
       <use xlink:href="#DejaVuSans-2212"/>
       <use xlink:href="#DejaVuSans-36" x="83.789062"/>
       <use xlink:href="#DejaVuSans-30" x="147.412109"/>
      </g>
     </g>
    </g>
    <g id="ytick_4">
     <g id="line2d_11">
      <g>
       <use xlink:href="#m5e537dbd3f" x="55.345313" y="325.700745" style="stroke: #000000; stroke-width: 0.8"/>
      </g>
     </g>
     <g id="text_12">
      <!-- −40 -->
      <g transform="translate(27.240625 329.499964) scale(0.1 -0.1)">
       <defs>
        <path id="DejaVuSans-34" d="M 2419 4116 
L 825 1625 
L 2419 1625 
L 2419 4116 
z
M 2253 4666 
L 3047 4666 
L 3047 1625 
L 3713 1625 
L 3713 1100 
L 3047 1100 
L 3047 0 
L 2419 0 
L 2419 1100 
L 313 1100 
L 313 1709 
L 2253 4666 
z
" transform="scale(0.015625)"/>
       </defs>
       <use xlink:href="#DejaVuSans-2212"/>
       <use xlink:href="#DejaVuSans-34" x="83.789062"/>
       <use xlink:href="#DejaVuSans-30" x="147.412109"/>
      </g>
     </g>
    </g>
    <g id="ytick_5">
     <g id="line2d_12">
      <g>
       <use xlink:href="#m5e537dbd3f" x="55.345313" y="211.775286" style="stroke: #000000; stroke-width: 0.8"/>
      </g>
     </g>
     <g id="text_13">
      <!-- −20 -->
      <g transform="translate(27.240625 215.574505) scale(0.1 -0.1)">
       <use xlink:href="#DejaVuSans-2212"/>
       <use xlink:href="#DejaVuSans-32" x="83.789062"/>
       <use xlink:href="#DejaVuSans-30" x="147.412109"/>
      </g>
     </g>
    </g>
    <g id="ytick_6">
     <g id="line2d_13">
      <g>
       <use xlink:href="#m5e537dbd3f" x="55.345313" y="97.849827" style="stroke: #000000; stroke-width: 0.8"/>
      </g>
     </g>
     <g id="text_14">
      <!-- 0 -->
      <g transform="translate(41.982813 101.649046) scale(0.1 -0.1)">
       <use xlink:href="#DejaVuSans-30"/>
      </g>
     </g>
    </g>
    <g id="text_15">
     <!-- Average Coral Cover Change Rate (%) -->
     <g transform="translate(14.798437 450.396406) rotate(-90) scale(0.1 -0.1)">
      <defs>
       <path id="DejaVuSans-41" d="M 2188 4044 
L 1331 1722 
L 3047 1722 
L 2188 4044 
z
M 1831 4666 
L 2547 4666 
L 4325 0 
L 3669 0 
L 3244 1197 
L 1141 1197 
L 716 0 
L 50 0 
L 1831 4666 
z
" transform="scale(0.015625)"/>
       <path id="DejaVuSans-76" d="M 191 3500 
L 800 3500 
L 1894 563 
L 2988 3500 
L 3597 3500 
L 2284 0 
L 1503 0 
L 191 3500 
z
" transform="scale(0.015625)"/>
       <path id="DejaVuSans-72" d="M 2631 2963 
Q 2534 3019 2420 3045 
Q 2306 3072 2169 3072 
Q 1681 3072 1420 2755 
Q 1159 2438 1159 1844 
L 1159 0 
L 581 0 
L 581 3500 
L 1159 3500 
L 1159 2956 
Q 1341 3275 1631 3429 
Q 1922 3584 2338 3584 
Q 2397 3584 2469 3576 
Q 2541 3569 2628 3553 
L 2631 2963 
z
" transform="scale(0.015625)"/>
       <path id="DejaVuSans-67" d="M 2906 1791 
Q 2906 2416 2648 2759 
Q 2391 3103 1925 3103 
Q 1463 3103 1205 2759 
Q 947 2416 947 1791 
Q 947 1169 1205 825 
Q 1463 481 1925 481 
Q 2391 481 2648 825 
Q 2906 1169 2906 1791 
z
M 3481 434 
Q 3481 -459 3084 -895 
Q 2688 -1331 1869 -1331 
Q 1566 -1331 1297 -1286 
Q 1028 -1241 775 -1147 
L 775 -588 
Q 1028 -725 1275 -790 
Q 1522 -856 1778 -856 
Q 2344 -856 2625 -561 
Q 2906 -266 2906 331 
L 2906 616 
Q 2728 306 2450 153 
Q 2172 0 1784 0 
Q 1141 0 747 490 
Q 353 981 353 1791 
Q 353 2603 747 3093 
Q 1141 3584 1784 3584 
Q 2172 3584 2450 3431 
Q 2728 3278 2906 2969 
L 2906 3500 
L 3481 3500 
L 3481 434 
z
" transform="scale(0.015625)"/>
       <path id="DejaVuSans-20" transform="scale(0.015625)"/>
       <path id="DejaVuSans-43" d="M 4122 4306 
L 4122 3641 
Q 3803 3938 3442 4084 
Q 3081 4231 2675 4231 
Q 1875 4231 1450 3742 
Q 1025 3253 1025 2328 
Q 1025 1406 1450 917 
Q 1875 428 2675 428 
Q 3081 428 3442 575 
Q 3803 722 4122 1019 
L 4122 359 
Q 3791 134 3420 21 
Q 3050 -91 2638 -91 
Q 1578 -91 968 557 
Q 359 1206 359 2328 
Q 359 3453 968 4101 
Q 1578 4750 2638 4750 
Q 3056 4750 3426 4639 
Q 3797 4528 4122 4306 
z
" transform="scale(0.015625)"/>
       <path id="DejaVuSans-6f" d="M 1959 3097 
Q 1497 3097 1228 2736 
Q 959 2375 959 1747 
Q 959 1119 1226 758 
Q 1494 397 1959 397 
Q 2419 397 2687 759 
Q 2956 1122 2956 1747 
Q 2956 2369 2687 2733 
Q 2419 3097 1959 3097 
z
M 1959 3584 
Q 2709 3584 3137 3096 
Q 3566 2609 3566 1747 
Q 3566 888 3137 398 
Q 2709 -91 1959 -91 
Q 1206 -91 779 398 
Q 353 888 353 1747 
Q 353 2609 779 3096 
Q 1206 3584 1959 3584 
z
" transform="scale(0.015625)"/>
       <path id="DejaVuSans-6c" d="M 603 4863 
L 1178 4863 
L 1178 0 
L 603 0 
L 603 4863 
z
" transform="scale(0.015625)"/>
       <path id="DejaVuSans-68" d="M 3513 2113 
L 3513 0 
L 2938 0 
L 2938 2094 
Q 2938 2591 2744 2837 
Q 2550 3084 2163 3084 
Q 1697 3084 1428 2787 
Q 1159 2491 1159 1978 
L 1159 0 
L 581 0 
L 581 4863 
L 1159 4863 
L 1159 2956 
Q 1366 3272 1645 3428 
Q 1925 3584 2291 3584 
Q 2894 3584 3203 3211 
Q 3513 2838 3513 2113 
z
" transform="scale(0.015625)"/>
       <path id="DejaVuSans-6e" d="M 3513 2113 
L 3513 0 
L 2938 0 
L 2938 2094 
Q 2938 2591 2744 2837 
Q 2550 3084 2163 3084 
Q 1697 3084 1428 2787 
Q 1159 2491 1159 1978 
L 1159 0 
L 581 0 
L 581 3500 
L 1159 3500 
L 1159 2956 
Q 1366 3272 1645 3428 
Q 1925 3584 2291 3584 
Q 2894 3584 3203 3211 
Q 3513 2838 3513 2113 
z
" transform="scale(0.015625)"/>
       <path id="DejaVuSans-52" d="M 2841 2188 
Q 3044 2119 3236 1894 
Q 3428 1669 3622 1275 
L 4263 0 
L 3584 0 
L 2988 1197 
Q 2756 1666 2539 1819 
Q 2322 1972 1947 1972 
L 1259 1972 
L 1259 0 
L 628 0 
L 628 4666 
L 2053 4666 
Q 2853 4666 3247 4331 
Q 3641 3997 3641 3322 
Q 3641 2881 3436 2590 
Q 3231 2300 2841 2188 
z
M 1259 4147 
L 1259 2491 
L 2053 2491 
Q 2509 2491 2742 2702 
Q 2975 2913 2975 3322 
Q 2975 3731 2742 3939 
Q 2509 4147 2053 4147 
L 1259 4147 
z
" transform="scale(0.015625)"/>
       <path id="DejaVuSans-28" d="M 1984 4856 
Q 1566 4138 1362 3434 
Q 1159 2731 1159 2009 
Q 1159 1288 1364 580 
Q 1569 -128 1984 -844 
L 1484 -844 
Q 1016 -109 783 600 
Q 550 1309 550 2009 
Q 550 2706 781 3412 
Q 1013 4119 1484 4856 
L 1984 4856 
z
" transform="scale(0.015625)"/>
       <path id="DejaVuSans-25" d="M 4653 2053 
Q 4381 2053 4226 1822 
Q 4072 1591 4072 1178 
Q 4072 772 4226 539 
Q 4381 306 4653 306 
Q 4919 306 5073 539 
Q 5228 772 5228 1178 
Q 5228 1588 5073 1820 
Q 4919 2053 4653 2053 
z
M 4653 2450 
Q 5147 2450 5437 2106 
Q 5728 1763 5728 1178 
Q 5728 594 5436 251 
Q 5144 -91 4653 -91 
Q 4153 -91 3862 251 
Q 3572 594 3572 1178 
Q 3572 1766 3864 2108 
Q 4156 2450 4653 2450 
z
M 1428 4353 
Q 1159 4353 1004 4120 
Q 850 3888 850 3481 
Q 850 3069 1003 2837 
Q 1156 2606 1428 2606 
Q 1700 2606 1854 2837 
Q 2009 3069 2009 3481 
Q 2009 3884 1853 4118 
Q 1697 4353 1428 4353 
z
M 4250 4750 
L 4750 4750 
L 1831 -91 
L 1331 -91 
L 4250 4750 
z
M 1428 4750 
Q 1922 4750 2215 4408 
Q 2509 4066 2509 3481 
Q 2509 2891 2217 2550 
Q 1925 2209 1428 2209 
Q 931 2209 642 2551 
Q 353 2894 353 3481 
Q 353 4063 643 4406 
Q 934 4750 1428 4750 
z
" transform="scale(0.015625)"/>
       <path id="DejaVuSans-29" d="M 513 4856 
L 1013 4856 
Q 1481 4119 1714 3412 
Q 1947 2706 1947 2009 
Q 1947 1309 1714 600 
Q 1481 -109 1013 -844 
L 513 -844 
Q 928 -128 1133 580 
Q 1338 1288 1338 2009 
Q 1338 2731 1133 3434 
Q 928 4138 513 4856 
z
" transform="scale(0.015625)"/>
      </defs>
      <use xlink:href="#DejaVuSans-41"/>
      <use xlink:href="#DejaVuSans-76" x="62.533203"/>
      <use xlink:href="#DejaVuSans-65" x="121.712891"/>
      <use xlink:href="#DejaVuSans-72" x="183.236328"/>
      <use xlink:href="#DejaVuSans-61" x="224.349609"/>
      <use xlink:href="#DejaVuSans-67" x="285.628906"/>
      <use xlink:href="#DejaVuSans-65" x="349.105469"/>
      <use xlink:href="#DejaVuSans-20" x="410.628906"/>
      <use xlink:href="#DejaVuSans-43" x="442.416016"/>
      <use xlink:href="#DejaVuSans-6f" x="512.240234"/>
      <use xlink:href="#DejaVuSans-72" x="573.421875"/>
      <use xlink:href="#DejaVuSans-61" x="614.535156"/>
      <use xlink:href="#DejaVuSans-6c" x="675.814453"/>
      <use xlink:href="#DejaVuSans-20" x="703.597656"/>
      <use xlink:href="#DejaVuSans-43" x="735.384766"/>
      <use xlink:href="#DejaVuSans-6f" x="805.208984"/>
      <use xlink:href="#DejaVuSans-76" x="866.390625"/>
      <use xlink:href="#DejaVuSans-65" x="925.570312"/>
      <use xlink:href="#DejaVuSans-72" x="987.09375"/>
      <use xlink:href="#DejaVuSans-20" x="1028.207031"/>
      <use xlink:href="#DejaVuSans-43" x="1059.994141"/>
      <use xlink:href="#DejaVuSans-68" x="1129.818359"/>
      <use xlink:href="#DejaVuSans-61" x="1193.197266"/>
      <use xlink:href="#DejaVuSans-6e" x="1254.476562"/>
      <use xlink:href="#DejaVuSans-67" x="1317.855469"/>
      <use xlink:href="#DejaVuSans-65" x="1381.332031"/>
      <use xlink:href="#DejaVuSans-20" x="1442.855469"/>
      <use xlink:href="#DejaVuSans-52" x="1474.642578"/>
      <use xlink:href="#DejaVuSans-61" x="1541.875"/>
      <use xlink:href="#DejaVuSans-74" x="1603.154297"/>
      <use xlink:href="#DejaVuSans-65" x="1642.363281"/>
      <use xlink:href="#DejaVuSans-20" x="1703.886719"/>
      <use xlink:href="#DejaVuSans-28" x="1735.673828"/>
      <use xlink:href="#DejaVuSans-25" x="1774.6875"/>
      <use xlink:href="#DejaVuSans-29" x="1869.707031"/>
     </g>
    </g>
   </g>
   <g id="line2d_14">
    <path d="M 120.776143 231.113283 
L 135.4797 452.843081 
L 150.183257 568.92819 
L 164.886814 536.789856 
L 179.590372 653.121909 
L 194.293929 657.358125 
L 208.997486 656.279437 
L 223.701044 642.712137 
L 238.404601 648.739253 
L 253.108158 625.926478 
L 267.811716 641.965238 
L 282.515273 626.897724 
L 297.21883 618.141505 
L 311.922388 622.138003 
L 326.625945 596.063176 
L 341.329502 599.46562 
L 356.03306 600.472615 
L 370.736617 611.69514 
L 385.440174 614.547058 
L 400.143731 608.63035 
L 414.847289 612.981014 
L 429.550846 602.298808 
L 444.254403 580.029696 
L 458.957961 570.849114 
L 473.661518 582.263683 
L 488.365075 587.346936 
L 503.068633 577.205831 
L 517.77219 569.364866 
L 532.475747 593.620984 
L 547.179305 601.60784 
L 561.882862 555.21258 
L 576.586419 558.795794 
L 591.289977 544.875246 
L 605.993534 554.581184 
L 620.697091 564.029069 
L 635.400648 572.79198 
L 650.104206 583.248149 
L 664.807763 563.634761 
L 679.51132 565.562144 
L 694.214878 584.607526 
L 708.918435 574.218796 
L 723.621992 586.940192 
L 738.32555 606.200695 
L 753.029107 602.469737 
L 767.732664 605.811612 
L 782.436222 609.439322 
L 797.139779 615.72813 
L 811.843336 616.818137 
L 826.546894 622.258673 
L 841.250451 603.043354 
L 855.954008 575.344241 
L 870.657565 578.944231 
L 885.361123 601.2014 
L 900.06468 606.541118 
L 914.768237 579.609415 
L 929.471795 547.855255 
L 944.175352 523.567813 
L 958.878909 571.148126 
L 973.582467 561.127562 
L 988.286024 619.90347 
L 1002.989581 617.479994 
L 1017.693139 597.132386 
L 1032.396696 631.52808 
L 1047.100253 652.174712 
L 1061.803811 344.271497 
L 1076.507368 443.639408 
L 1091.210925 443.804678 
L 1105.914482 572.602402 
L 1120.61804 530.769351 
" clip-path="url(#p2fa4e5263d)" style="fill: none; stroke: #1f77b4; stroke-width: 1.5; stroke-linecap: square"/>
   </g>
   <g id="line2d_15">
    <path d="M 120.776143 149.214118 
L 135.4797 393.235202 
L 150.183257 496.123571 
L 164.886814 467.785905 
L 179.590372 641.184765 
L 194.293929 650.278602 
L 208.997486 646.837836 
L 223.701044 632.379838 
L 238.404601 631.856036 
L 253.108158 622.010778 
L 267.811716 631.968532 
L 282.515273 613.128908 
L 297.21883 600.814144 
L 311.922388 607.85137 
L 326.625945 573.670577 
L 341.329502 583.908879 
L 356.03306 595.291507 
L 370.736617 618.673991 
L 385.440174 606.393005 
L 400.143731 589.815546 
L 414.847289 587.562648 
L 429.550846 580.990048 
L 444.254403 570.432608 
L 458.957961 565.348726 
L 473.661518 568.882619 
L 488.365075 574.051072 
L 503.068633 573.052804 
L 517.77219 566.201916 
L 532.475747 592.577885 
L 547.179305 594.951335 
L 561.882862 534.517644 
L 576.586419 529.9673 
L 591.289977 516.881836 
L 605.993534 531.962385 
L 620.697091 551.905906 
L 635.400648 564.688069 
L 650.104206 577.410373 
L 664.807763 549.643983 
L 679.51132 557.805458 
L 694.214878 574.415293 
L 708.918435 555.554209 
L 723.621992 573.875747 
L 738.32555 592.126105 
L 753.029107 589.91475 
L 767.732664 596.815443 
L 782.436222 601.456628 
L 797.139779 603.164688 
L 811.843336 600.118081 
L 826.546894 611.350991 
L 841.250451 587.62527 
L 855.954008 562.736933 
L 870.657565 570.032141 
L 885.361123 593.084428 
L 900.06468 602.563774 
L 914.768237 576.436505 
L 929.471795 549.735313 
L 944.175352 528.89882 
L 958.878909 581.006558 
L 973.582467 573.030227 
L 988.286024 631.567639 
L 1002.989581 622.657817 
L 1017.693139 598.56493 
L 1032.396696 627.486005 
L 1047.100253 544.413509 
L 1061.803811 309.373846 
L 1076.507368 469.490938 
L 1091.210925 478.668701 
L 1105.914482 525.6295 
L 1120.61804 516.618427 
" clip-path="url(#p2fa4e5263d)" style="fill: none; stroke: #aec7e8; stroke-width: 1.5; stroke-linecap: square"/>
   </g>
   <g id="line2d_16">
    <path d="M 120.776143 142.817819 
L 135.4797 347.847636 
L 150.183257 334.364329 
L 164.886814 364.59524 
L 179.590372 528.190406 
L 194.293929 621.419403 
L 208.997486 492.928186 
L 223.701044 526.772813 
L 238.404601 586.939428 
L 253.108158 606.706791 
L 267.811716 617.111532 
L 282.515273 608.773459 
L 297.21883 596.636028 
L 311.922388 606.863683 
L 326.625945 584.764962 
L 341.329502 596.395297 
L 356.03306 589.873902 
L 370.736617 585.990097 
L 385.440174 587.26225 
L 400.143731 583.515501 
L 414.847289 584.816094 
L 429.550846 582.06454 
L 444.254403 574.370415 
L 458.957961 577.238842 
L 473.661518 583.82672 
L 488.365075 587.335407 
L 503.068633 579.904846 
L 517.77219 570.786454 
L 532.475747 593.411933 
L 547.179305 600.568294 
L 561.882862 567.889829 
L 576.586419 565.693992 
L 591.289977 542.313302 
L 605.993534 554.82776 
L 620.697091 566.925473 
L 635.400648 575.992344 
L 650.104206 593.026785 
L 664.807763 572.2655 
L 679.51132 577.475674 
L 694.214878 589.968104 
L 708.918435 568.050096 
L 723.621992 595.322445 
L 738.32555 619.3288 
L 753.029107 619.59517 
L 767.732664 628.097864 
L 782.436222 634.645352 
L 797.139779 634.133098 
L 811.843336 638.779161 
L 826.546894 642.830126 
L 841.250451 630.462119 
L 855.954008 624.759672 
L 870.657565 629.042207 
L 885.361123 642.201838 
L 900.06468 637.943492 
L 914.768237 626.911006 
L 929.471795 614.229068 
L 944.175352 592.955514 
L 958.878909 618.609592 
L 973.582467 598.538395 
L 988.286024 648.630302 
L 1002.989581 650.03098 
L 1017.693139 612.907084 
L 1032.396696 608.275781 
L 1047.100253 656.556841 
L 1061.803811 414.383117 
L 1076.507368 512.268523 
L 1091.210925 601.773267 
L 1105.914482 436.803442 
L 1120.61804 198.616358 
" clip-path="url(#p2fa4e5263d)" style="fill: none; stroke: #ffbb78; stroke-width: 1.5; stroke-linecap: square"/>
   </g>
   <g id="line2d_17">
    <path d="M 120.776143 116.708493 
L 135.4797 290.953467 
L 150.183257 269.558786 
L 164.886814 348.921505 
L 179.590372 566.493982 
L 194.293929 627.225733 
L 208.997486 583.013863 
L 223.701044 570.528326 
L 238.404601 593.546066 
L 253.108158 616.992222 
L 267.811716 630.026743 
L 282.515273 624.513139 
L 297.21883 618.01798 
L 311.922388 620.656665 
L 326.625945 583.513771 
L 341.329502 594.605047 
L 356.03306 590.332399 
L 370.736617 597.992441 
L 385.440174 590.352629 
L 400.143731 575.824373 
L 414.847289 562.08257 
L 429.550846 569.8548 
L 444.254403 556.076733 
L 458.957961 554.574196 
L 473.661518 546.211007 
L 488.365075 551.432929 
L 503.068633 536.998072 
L 517.77219 520.601067 
L 532.475747 546.153475 
L 547.179305 556.38484 
L 561.882862 512.83958 
L 576.586419 511.841546 
L 591.289977 492.958302 
L 605.993534 513.82634 
L 620.697091 532.975642 
L 635.400648 532.838161 
L 650.104206 550.108961 
L 664.807763 535.673556 
L 679.51132 533.967357 
L 694.214878 548.761863 
L 708.918435 548.846191 
L 723.621992 572.381169 
L 738.32555 582.000789 
L 753.029107 578.058426 
L 767.732664 571.592166 
L 782.436222 568.90136 
L 797.139779 569.413871 
L 811.843336 573.120664 
L 826.546894 594.95121 
L 841.250451 585.883698 
L 855.954008 576.641178 
L 870.657565 583.178627 
L 885.361123 603.683684 
L 900.06468 611.077091 
L 914.768237 560.08506 
L 929.471795 585.609551 
L 944.175352 590.015759 
L 958.878909 623.499961 
L 973.582467 580.092381 
L 988.286024 650.27566 
L 1002.989581 623.841894 
L 1017.693139 595.29909 
L 1032.396696 642.14832 
L 1047.100253 550.071485 
L 1061.803811 424.611404 
L 1076.507368 614.214264 
L 1091.210925 557.389175 
L 1105.914482 600.050894 
L 1120.61804 523.888452 
" clip-path="url(#p2fa4e5263d)" style="fill: none; stroke: #98df8a; stroke-width: 1.5; stroke-linecap: square"/>
   </g>
   <g id="line2d_18">
    <path d="M 120.776143 136.000901 
L 135.4797 288.782563 
L 150.183257 243.573817 
L 164.886814 301.145209 
L 179.590372 544.257508 
L 194.293929 577.783185 
L 208.997486 590.783859 
L 223.701044 555.689151 
L 238.404601 551.239232 
L 253.108158 545.465682 
L 267.811716 576.630148 
L 282.515273 559.66773 
L 297.21883 570.137666 
L 311.922388 581.336263 
L 326.625945 553.141153 
L 341.329502 561.500419 
L 356.03306 565.744983 
L 370.736617 587.517806 
L 385.440174 579.435236 
L 400.143731 548.915643 
L 414.847289 550.625637 
L 429.550846 548.402847 
L 444.254403 536.785662 
L 458.957961 526.874225 
L 473.661518 529.701707 
L 488.365075 526.958207 
L 503.068633 506.764728 
L 517.77219 485.354925 
L 532.475747 517.150775 
L 547.179305 520.927948 
L 561.882862 465.776632 
L 576.586419 470.619245 
L 591.289977 453.307497 
L 605.993534 478.42617 
L 620.697091 499.068787 
L 635.400648 518.891555 
L 650.104206 539.769566 
L 664.807763 525.954346 
L 679.51132 527.710186 
L 694.214878 546.729621 
L 708.918435 526.207875 
L 723.621992 553.630815 
L 738.32555 578.115696 
L 753.029107 574.399589 
L 767.732664 574.377097 
L 782.436222 570.262342 
L 797.139779 573.334397 
L 811.843336 578.088962 
L 826.546894 607.464508 
L 841.250451 589.186032 
L 855.954008 577.734744 
L 870.657565 576.345608 
L 885.361123 598.87472 
L 900.06468 601.814327 
L 914.768237 572.91307 
L 929.471795 598.052659 
L 944.175352 588.909701 
L 958.878909 632.014615 
L 973.582467 593.437973 
L 988.286024 652.188893 
L 1002.989581 649.631912 
L 1017.693139 615.431837 
L 1032.396696 589.324028 
L 1047.100253 510.382016 
L 1061.803811 351.017448 
L 1076.507368 465.560632 
L 1091.210925 495.420467 
L 1105.914482 561.126591 
L 1120.61804 493.132421 
" clip-path="url(#p2fa4e5263d)" style="fill: none; stroke: #ff9896; stroke-width: 1.5; stroke-linecap: square"/>
   </g>
   <g id="line2d_19">
    <path d="M 106.072585 146.587756 
L 120.776143 117.137509 
L 135.4797 250.369243 
L 150.183257 170.219017 
L 164.886814 180.306457 
L 179.590372 402.129151 
L 194.293929 487.564188 
L 208.997486 453.599965 
L 223.701044 462.886275 
L 238.404601 449.333719 
L 253.108158 437.061496 
L 267.811716 483.133208 
L 282.515273 441.907741 
L 297.21883 464.116679 
L 311.922388 482.749218 
L 326.625945 444.176323 
L 341.329502 458.618401 
L 356.03306 465.561931 
L 370.736617 488.873385 
L 385.440174 483.840252 
L 400.143731 457.409648 
L 414.847289 449.006742 
L 429.550846 467.625545 
L 444.254403 441.18351 
L 458.957961 443.271676 
L 473.661518 426.361689 
L 488.365075 411.926515 
L 503.068633 384.027385 
L 517.77219 359.765508 
L 532.475747 377.661525 
L 547.179305 366.234952 
L 561.882862 315.602809 
L 576.586419 320.917171 
L 591.289977 311.202646 
L 605.993534 354.68126 
L 620.697091 371.11257 
L 635.400648 395.528003 
L 650.104206 433.932226 
L 664.807763 400.806212 
L 679.51132 399.320383 
L 694.214878 413.487707 
L 708.918435 416.281642 
L 723.621992 467.00714 
L 738.32555 477.786888 
L 753.029107 472.275907 
L 767.732664 474.738686 
L 782.436222 466.715502 
L 797.139779 477.553601 
L 811.843336 495.450663 
L 826.546894 519.408674 
L 841.250451 480.062041 
L 855.954008 434.066842 
L 870.657565 463.022142 
L 885.361123 493.9814 
L 900.06468 539.162857 
L 914.768237 474.140742 
L 929.471795 498.515286 
L 944.175352 456.377517 
L 958.878909 516.731782 
L 973.582467 507.009658 
L 988.286024 596.167358 
L 1002.989581 578.108039 
L 1017.693139 561.085937 
L 1032.396696 593.523851 
L 1047.100253 417.5648 
L 1061.803811 291.591188 
L 1076.507368 499.943964 
L 1091.210925 456.575194 
L 1105.914482 493.762405 
L 1120.61804 392.095983 
" clip-path="url(#p2fa4e5263d)" style="fill: none; stroke: #c5b0d5; stroke-width: 1.5; stroke-linecap: square"/>
   </g>
   <g id="line2d_20">
    <path d="M 120.776143 262.790456 
L 135.4797 387.760842 
L 150.183257 437.13018 
L 164.886814 518.381457 
L 179.590372 614.232135 
L 194.293929 648.188342 
L 208.997486 627.594089 
L 223.701044 634.222035 
L 238.404601 638.320471 
L 253.108158 613.002266 
L 267.811716 628.975277 
L 282.515273 615.756486 
L 297.21883 602.802551 
L 311.922388 604.791139 
L 326.625945 572.161661 
L 341.329502 593.989329 
L 356.03306 588.860629 
L 370.736617 597.878607 
L 385.440174 601.988684 
L 400.143731 593.955489 
L 414.847289 598.245087 
L 429.550846 597.971802 
L 444.254403 586.766402 
L 458.957961 589.321889 
L 473.661518 588.045728 
L 488.365075 584.523558 
L 503.068633 574.176038 
L 517.77219 575.613058 
L 532.475747 593.215076 
L 547.179305 602.059526 
L 561.882862 577.723508 
L 576.586419 582.025935 
L 591.289977 559.34829 
L 605.993534 567.5314 
L 620.697091 590.128916 
L 635.400648 595.264199 
L 650.104206 600.88222 
L 664.807763 575.493923 
L 679.51132 578.299266 
L 694.214878 589.38007 
L 708.918435 571.551648 
L 723.621992 595.19443 
L 738.32555 605.294086 
L 753.029107 597.276815 
L 767.732664 601.483071 
L 782.436222 609.909849 
L 797.139779 612.514841 
L 811.843336 609.3189 
L 826.546894 619.064238 
L 841.250451 606.620475 
L 855.954008 611.415244 
L 870.657565 616.143442 
L 885.361123 641.212746 
L 900.06468 635.003421 
L 914.768237 598.924503 
L 929.471795 597.030234 
L 944.175352 582.244675 
L 958.878909 620.333481 
L 973.582467 621.496305 
L 988.286024 636.655432 
L 1002.989581 656.029166 
L 1017.693139 634.504981 
L 1032.396696 593.905867 
L 1047.100253 464.508269 
L 1061.803811 379.850691 
L 1076.507368 462.963692 
L 1091.210925 579.473952 
L 1105.914482 592.583899 
L 1120.61804 557.814494 
" clip-path="url(#p2fa4e5263d)" style="fill: none; stroke: #8c564b; stroke-width: 1.5; stroke-linecap: square"/>
   </g>
   <g id="line2d_21">
    <path d="M 120.776143 114.805651 
L 135.4797 207.010441 
L 150.183257 143.401137 
L 164.886814 162.529455 
L 179.590372 381.231779 
L 194.293929 485.97286 
L 208.997486 381.65175 
L 223.701044 439.1648 
L 238.404601 440.136293 
L 253.108158 412.173927 
L 267.811716 507.117232 
L 282.515273 478.939824 
L 297.21883 498.808652 
L 311.922388 515.837926 
L 326.625945 466.574963 
L 341.329502 488.258576 
L 356.03306 493.026866 
L 370.736617 484.426729 
L 385.440174 471.352643 
L 400.143731 460.621008 
L 414.847289 461.336694 
L 429.550846 483.256794 
L 444.254403 440.693374 
L 458.957961 445.260239 
L 473.661518 442.71589 
L 488.365075 440.39946 
L 503.068633 411.567957 
L 517.77219 387.790635 
L 532.475747 432.894935 
L 547.179305 448.860711 
L 561.882862 413.284869 
L 576.586419 427.352598 
L 591.289977 423.170384 
L 605.993534 430.608135 
L 620.697091 435.094406 
L 635.400648 426.473788 
L 650.104206 444.869462 
L 664.807763 411.097192 
L 679.51132 415.997371 
L 694.214878 432.789812 
L 708.918435 408.251112 
L 723.621992 448.952283 
L 738.32555 463.211768 
L 753.029107 450.602426 
L 767.732664 460.455627 
L 782.436222 476.842158 
L 797.139779 488.64784 
L 811.843336 495.570105 
L 826.546894 534.664637 
L 841.250451 530.047239 
L 855.954008 509.157386 
L 870.657565 534.786212 
L 885.361123 561.170887 
L 900.06468 591.992261 
L 914.768237 527.557244 
L 929.471795 560.108417 
L 944.175352 543.742613 
L 958.878909 561.09626 
L 973.582467 533.349262 
L 988.286024 587.823078 
L 1002.989581 594.472356 
L 1017.693139 612.579715 
L 1032.396696 643.809868 
L 1047.100253 651.54752 
L 1061.803811 556.674924 
L 1076.507368 550.210408 
L 1091.210925 563.214825 
L 1105.914482 468.210993 
L 1120.61804 378.082285 
" clip-path="url(#p2fa4e5263d)" style="fill: none; stroke: #e377c2; stroke-width: 1.5; stroke-linecap: square"/>
   </g>
   <g id="line2d_22">
    <path d="M 106.072585 148.436763 
L 120.776143 111.711755 
L 135.4797 210.272576 
L 150.183257 177.398775 
L 164.886814 241.207752 
L 179.590372 401.659064 
L 194.293929 499.236313 
L 208.997486 479.64674 
L 223.701044 447.355552 
L 238.404601 457.64015 
L 253.108158 450.699502 
L 267.811716 476.894682 
L 282.515273 471.404624 
L 297.21883 468.240467 
L 311.922388 496.930272 
L 326.625945 457.24932 
L 341.329502 445.445463 
L 356.03306 449.96268 
L 370.736617 464.889786 
L 385.440174 459.930345 
L 400.143731 432.664313 
L 414.847289 399.851999 
L 429.550846 421.506528 
L 444.254403 376.062396 
L 458.957961 352.405714 
L 473.661518 311.213536 
L 488.365075 311.894541 
L 503.068633 304.857791 
L 517.77219 299.744368 
L 532.475747 329.290748 
L 547.179305 319.901536 
L 561.882862 272.566531 
L 576.586419 282.999659 
L 591.289977 277.820045 
L 605.993534 289.026196 
L 620.697091 285.386935 
L 635.400648 288.386668 
L 650.104206 317.801382 
L 664.807763 304.168508 
L 679.51132 308.176859 
L 694.214878 324.759863 
L 708.918435 308.330336 
L 723.621992 345.583716 
L 738.32555 348.291595 
L 753.029107 347.658287 
L 767.732664 365.305547 
L 782.436222 350.605624 
L 797.139779 373.561375 
L 811.843336 377.29637 
L 826.546894 407.716775 
L 841.250451 422.48274 
L 855.954008 410.767515 
L 870.657565 428.962933 
L 885.361123 461.4919 
L 900.06468 510.483069 
L 914.768237 438.529867 
L 929.471795 484.398147 
L 944.175352 466.627963 
L 958.878909 525.53831 
L 973.582467 527.054754 
L 988.286024 551.913198 
L 1002.989581 567.350179 
L 1017.693139 583.852278 
L 1032.396696 623.585723 
L 1047.100253 440.872532 
L 1061.803811 253.892576 
L 1076.507368 466.088597 
L 1091.210925 335.485042 
L 1105.914482 519.233246 
L 1120.61804 378.075947 
" clip-path="url(#p2fa4e5263d)" style="fill: none; stroke: #7f7f7f; stroke-width: 1.5; stroke-linecap: square"/>
   </g>
   <g id="line2d_23">
    <path d="M 106.072585 119.07229 
L 120.776143 118.506667 
L 135.4797 186.736478 
L 150.183257 152.254727 
L 164.886814 150.088205 
L 179.590372 332.031612 
L 194.293929 467.547112 
L 208.997486 402.850967 
L 223.701044 427.725252 
L 238.404601 455.603551 
L 253.108158 433.491733 
L 267.811716 496.699633 
L 282.515273 460.28853 
L 297.21883 465.162867 
L 311.922388 481.161538 
L 326.625945 450.377721 
L 341.329502 453.339518 
L 356.03306 444.261216 
L 370.736617 443.469738 
L 385.440174 432.930852 
L 400.143731 400.866598 
L 414.847289 373.875654 
L 429.550846 412.588945 
L 444.254403 353.593199 
L 458.957961 351.968456 
L 473.661518 359.780068 
L 488.365075 353.150448 
L 503.068633 341.24211 
L 517.77219 316.856359 
L 532.475747 330.579147 
L 547.179305 336.030567 
L 561.882862 306.815929 
L 576.586419 308.787866 
L 591.289977 294.617959 
L 605.993534 306.852248 
L 620.697091 313.882932 
L 635.400648 334.13672 
L 650.104206 357.174671 
L 664.807763 342.745138 
L 679.51132 343.34367 
L 694.214878 350.890277 
L 708.918435 329.296953 
L 723.621992 366.620109 
L 738.32555 382.272191 
L 753.029107 355.672692 
L 767.732664 363.958947 
L 782.436222 372.514165 
L 797.139779 399.936444 
L 811.843336 401.969063 
L 826.546894 443.078203 
L 841.250451 450.104723 
L 855.954008 419.543292 
L 870.657565 435.013384 
L 885.361123 461.676925 
L 900.06468 501.702901 
L 914.768237 436.498923 
L 929.471795 462.22903 
L 944.175352 433.593513 
L 958.878909 480.563732 
L 973.582467 474.32942 
L 988.286024 544.902218 
L 1002.989581 567.730856 
L 1017.693139 562.240009 
L 1032.396696 607.873238 
L 1047.100253 431.320929 
L 1061.803811 216.486063 
L 1076.507368 502.1289 
L 1091.210925 372.085267 
L 1105.914482 479.178577 
L 1120.61804 292.521045 
" clip-path="url(#p2fa4e5263d)" style="fill: none; stroke: #bcbd22; stroke-width: 1.5; stroke-linecap: square"/>
   </g>
   <g id="line2d_24">
    <path d="M 106.072585 164.992699 
L 120.776143 127.881612 
L 135.4797 189.283101 
L 150.183257 133.575047 
L 164.886814 168.565734 
L 179.590372 381.046527 
L 194.293929 472.155304 
L 208.997486 406.213451 
L 223.701044 417.584643 
L 238.404601 425.664379 
L 253.108158 399.669265 
L 267.811716 434.569584 
L 282.515273 433.305513 
L 297.21883 461.766769 
L 311.922388 506.57957 
L 326.625945 461.541197 
L 341.329502 473.538515 
L 356.03306 487.081018 
L 370.736617 502.549467 
L 385.440174 487.140044 
L 400.143731 463.460721 
L 414.847289 457.02427 
L 429.550846 483.192708 
L 444.254403 419.217346 
L 458.957961 417.195258 
L 473.661518 419.862569 
L 488.365075 401.721163 
L 503.068633 377.865988 
L 517.77219 353.664373 
L 532.475747 388.648598 
L 547.179305 391.950071 
L 561.882862 352.50681 
L 576.586419 352.117855 
L 591.289977 322.159595 
L 605.993534 335.710383 
L 620.697091 352.245448 
L 635.400648 373.298996 
L 650.104206 403.980854 
L 664.807763 366.824731 
L 679.51132 374.853463 
L 694.214878 393.596233 
L 708.918435 376.204046 
L 723.621992 418.128589 
L 738.32555 441.821043 
L 753.029107 456.985248 
L 767.732664 486.125092 
L 782.436222 483.406518 
L 797.139779 501.535706 
L 811.843336 509.174019 
L 826.546894 543.825416 
L 841.250451 541.545917 
L 855.954008 526.798393 
L 870.657565 534.478987 
L 885.361123 573.592419 
L 900.06468 581.698054 
L 914.768237 516.159885 
L 929.471795 520.777445 
L 944.175352 498.904328 
L 958.878909 550.515268 
L 973.582467 549.959382 
L 988.286024 619.121984 
L 1002.989581 606.697843 
L 1017.693139 596.145012 
L 1032.396696 633.588082 
L 1047.100253 556.824878 
L 1061.803811 284.869822 
L 1076.507368 478.486728 
L 1091.210925 495.807846 
L 1105.914482 465.467388 
L 1120.61804 405.187687 
" clip-path="url(#p2fa4e5263d)" style="fill: none; stroke: #17becf; stroke-width: 1.5; stroke-linecap: square"/>
   </g>
   <g id="line2d_25">
    <path d="M 106.072585 52.558125 
L 120.776143 105.070524 
L 135.4797 157.709947 
L 150.183257 139.62954 
L 164.886814 201.896262 
L 179.590372 415.986525 
L 194.293929 431.333445 
L 208.997486 410.518264 
L 223.701044 456.364911 
L 238.404601 427.336929 
L 253.108158 405.124515 
L 267.811716 446.426144 
L 282.515273 422.68231 
L 297.21883 453.923467 
L 311.922388 502.907298 
L 326.625945 456.846291 
L 341.329502 467.928179 
L 356.03306 478.203833 
L 370.736617 492.655099 
L 385.440174 470.473944 
L 400.143731 437.968202 
L 414.847289 416.315767 
L 429.550846 446.636831 
L 444.254403 429.570902 
L 458.957961 427.177887 
L 473.661518 428.648666 
L 488.365075 430.339571 
L 503.068633 412.182242 
L 517.77219 385.398216 
L 532.475747 405.272343 
L 547.179305 412.323277 
L 561.882862 354.98133 
L 576.586419 362.110173 
L 591.289977 341.563706 
L 605.993534 350.667606 
L 620.697091 346.976718 
L 635.400648 354.52635 
L 650.104206 389.015105 
L 664.807763 361.944769 
L 679.51132 377.075634 
L 694.214878 401.509731 
L 708.918435 391.911427 
L 723.621992 445.233249 
L 738.32555 452.600478 
L 753.029107 429.671192 
L 767.732664 444.94643 
L 782.436222 452.769293 
L 797.139779 475.183419 
L 811.843336 493.59151 
L 826.546894 531.798068 
L 841.250451 517.124229 
L 855.954008 502.242136 
L 870.657565 522.463933 
L 885.361123 556.941931 
L 900.06468 578.350221 
L 914.768237 534.61213 
L 929.471795 546.085001 
L 944.175352 531.321845 
L 958.878909 573.263632 
L 973.582467 557.753459 
L 988.286024 629.581436 
L 1002.989581 611.607347 
L 1017.693139 583.99242 
L 1032.396696 625.642993 
L 1047.100253 632.54951 
L 1061.803811 318.871428 
L 1076.507368 521.368942 
L 1091.210925 516.801974 
L 1105.914482 503.309281 
L 1120.61804 392.538393 
" clip-path="url(#p2fa4e5263d)" style="fill: none; stroke: #9edae5; stroke-width: 1.5; stroke-linecap: square"/>
   </g>
   <g id="line2d_26">
    <path d="M 106.072585 126.329526 
L 120.776143 144.479899 
L 135.4797 280.233715 
L 150.183257 272.17976 
L 164.886814 303.517753 
L 179.590372 488.46378 
L 194.293929 552.171884 
L 208.997486 510.993201 
L 223.701044 517.782144 
L 238.404601 525.529626 
L 253.108158 514.027055 
L 267.811716 547.626496 
L 282.515273 529.772166 
L 297.21883 534.880731 
L 311.922388 552.483579 
L 326.625945 516.673426 
L 341.329502 526.416104 
L 356.03306 529.056132 
L 370.736617 539.71769 
L 385.440174 532.137245 
L 400.143731 512.803949 
L 414.847289 504.477015 
L 429.550846 516.36585 
L 444.254403 488.731854 
L 458.957961 485.123852 
L 473.661518 482.292824 
L 488.365075 480.089984 
L 503.068633 464.987149 
L 517.77219 449.261812 
L 532.475747 475.039785 
L 547.179305 479.316741 
L 561.882862 435.809837 
L 576.586419 439.435761 
L 591.289977 423.351567 
L 605.993534 439.058422 
L 620.697091 450.811067 
L 635.400648 461.068069 
L 650.104206 482.601646 
L 664.807763 459.187718 
L 679.51132 463.298955 
L 694.214878 479.241342 
L 708.918435 464.558694 
L 723.621992 497.405824 
L 738.32555 512.420844 
L 753.029107 506.21502 
L 767.732664 514.475632 
L 782.436222 516.455676 
L 797.139779 527.058951 
L 811.843336 532.441303 
L 826.546894 556.534293 
L 841.250451 545.348986 
L 855.954008 527.600631 
L 870.657565 539.367821 
L 885.361123 565.759523 
L 900.06468 583.194382 
L 914.768237 536.864863 
L 929.471795 547.052117 
L 944.175352 528.096672 
L 958.878909 571.193443 
L 973.582467 556.431565 
L 988.286024 614.060889 
L 1002.989581 612.136532 
L 1017.693139 596.14464 
L 1032.396696 618.390987 
L 1047.100253 542.398917 
L 1061.803811 345.491167 
L 1076.507368 498.86375 
L 1091.210925 491.375032 
L 1105.914482 518.163218 
L 1120.61804 421.611737 
" clip-path="url(#p2fa4e5263d)" style="fill: none; stroke: #000000; stroke-width: 2.5; stroke-linecap: square"/>
   </g>
   <g id="patch_3">
    <path d="M 55.345313 687.598125 
L 55.345313 22.318125 
" style="fill: none; stroke: #000000; stroke-width: 0.8; stroke-linejoin: miter; stroke-linecap: square"/>
   </g>
   <g id="patch_4">
    <path d="M 1171.345313 687.598125 
L 1171.345313 22.318125 
" style="fill: none; stroke: #000000; stroke-width: 0.8; stroke-linejoin: miter; stroke-linecap: square"/>
   </g>
   <g id="patch_5">
    <path d="M 55.345312 687.598125 
L 1171.345313 687.598125 
" style="fill: none; stroke: #000000; stroke-width: 0.8; stroke-linejoin: miter; stroke-linecap: square"/>
   </g>
   <g id="patch_6">
    <path d="M 55.345312 22.318125 
L 1171.345313 22.318125 
" style="fill: none; stroke: #000000; stroke-width: 0.8; stroke-linejoin: miter; stroke-linecap: square"/>
   </g>
   <g id="text_16">
    <!-- Average Coral Cover Change Rate by Latitude -->
    <g transform="translate(458.505937 16.318125) scale(0.12 -0.12)">
     <defs>
      <path id="DejaVuSans-Bold-41" d="M 3419 850 
L 1538 850 
L 1241 0 
L 31 0 
L 1759 4666 
L 3194 4666 
L 4922 0 
L 3713 0 
L 3419 850 
z
M 1838 1716 
L 3116 1716 
L 2478 3572 
L 1838 1716 
z
" transform="scale(0.015625)"/>
      <path id="DejaVuSans-Bold-76" d="M 97 3500 
L 1216 3500 
L 2088 1081 
L 2956 3500 
L 4078 3500 
L 2700 0 
L 1472 0 
L 97 3500 
z
" transform="scale(0.015625)"/>
      <path id="DejaVuSans-Bold-65" d="M 4031 1759 
L 4031 1441 
L 1416 1441 
Q 1456 1047 1700 850 
Q 1944 653 2381 653 
Q 2734 653 3104 758 
Q 3475 863 3866 1075 
L 3866 213 
Q 3469 63 3072 -14 
Q 2675 -91 2278 -91 
Q 1328 -91 801 392 
Q 275 875 275 1747 
Q 275 2603 792 3093 
Q 1309 3584 2216 3584 
Q 3041 3584 3536 3087 
Q 4031 2591 4031 1759 
z
M 2881 2131 
Q 2881 2450 2695 2645 
Q 2509 2841 2209 2841 
Q 1884 2841 1681 2658 
Q 1478 2475 1428 2131 
L 2881 2131 
z
" transform="scale(0.015625)"/>
      <path id="DejaVuSans-Bold-72" d="M 3138 2547 
Q 2991 2616 2845 2648 
Q 2700 2681 2553 2681 
Q 2122 2681 1889 2404 
Q 1656 2128 1656 1613 
L 1656 0 
L 538 0 
L 538 3500 
L 1656 3500 
L 1656 2925 
Q 1872 3269 2151 3426 
Q 2431 3584 2822 3584 
Q 2878 3584 2943 3579 
Q 3009 3575 3134 3559 
L 3138 2547 
z
" transform="scale(0.015625)"/>
      <path id="DejaVuSans-Bold-61" d="M 2106 1575 
Q 1756 1575 1579 1456 
Q 1403 1338 1403 1106 
Q 1403 894 1545 773 
Q 1688 653 1941 653 
Q 2256 653 2472 879 
Q 2688 1106 2688 1447 
L 2688 1575 
L 2106 1575 
z
M 3816 1997 
L 3816 0 
L 2688 0 
L 2688 519 
Q 2463 200 2181 54 
Q 1900 -91 1497 -91 
Q 953 -91 614 226 
Q 275 544 275 1050 
Q 275 1666 698 1953 
Q 1122 2241 2028 2241 
L 2688 2241 
L 2688 2328 
Q 2688 2594 2478 2717 
Q 2269 2841 1825 2841 
Q 1466 2841 1156 2769 
Q 847 2697 581 2553 
L 581 3406 
Q 941 3494 1303 3539 
Q 1666 3584 2028 3584 
Q 2975 3584 3395 3211 
Q 3816 2838 3816 1997 
z
" transform="scale(0.015625)"/>
      <path id="DejaVuSans-Bold-67" d="M 2919 594 
Q 2688 288 2409 144 
Q 2131 0 1766 0 
Q 1125 0 706 504 
Q 288 1009 288 1791 
Q 288 2575 706 3076 
Q 1125 3578 1766 3578 
Q 2131 3578 2409 3434 
Q 2688 3291 2919 2981 
L 2919 3500 
L 4044 3500 
L 4044 353 
Q 4044 -491 3511 -936 
Q 2978 -1381 1966 -1381 
Q 1638 -1381 1331 -1331 
Q 1025 -1281 716 -1178 
L 716 -306 
Q 1009 -475 1290 -558 
Q 1572 -641 1856 -641 
Q 2406 -641 2662 -400 
Q 2919 -159 2919 353 
L 2919 594 
z
M 2181 2772 
Q 1834 2772 1640 2515 
Q 1447 2259 1447 1791 
Q 1447 1309 1634 1061 
Q 1822 813 2181 813 
Q 2531 813 2725 1069 
Q 2919 1325 2919 1791 
Q 2919 2259 2725 2515 
Q 2531 2772 2181 2772 
z
" transform="scale(0.015625)"/>
      <path id="DejaVuSans-Bold-20" transform="scale(0.015625)"/>
      <path id="DejaVuSans-Bold-43" d="M 4288 256 
Q 3956 84 3597 -3 
Q 3238 -91 2847 -91 
Q 1681 -91 1000 561 
Q 319 1213 319 2328 
Q 319 3447 1000 4098 
Q 1681 4750 2847 4750 
Q 3238 4750 3597 4662 
Q 3956 4575 4288 4403 
L 4288 3438 
Q 3953 3666 3628 3772 
Q 3303 3878 2944 3878 
Q 2300 3878 1931 3465 
Q 1563 3053 1563 2328 
Q 1563 1606 1931 1193 
Q 2300 781 2944 781 
Q 3303 781 3628 887 
Q 3953 994 4288 1222 
L 4288 256 
z
" transform="scale(0.015625)"/>
      <path id="DejaVuSans-Bold-6f" d="M 2203 2784 
Q 1831 2784 1636 2517 
Q 1441 2250 1441 1747 
Q 1441 1244 1636 976 
Q 1831 709 2203 709 
Q 2569 709 2762 976 
Q 2956 1244 2956 1747 
Q 2956 2250 2762 2517 
Q 2569 2784 2203 2784 
z
M 2203 3584 
Q 3106 3584 3614 3096 
Q 4122 2609 4122 1747 
Q 4122 884 3614 396 
Q 3106 -91 2203 -91 
Q 1297 -91 786 396 
Q 275 884 275 1747 
Q 275 2609 786 3096 
Q 1297 3584 2203 3584 
z
" transform="scale(0.015625)"/>
      <path id="DejaVuSans-Bold-6c" d="M 538 4863 
L 1656 4863 
L 1656 0 
L 538 0 
L 538 4863 
z
" transform="scale(0.015625)"/>
      <path id="DejaVuSans-Bold-68" d="M 4056 2131 
L 4056 0 
L 2931 0 
L 2931 347 
L 2931 1625 
Q 2931 2084 2911 2256 
Q 2891 2428 2841 2509 
Q 2775 2619 2662 2680 
Q 2550 2741 2406 2741 
Q 2056 2741 1856 2470 
Q 1656 2200 1656 1722 
L 1656 0 
L 538 0 
L 538 4863 
L 1656 4863 
L 1656 2988 
Q 1909 3294 2193 3439 
Q 2478 3584 2822 3584 
Q 3428 3584 3742 3212 
Q 4056 2841 4056 2131 
z
" transform="scale(0.015625)"/>
      <path id="DejaVuSans-Bold-6e" d="M 4056 2131 
L 4056 0 
L 2931 0 
L 2931 347 
L 2931 1631 
Q 2931 2084 2911 2256 
Q 2891 2428 2841 2509 
Q 2775 2619 2662 2680 
Q 2550 2741 2406 2741 
Q 2056 2741 1856 2470 
Q 1656 2200 1656 1722 
L 1656 0 
L 538 0 
L 538 3500 
L 1656 3500 
L 1656 2988 
Q 1909 3294 2193 3439 
Q 2478 3584 2822 3584 
Q 3428 3584 3742 3212 
Q 4056 2841 4056 2131 
z
" transform="scale(0.015625)"/>
      <path id="DejaVuSans-Bold-52" d="M 2297 2597 
Q 2675 2597 2839 2737 
Q 3003 2878 3003 3200 
Q 3003 3519 2839 3656 
Q 2675 3794 2297 3794 
L 1791 3794 
L 1791 2597 
L 2297 2597 
z
M 1791 1766 
L 1791 0 
L 588 0 
L 588 4666 
L 2425 4666 
Q 3347 4666 3776 4356 
Q 4206 4047 4206 3378 
Q 4206 2916 3982 2619 
Q 3759 2322 3309 2181 
Q 3556 2125 3751 1926 
Q 3947 1728 4147 1325 
L 4800 0 
L 3519 0 
L 2950 1159 
Q 2778 1509 2601 1637 
Q 2425 1766 2131 1766 
L 1791 1766 
z
" transform="scale(0.015625)"/>
      <path id="DejaVuSans-Bold-74" d="M 1759 4494 
L 1759 3500 
L 2913 3500 
L 2913 2700 
L 1759 2700 
L 1759 1216 
Q 1759 972 1856 886 
Q 1953 800 2241 800 
L 2816 800 
L 2816 0 
L 1856 0 
Q 1194 0 917 276 
Q 641 553 641 1216 
L 641 2700 
L 84 2700 
L 84 3500 
L 641 3500 
L 641 4494 
L 1759 4494 
z
" transform="scale(0.015625)"/>
      <path id="DejaVuSans-Bold-62" d="M 2400 722 
Q 2759 722 2948 984 
Q 3138 1247 3138 1747 
Q 3138 2247 2948 2509 
Q 2759 2772 2400 2772 
Q 2041 2772 1848 2508 
Q 1656 2244 1656 1747 
Q 1656 1250 1848 986 
Q 2041 722 2400 722 
z
M 1656 2988 
Q 1888 3294 2169 3439 
Q 2450 3584 2816 3584 
Q 3463 3584 3878 3070 
Q 4294 2556 4294 1747 
Q 4294 938 3878 423 
Q 3463 -91 2816 -91 
Q 2450 -91 2169 54 
Q 1888 200 1656 506 
L 1656 0 
L 538 0 
L 538 4863 
L 1656 4863 
L 1656 2988 
z
" transform="scale(0.015625)"/>
      <path id="DejaVuSans-Bold-79" d="M 78 3500 
L 1197 3500 
L 2138 1125 
L 2938 3500 
L 4056 3500 
L 2584 -331 
Q 2363 -916 2067 -1148 
Q 1772 -1381 1288 -1381 
L 641 -1381 
L 641 -647 
L 991 -647 
Q 1275 -647 1404 -556 
Q 1534 -466 1606 -231 
L 1638 -134 
L 78 3500 
z
" transform="scale(0.015625)"/>
      <path id="DejaVuSans-Bold-4c" d="M 588 4666 
L 1791 4666 
L 1791 909 
L 3903 909 
L 3903 0 
L 588 0 
L 588 4666 
z
" transform="scale(0.015625)"/>
      <path id="DejaVuSans-Bold-69" d="M 538 3500 
L 1656 3500 
L 1656 0 
L 538 0 
L 538 3500 
z
M 538 4863 
L 1656 4863 
L 1656 3950 
L 538 3950 
L 538 4863 
z
" transform="scale(0.015625)"/>
      <path id="DejaVuSans-Bold-75" d="M 500 1363 
L 500 3500 
L 1625 3500 
L 1625 3150 
Q 1625 2866 1622 2436 
Q 1619 2006 1619 1863 
Q 1619 1441 1641 1255 
Q 1663 1069 1716 984 
Q 1784 875 1895 815 
Q 2006 756 2150 756 
Q 2500 756 2700 1025 
Q 2900 1294 2900 1772 
L 2900 3500 
L 4019 3500 
L 4019 0 
L 2900 0 
L 2900 506 
Q 2647 200 2364 54 
Q 2081 -91 1741 -91 
Q 1134 -91 817 281 
Q 500 653 500 1363 
z
" transform="scale(0.015625)"/>
      <path id="DejaVuSans-Bold-64" d="M 2919 2988 
L 2919 4863 
L 4044 4863 
L 4044 0 
L 2919 0 
L 2919 506 
Q 2688 197 2409 53 
Q 2131 -91 1766 -91 
Q 1119 -91 703 423 
Q 288 938 288 1747 
Q 288 2556 703 3070 
Q 1119 3584 1766 3584 
Q 2128 3584 2408 3439 
Q 2688 3294 2919 2988 
z
M 2181 722 
Q 2541 722 2730 984 
Q 2919 1247 2919 1747 
Q 2919 2247 2730 2509 
Q 2541 2772 2181 2772 
Q 1825 2772 1636 2509 
Q 1447 2247 1447 1747 
Q 1447 1247 1636 984 
Q 1825 722 2181 722 
z
" transform="scale(0.015625)"/>
     </defs>
     <use xlink:href="#DejaVuSans-Bold-41"/>
     <use xlink:href="#DejaVuSans-Bold-76" x="73.767578"/>
     <use xlink:href="#DejaVuSans-Bold-65" x="138.953125"/>
     <use xlink:href="#DejaVuSans-Bold-72" x="206.775391"/>
     <use xlink:href="#DejaVuSans-Bold-61" x="256.091797"/>
     <use xlink:href="#DejaVuSans-Bold-67" x="323.572266"/>
     <use xlink:href="#DejaVuSans-Bold-65" x="395.154297"/>
     <use xlink:href="#DejaVuSans-Bold-20" x="462.976562"/>
     <use xlink:href="#DejaVuSans-Bold-43" x="497.791016"/>
     <use xlink:href="#DejaVuSans-Bold-6f" x="571.179688"/>
     <use xlink:href="#DejaVuSans-Bold-72" x="639.880859"/>
     <use xlink:href="#DejaVuSans-Bold-61" x="689.197266"/>
     <use xlink:href="#DejaVuSans-Bold-6c" x="756.677734"/>
     <use xlink:href="#DejaVuSans-Bold-20" x="790.955078"/>
     <use xlink:href="#DejaVuSans-Bold-43" x="825.769531"/>
     <use xlink:href="#DejaVuSans-Bold-6f" x="899.158203"/>
     <use xlink:href="#DejaVuSans-Bold-76" x="967.859375"/>
     <use xlink:href="#DejaVuSans-Bold-65" x="1033.044922"/>
     <use xlink:href="#DejaVuSans-Bold-72" x="1100.867188"/>
     <use xlink:href="#DejaVuSans-Bold-20" x="1150.183594"/>
     <use xlink:href="#DejaVuSans-Bold-43" x="1184.998047"/>
     <use xlink:href="#DejaVuSans-Bold-68" x="1258.386719"/>
     <use xlink:href="#DejaVuSans-Bold-61" x="1329.578125"/>
     <use xlink:href="#DejaVuSans-Bold-6e" x="1397.058594"/>
     <use xlink:href="#DejaVuSans-Bold-67" x="1468.25"/>
     <use xlink:href="#DejaVuSans-Bold-65" x="1539.832031"/>
     <use xlink:href="#DejaVuSans-Bold-20" x="1607.654297"/>
     <use xlink:href="#DejaVuSans-Bold-52" x="1642.46875"/>
     <use xlink:href="#DejaVuSans-Bold-61" x="1719.470703"/>
     <use xlink:href="#DejaVuSans-Bold-74" x="1786.951172"/>
     <use xlink:href="#DejaVuSans-Bold-65" x="1834.753906"/>
     <use xlink:href="#DejaVuSans-Bold-20" x="1902.576172"/>
     <use xlink:href="#DejaVuSans-Bold-62" x="1937.390625"/>
     <use xlink:href="#DejaVuSans-Bold-79" x="2008.972656"/>
     <use xlink:href="#DejaVuSans-Bold-20" x="2074.158203"/>
     <use xlink:href="#DejaVuSans-Bold-4c" x="2108.972656"/>
     <use xlink:href="#DejaVuSans-Bold-61" x="2172.693359"/>
     <use xlink:href="#DejaVuSans-Bold-74" x="2240.173828"/>
     <use xlink:href="#DejaVuSans-Bold-69" x="2287.976562"/>
     <use xlink:href="#DejaVuSans-Bold-74" x="2322.253906"/>
     <use xlink:href="#DejaVuSans-Bold-75" x="2370.056641"/>
     <use xlink:href="#DejaVuSans-Bold-64" x="2441.248047"/>
     <use xlink:href="#DejaVuSans-Bold-65" x="2512.830078"/>
    </g>
   </g>
   <g id="legend_1">
    <g id="patch_7">
     <path d="M 1234.145313 235.811875 
L 1312.075 235.811875 
Q 1314.075 235.811875 1314.075 233.811875 
L 1314.075 29.318125 
Q 1314.075 27.318125 1312.075 27.318125 
L 1234.145313 27.318125 
Q 1232.145313 27.318125 1232.145313 29.318125 
L 1232.145313 233.811875 
Q 1232.145313 235.811875 1234.145313 235.811875 
z
" style="fill: #ffffff; opacity: 0.8; stroke: #cccccc; stroke-linejoin: miter"/>
    </g>
    <g id="text_17">
     <!-- Model Number -->
     <g transform="translate(1236.421875 38.916562) scale(0.1 -0.1)">
      <defs>
       <path id="DejaVuSans-4d" d="M 628 4666 
L 1569 4666 
L 2759 1491 
L 3956 4666 
L 4897 4666 
L 4897 0 
L 4281 0 
L 4281 4097 
L 3078 897 
L 2444 897 
L 1241 4097 
L 1241 0 
L 628 0 
L 628 4666 
z
" transform="scale(0.015625)"/>
       <path id="DejaVuSans-4e" d="M 628 4666 
L 1478 4666 
L 3547 763 
L 3547 4666 
L 4159 4666 
L 4159 0 
L 3309 0 
L 1241 3903 
L 1241 0 
L 628 0 
L 628 4666 
z
" transform="scale(0.015625)"/>
       <path id="DejaVuSans-6d" d="M 3328 2828 
Q 3544 3216 3844 3400 
Q 4144 3584 4550 3584 
Q 5097 3584 5394 3201 
Q 5691 2819 5691 2113 
L 5691 0 
L 5113 0 
L 5113 2094 
Q 5113 2597 4934 2840 
Q 4756 3084 4391 3084 
Q 3944 3084 3684 2787 
Q 3425 2491 3425 1978 
L 3425 0 
L 2847 0 
L 2847 2094 
Q 2847 2600 2669 2842 
Q 2491 3084 2119 3084 
Q 1678 3084 1418 2786 
Q 1159 2488 1159 1978 
L 1159 0 
L 581 0 
L 581 3500 
L 1159 3500 
L 1159 2956 
Q 1356 3278 1631 3431 
Q 1906 3584 2284 3584 
Q 2666 3584 2933 3390 
Q 3200 3197 3328 2828 
z
" transform="scale(0.015625)"/>
       <path id="DejaVuSans-62" d="M 3116 1747 
Q 3116 2381 2855 2742 
Q 2594 3103 2138 3103 
Q 1681 3103 1420 2742 
Q 1159 2381 1159 1747 
Q 1159 1113 1420 752 
Q 1681 391 2138 391 
Q 2594 391 2855 752 
Q 3116 1113 3116 1747 
z
M 1159 2969 
Q 1341 3281 1617 3432 
Q 1894 3584 2278 3584 
Q 2916 3584 3314 3078 
Q 3713 2572 3713 1747 
Q 3713 922 3314 415 
Q 2916 -91 2278 -91 
Q 1894 -91 1617 61 
Q 1341 213 1159 525 
L 1159 0 
L 581 0 
L 581 4863 
L 1159 4863 
L 1159 2969 
z
" transform="scale(0.015625)"/>
      </defs>
      <use xlink:href="#DejaVuSans-4d"/>
      <use xlink:href="#DejaVuSans-6f" x="86.279297"/>
      <use xlink:href="#DejaVuSans-64" x="147.460938"/>
      <use xlink:href="#DejaVuSans-65" x="210.9375"/>
      <use xlink:href="#DejaVuSans-6c" x="272.460938"/>
      <use xlink:href="#DejaVuSans-20" x="300.244141"/>
      <use xlink:href="#DejaVuSans-4e" x="332.03125"/>
      <use xlink:href="#DejaVuSans-75" x="406.835938"/>
      <use xlink:href="#DejaVuSans-6d" x="470.214844"/>
      <use xlink:href="#DejaVuSans-62" x="567.626953"/>
      <use xlink:href="#DejaVuSans-65" x="631.103516"/>
      <use xlink:href="#DejaVuSans-72" x="692.626953"/>
     </g>
    </g>
    <g id="line2d_27">
     <path d="M 1236.145313 50.094687 
L 1246.145313 50.094687 
L 1256.145313 50.094687 
" style="fill: none; stroke: #1f77b4; stroke-width: 1.5; stroke-linecap: square"/>
    </g>
    <g id="text_18">
     <!-- Model 0 -->
     <g transform="translate(1264.145313 53.594687) scale(0.1 -0.1)">
      <use xlink:href="#DejaVuSans-4d"/>
      <use xlink:href="#DejaVuSans-6f" x="86.279297"/>
      <use xlink:href="#DejaVuSans-64" x="147.460938"/>
      <use xlink:href="#DejaVuSans-65" x="210.9375"/>
      <use xlink:href="#DejaVuSans-6c" x="272.460938"/>
      <use xlink:href="#DejaVuSans-20" x="300.244141"/>
      <use xlink:href="#DejaVuSans-30" x="332.03125"/>
     </g>
    </g>
    <g id="line2d_28">
     <path d="M 1236.145313 64.772812 
L 1246.145313 64.772812 
L 1256.145313 64.772812 
" style="fill: none; stroke: #aec7e8; stroke-width: 1.5; stroke-linecap: square"/>
    </g>
    <g id="text_19">
     <!-- Model 1 -->
     <g transform="translate(1264.145313 68.272812) scale(0.1 -0.1)">
      <use xlink:href="#DejaVuSans-4d"/>
      <use xlink:href="#DejaVuSans-6f" x="86.279297"/>
      <use xlink:href="#DejaVuSans-64" x="147.460938"/>
      <use xlink:href="#DejaVuSans-65" x="210.9375"/>
      <use xlink:href="#DejaVuSans-6c" x="272.460938"/>
      <use xlink:href="#DejaVuSans-20" x="300.244141"/>
      <use xlink:href="#DejaVuSans-31" x="332.03125"/>
     </g>
    </g>
    <g id="line2d_29">
     <path d="M 1236.145313 79.450938 
L 1246.145313 79.450938 
L 1256.145313 79.450938 
" style="fill: none; stroke: #ffbb78; stroke-width: 1.5; stroke-linecap: square"/>
    </g>
    <g id="text_20">
     <!-- Model 2 -->
     <g transform="translate(1264.145313 82.950938) scale(0.1 -0.1)">
      <use xlink:href="#DejaVuSans-4d"/>
      <use xlink:href="#DejaVuSans-6f" x="86.279297"/>
      <use xlink:href="#DejaVuSans-64" x="147.460938"/>
      <use xlink:href="#DejaVuSans-65" x="210.9375"/>
      <use xlink:href="#DejaVuSans-6c" x="272.460938"/>
      <use xlink:href="#DejaVuSans-20" x="300.244141"/>
      <use xlink:href="#DejaVuSans-32" x="332.03125"/>
     </g>
    </g>
    <g id="line2d_30">
     <path d="M 1236.145313 94.129063 
L 1246.145313 94.129063 
L 1256.145313 94.129063 
" style="fill: none; stroke: #98df8a; stroke-width: 1.5; stroke-linecap: square"/>
    </g>
    <g id="text_21">
     <!-- Model 3 -->
     <g transform="translate(1264.145313 97.629063) scale(0.1 -0.1)">
      <use xlink:href="#DejaVuSans-4d"/>
      <use xlink:href="#DejaVuSans-6f" x="86.279297"/>
      <use xlink:href="#DejaVuSans-64" x="147.460938"/>
      <use xlink:href="#DejaVuSans-65" x="210.9375"/>
      <use xlink:href="#DejaVuSans-6c" x="272.460938"/>
      <use xlink:href="#DejaVuSans-20" x="300.244141"/>
      <use xlink:href="#DejaVuSans-33" x="332.03125"/>
     </g>
    </g>
    <g id="line2d_31">
     <path d="M 1236.145313 108.807187 
L 1246.145313 108.807187 
L 1256.145313 108.807187 
" style="fill: none; stroke: #ff9896; stroke-width: 1.5; stroke-linecap: square"/>
    </g>
    <g id="text_22">
     <!-- Model 4 -->
     <g transform="translate(1264.145313 112.307187) scale(0.1 -0.1)">
      <use xlink:href="#DejaVuSans-4d"/>
      <use xlink:href="#DejaVuSans-6f" x="86.279297"/>
      <use xlink:href="#DejaVuSans-64" x="147.460938"/>
      <use xlink:href="#DejaVuSans-65" x="210.9375"/>
      <use xlink:href="#DejaVuSans-6c" x="272.460938"/>
      <use xlink:href="#DejaVuSans-20" x="300.244141"/>
      <use xlink:href="#DejaVuSans-34" x="332.03125"/>
     </g>
    </g>
    <g id="line2d_32">
     <path d="M 1236.145313 123.485312 
L 1246.145313 123.485312 
L 1256.145313 123.485312 
" style="fill: none; stroke: #c5b0d5; stroke-width: 1.5; stroke-linecap: square"/>
    </g>
    <g id="text_23">
     <!-- Model 5 -->
     <g transform="translate(1264.145313 126.985312) scale(0.1 -0.1)">
      <defs>
       <path id="DejaVuSans-35" d="M 691 4666 
L 3169 4666 
L 3169 4134 
L 1269 4134 
L 1269 2991 
Q 1406 3038 1543 3061 
Q 1681 3084 1819 3084 
Q 2600 3084 3056 2656 
Q 3513 2228 3513 1497 
Q 3513 744 3044 326 
Q 2575 -91 1722 -91 
Q 1428 -91 1123 -41 
Q 819 9 494 109 
L 494 744 
Q 775 591 1075 516 
Q 1375 441 1709 441 
Q 2250 441 2565 725 
Q 2881 1009 2881 1497 
Q 2881 1984 2565 2268 
Q 2250 2553 1709 2553 
Q 1456 2553 1204 2497 
Q 953 2441 691 2322 
L 691 4666 
z
" transform="scale(0.015625)"/>
      </defs>
      <use xlink:href="#DejaVuSans-4d"/>
      <use xlink:href="#DejaVuSans-6f" x="86.279297"/>
      <use xlink:href="#DejaVuSans-64" x="147.460938"/>
      <use xlink:href="#DejaVuSans-65" x="210.9375"/>
      <use xlink:href="#DejaVuSans-6c" x="272.460938"/>
      <use xlink:href="#DejaVuSans-20" x="300.244141"/>
      <use xlink:href="#DejaVuSans-35" x="332.03125"/>
     </g>
    </g>
    <g id="line2d_33">
     <path d="M 1236.145313 138.163437 
L 1246.145313 138.163437 
L 1256.145313 138.163437 
" style="fill: none; stroke: #8c564b; stroke-width: 1.5; stroke-linecap: square"/>
    </g>
    <g id="text_24">
     <!-- Model 6 -->
     <g transform="translate(1264.145313 141.663437) scale(0.1 -0.1)">
      <use xlink:href="#DejaVuSans-4d"/>
      <use xlink:href="#DejaVuSans-6f" x="86.279297"/>
      <use xlink:href="#DejaVuSans-64" x="147.460938"/>
      <use xlink:href="#DejaVuSans-65" x="210.9375"/>
      <use xlink:href="#DejaVuSans-6c" x="272.460938"/>
      <use xlink:href="#DejaVuSans-20" x="300.244141"/>
      <use xlink:href="#DejaVuSans-36" x="332.03125"/>
     </g>
    </g>
    <g id="line2d_34">
     <path d="M 1236.145313 152.841563 
L 1246.145313 152.841563 
L 1256.145313 152.841563 
" style="fill: none; stroke: #e377c2; stroke-width: 1.5; stroke-linecap: square"/>
    </g>
    <g id="text_25">
     <!-- Model 7 -->
     <g transform="translate(1264.145313 156.341563) scale(0.1 -0.1)">
      <defs>
       <path id="DejaVuSans-37" d="M 525 4666 
L 3525 4666 
L 3525 4397 
L 1831 0 
L 1172 0 
L 2766 4134 
L 525 4134 
L 525 4666 
z
" transform="scale(0.015625)"/>
      </defs>
      <use xlink:href="#DejaVuSans-4d"/>
      <use xlink:href="#DejaVuSans-6f" x="86.279297"/>
      <use xlink:href="#DejaVuSans-64" x="147.460938"/>
      <use xlink:href="#DejaVuSans-65" x="210.9375"/>
      <use xlink:href="#DejaVuSans-6c" x="272.460938"/>
      <use xlink:href="#DejaVuSans-20" x="300.244141"/>
      <use xlink:href="#DejaVuSans-37" x="332.03125"/>
     </g>
    </g>
    <g id="line2d_35">
     <path d="M 1236.145313 167.519687 
L 1246.145313 167.519687 
L 1256.145313 167.519687 
" style="fill: none; stroke: #7f7f7f; stroke-width: 1.5; stroke-linecap: square"/>
    </g>
    <g id="text_26">
     <!-- Model 8 -->
     <g transform="translate(1264.145313 171.019687) scale(0.1 -0.1)">
      <use xlink:href="#DejaVuSans-4d"/>
      <use xlink:href="#DejaVuSans-6f" x="86.279297"/>
      <use xlink:href="#DejaVuSans-64" x="147.460938"/>
      <use xlink:href="#DejaVuSans-65" x="210.9375"/>
      <use xlink:href="#DejaVuSans-6c" x="272.460938"/>
      <use xlink:href="#DejaVuSans-20" x="300.244141"/>
      <use xlink:href="#DejaVuSans-38" x="332.03125"/>
     </g>
    </g>
    <g id="line2d_36">
     <path d="M 1236.145313 182.197812 
L 1246.145313 182.197812 
L 1256.145313 182.197812 
" style="fill: none; stroke: #bcbd22; stroke-width: 1.5; stroke-linecap: square"/>
    </g>
    <g id="text_27">
     <!-- Model 9 -->
     <g transform="translate(1264.145313 185.697812) scale(0.1 -0.1)">
      <defs>
       <path id="DejaVuSans-39" d="M 703 97 
L 703 672 
Q 941 559 1184 500 
Q 1428 441 1663 441 
Q 2288 441 2617 861 
Q 2947 1281 2994 2138 
Q 2813 1869 2534 1725 
Q 2256 1581 1919 1581 
Q 1219 1581 811 2004 
Q 403 2428 403 3163 
Q 403 3881 828 4315 
Q 1253 4750 1959 4750 
Q 2769 4750 3195 4129 
Q 3622 3509 3622 2328 
Q 3622 1225 3098 567 
Q 2575 -91 1691 -91 
Q 1453 -91 1209 -44 
Q 966 3 703 97 
z
M 1959 2075 
Q 2384 2075 2632 2365 
Q 2881 2656 2881 3163 
Q 2881 3666 2632 3958 
Q 2384 4250 1959 4250 
Q 1534 4250 1286 3958 
Q 1038 3666 1038 3163 
Q 1038 2656 1286 2365 
Q 1534 2075 1959 2075 
z
" transform="scale(0.015625)"/>
      </defs>
      <use xlink:href="#DejaVuSans-4d"/>
      <use xlink:href="#DejaVuSans-6f" x="86.279297"/>
      <use xlink:href="#DejaVuSans-64" x="147.460938"/>
      <use xlink:href="#DejaVuSans-65" x="210.9375"/>
      <use xlink:href="#DejaVuSans-6c" x="272.460938"/>
      <use xlink:href="#DejaVuSans-20" x="300.244141"/>
      <use xlink:href="#DejaVuSans-39" x="332.03125"/>
     </g>
    </g>
    <g id="line2d_37">
     <path d="M 1236.145313 196.875937 
L 1246.145313 196.875937 
L 1256.145313 196.875937 
" style="fill: none; stroke: #17becf; stroke-width: 1.5; stroke-linecap: square"/>
    </g>
    <g id="text_28">
     <!-- Model 10 -->
     <g transform="translate(1264.145313 200.375937) scale(0.1 -0.1)">
      <use xlink:href="#DejaVuSans-4d"/>
      <use xlink:href="#DejaVuSans-6f" x="86.279297"/>
      <use xlink:href="#DejaVuSans-64" x="147.460938"/>
      <use xlink:href="#DejaVuSans-65" x="210.9375"/>
      <use xlink:href="#DejaVuSans-6c" x="272.460938"/>
      <use xlink:href="#DejaVuSans-20" x="300.244141"/>
      <use xlink:href="#DejaVuSans-31" x="332.03125"/>
      <use xlink:href="#DejaVuSans-30" x="395.654297"/>
     </g>
    </g>
    <g id="line2d_38">
     <path d="M 1236.145313 211.554062 
L 1246.145313 211.554062 
L 1256.145313 211.554062 
" style="fill: none; stroke: #9edae5; stroke-width: 1.5; stroke-linecap: square"/>
    </g>
    <g id="text_29">
     <!-- Model 11 -->
     <g transform="translate(1264.145313 215.054062) scale(0.1 -0.1)">
      <use xlink:href="#DejaVuSans-4d"/>
      <use xlink:href="#DejaVuSans-6f" x="86.279297"/>
      <use xlink:href="#DejaVuSans-64" x="147.460938"/>
      <use xlink:href="#DejaVuSans-65" x="210.9375"/>
      <use xlink:href="#DejaVuSans-6c" x="272.460938"/>
      <use xlink:href="#DejaVuSans-20" x="300.244141"/>
      <use xlink:href="#DejaVuSans-31" x="332.03125"/>
      <use xlink:href="#DejaVuSans-31" x="395.654297"/>
     </g>
    </g>
    <g id="line2d_39">
     <path d="M 1236.145313 226.232187 
L 1246.145313 226.232187 
L 1256.145313 226.232187 
" style="fill: none; stroke: #000000; stroke-width: 2.5; stroke-linecap: square"/>
    </g>
    <g id="text_30">
     <!-- Mean -->
     <g transform="translate(1264.145313 229.732187) scale(0.1 -0.1)">
      <use xlink:href="#DejaVuSans-4d"/>
      <use xlink:href="#DejaVuSans-65" x="86.279297"/>
      <use xlink:href="#DejaVuSans-61" x="147.802734"/>
      <use xlink:href="#DejaVuSans-6e" x="209.082031"/>
     </g>
    </g>
   </g>
  </g>
 </g>
 <defs>
  <clipPath id="p2fa4e5263d">
   <rect x="55.345313" y="22.318125" width="1116" height="665.28"/>
  </clipPath>
 </defs>
</svg>
