<?xml version="1.0" encoding="utf-8" standalone="no"?>
<!DOCTYPE svg PUBLIC "-//W3C//DTD SVG 1.1//EN"
  "http://www.w3.org/Graphics/SVG/1.1/DTD/svg11.dtd">
<svg xmlns:xlink="http://www.w3.org/1999/xlink" width="584.39952pt" height="440.39952pt" viewBox="0 0 584.39952 440.39952" xmlns="http://www.w3.org/2000/svg" version="1.1">
 <metadata>
  <rdf:RDF xmlns:dc="http://purl.org/dc/elements/1.1/" xmlns:cc="http://creativecommons.org/ns#" xmlns:rdf="http://www.w3.org/1999/02/22-rdf-syntax-ns#">
   <cc:Work>
    <dc:type rdf:resource="http://purl.org/dc/dcmitype/StillImage"/>
    <dc:date>2024-11-03T14:50:25.746220</dc:date>
    <dc:format>image/svg+xml</dc:format>
    <dc:creator>
     <cc:Agent>
      <dc:title>Matplotlib v3.9.2, https://matplotlib.org/</dc:title>
     </cc:Agent>
    </dc:creator>
   </cc:Work>
  </rdf:RDF>
 </metadata>
 <defs>
  <style type="text/css">*{stroke-linejoin: round; stroke-linecap: butt}</style>
 </defs>
 <g id="figure_1">
  <g id="patch_1">
   <path d="M 0 440.39952 
L 584.39952 440.39952 
L 584.39952 0 
L 0 0 
L 0 440.39952 
z
" style="fill: none"/>
  </g>
  <g id="axes_1">
   <g id="patch_2">
    <path d="M 59.216563 398.97202 
L 577.19952 398.97202 
L 577.19952 25.3575 
L 59.216563 25.3575 
L 59.216563 398.97202 
z
" style="fill: none"/>
   </g>
   <g id="matplotlib.axis_1">
    <g id="xtick_1">
     <g id="line2d_1">
      <defs>
       <path id="m229feb9e1f" d="M 0 0 
L 0 3.5 
" style="stroke: #000000; stroke-width: 0.8"/>
      </defs>
      <g>
       <use xlink:href="#m229feb9e1f" x="110.059422" y="398.97202" style="stroke: #000000; stroke-width: 0.8"/>
      </g>
     </g>
     <g id="text_1">
      <!-- −30 -->
      <g transform="translate(99.507078 413.570457) scale(0.1 -0.1)">
       <defs>
        <path id="DejaVuSans-2212" d="M 678 2272 
L 4684 2272 
L 4684 1741 
L 678 1741 
L 678 2272 
z
" transform="scale(0.015625)"/>
        <path id="DejaVuSans-33" d="M 2597 2516 
Q 3050 2419 3304 2112 
Q 3559 1806 3559 1356 
Q 3559 666 3084 287 
Q 2609 -91 1734 -91 
Q 1441 -91 1130 -33 
Q 819 25 488 141 
L 488 750 
Q 750 597 1062 519 
Q 1375 441 1716 441 
Q 2309 441 2620 675 
Q 2931 909 2931 1356 
Q 2931 1769 2642 2001 
Q 2353 2234 1838 2234 
L 1294 2234 
L 1294 2753 
L 1863 2753 
Q 2328 2753 2575 2939 
Q 2822 3125 2822 3475 
Q 2822 3834 2567 4026 
Q 2313 4219 1838 4219 
Q 1578 4219 1281 4162 
Q 984 4106 628 3988 
L 628 4550 
Q 988 4650 1302 4700 
Q 1616 4750 1894 4750 
Q 2613 4750 3031 4423 
Q 3450 4097 3450 3541 
Q 3450 3153 3228 2886 
Q 3006 2619 2597 2516 
z
" transform="scale(0.015625)"/>
        <path id="DejaVuSans-30" d="M 2034 4250 
Q 1547 4250 1301 3770 
Q 1056 3291 1056 2328 
Q 1056 1369 1301 889 
Q 1547 409 2034 409 
Q 2525 409 2770 889 
Q 3016 1369 3016 2328 
Q 3016 3291 2770 3770 
Q 2525 4250 2034 4250 
z
M 2034 4750 
Q 2819 4750 3233 4129 
Q 3647 3509 3647 2328 
Q 3647 1150 3233 529 
Q 2819 -91 2034 -91 
Q 1250 -91 836 529 
Q 422 1150 422 2328 
Q 422 3509 836 4129 
Q 1250 4750 2034 4750 
z
" transform="scale(0.015625)"/>
       </defs>
       <use xlink:href="#DejaVuSans-2212"/>
       <use xlink:href="#DejaVuSans-33" x="83.789062"/>
       <use xlink:href="#DejaVuSans-30" x="147.412109"/>
      </g>
     </g>
    </g>
    <g id="xtick_2">
     <g id="line2d_2">
      <g>
       <use xlink:href="#m229feb9e1f" x="178.304871" y="398.97202" style="stroke: #000000; stroke-width: 0.8"/>
      </g>
     </g>
     <g id="text_2">
      <!-- −20 -->
      <g transform="translate(167.752527 413.570457) scale(0.1 -0.1)">
       <defs>
        <path id="DejaVuSans-32" d="M 1228 531 
L 3431 531 
L 3431 0 
L 469 0 
L 469 531 
Q 828 903 1448 1529 
Q 2069 2156 2228 2338 
Q 2531 2678 2651 2914 
Q 2772 3150 2772 3378 
Q 2772 3750 2511 3984 
Q 2250 4219 1831 4219 
Q 1534 4219 1204 4116 
Q 875 4013 500 3803 
L 500 4441 
Q 881 4594 1212 4672 
Q 1544 4750 1819 4750 
Q 2544 4750 2975 4387 
Q 3406 4025 3406 3419 
Q 3406 3131 3298 2873 
Q 3191 2616 2906 2266 
Q 2828 2175 2409 1742 
Q 1991 1309 1228 531 
z
" transform="scale(0.015625)"/>
       </defs>
       <use xlink:href="#DejaVuSans-2212"/>
       <use xlink:href="#DejaVuSans-32" x="83.789062"/>
       <use xlink:href="#DejaVuSans-30" x="147.412109"/>
      </g>
     </g>
    </g>
    <g id="xtick_3">
     <g id="line2d_3">
      <g>
       <use xlink:href="#m229feb9e1f" x="246.55032" y="398.97202" style="stroke: #000000; stroke-width: 0.8"/>
      </g>
     </g>
     <g id="text_3">
      <!-- −10 -->
      <g transform="translate(235.997976 413.570457) scale(0.1 -0.1)">
       <defs>
        <path id="DejaVuSans-31" d="M 794 531 
L 1825 531 
L 1825 4091 
L 703 3866 
L 703 4441 
L 1819 4666 
L 2450 4666 
L 2450 531 
L 3481 531 
L 3481 0 
L 794 0 
L 794 531 
z
" transform="scale(0.015625)"/>
       </defs>
       <use xlink:href="#DejaVuSans-2212"/>
       <use xlink:href="#DejaVuSans-31" x="83.789062"/>
       <use xlink:href="#DejaVuSans-30" x="147.412109"/>
      </g>
     </g>
    </g>
    <g id="xtick_4">
     <g id="line2d_4">
      <g>
       <use xlink:href="#m229feb9e1f" x="314.795769" y="398.97202" style="stroke: #000000; stroke-width: 0.8"/>
      </g>
     </g>
     <g id="text_4">
      <!-- 0 -->
      <g transform="translate(311.614519 413.570457) scale(0.1 -0.1)">
       <use xlink:href="#DejaVuSans-30"/>
      </g>
     </g>
    </g>
    <g id="xtick_5">
     <g id="line2d_5">
      <g>
       <use xlink:href="#m229feb9e1f" x="383.041218" y="398.97202" style="stroke: #000000; stroke-width: 0.8"/>
      </g>
     </g>
     <g id="text_5">
      <!-- 10 -->
      <g transform="translate(376.678718 413.570457) scale(0.1 -0.1)">
       <use xlink:href="#DejaVuSans-31"/>
       <use xlink:href="#DejaVuSans-30" x="63.623047"/>
      </g>
     </g>
    </g>
    <g id="xtick_6">
     <g id="line2d_6">
      <g>
       <use xlink:href="#m229feb9e1f" x="451.286667" y="398.97202" style="stroke: #000000; stroke-width: 0.8"/>
      </g>
     </g>
     <g id="text_6">
      <!-- 20 -->
      <g transform="translate(444.924167 413.570457) scale(0.1 -0.1)">
       <use xlink:href="#DejaVuSans-32"/>
       <use xlink:href="#DejaVuSans-30" x="63.623047"/>
      </g>
     </g>
    </g>
    <g id="xtick_7">
     <g id="line2d_7">
      <g>
       <use xlink:href="#m229feb9e1f" x="519.532116" y="398.97202" style="stroke: #000000; stroke-width: 0.8"/>
      </g>
     </g>
     <g id="text_7">
      <!-- 30 -->
      <g transform="translate(513.169616 413.570457) scale(0.1 -0.1)">
       <use xlink:href="#DejaVuSans-33"/>
       <use xlink:href="#DejaVuSans-30" x="63.623047"/>
      </g>
     </g>
    </g>
    <g id="text_8">
     <!-- Latitude -->
     <g transform="translate(289.397573 430.287957) scale(0.14 -0.14)">
      <defs>
       <path id="DejaVuSans-4c" d="M 628 4666 
L 1259 4666 
L 1259 531 
L 3531 531 
L 3531 0 
L 628 0 
L 628 4666 
z
" transform="scale(0.015625)"/>
       <path id="DejaVuSans-61" d="M 2194 1759 
Q 1497 1759 1228 1600 
Q 959 1441 959 1056 
Q 959 750 1161 570 
Q 1363 391 1709 391 
Q 2188 391 2477 730 
Q 2766 1069 2766 1631 
L 2766 1759 
L 2194 1759 
z
M 3341 1997 
L 3341 0 
L 2766 0 
L 2766 531 
Q 2569 213 2275 61 
Q 1981 -91 1556 -91 
Q 1019 -91 701 211 
Q 384 513 384 1019 
Q 384 1609 779 1909 
Q 1175 2209 1959 2209 
L 2766 2209 
L 2766 2266 
Q 2766 2663 2505 2880 
Q 2244 3097 1772 3097 
Q 1472 3097 1187 3025 
Q 903 2953 641 2809 
L 641 3341 
Q 956 3463 1253 3523 
Q 1550 3584 1831 3584 
Q 2591 3584 2966 3190 
Q 3341 2797 3341 1997 
z
" transform="scale(0.015625)"/>
       <path id="DejaVuSans-74" d="M 1172 4494 
L 1172 3500 
L 2356 3500 
L 2356 3053 
L 1172 3053 
L 1172 1153 
Q 1172 725 1289 603 
Q 1406 481 1766 481 
L 2356 481 
L 2356 0 
L 1766 0 
Q 1100 0 847 248 
Q 594 497 594 1153 
L 594 3053 
L 172 3053 
L 172 3500 
L 594 3500 
L 594 4494 
L 1172 4494 
z
" transform="scale(0.015625)"/>
       <path id="DejaVuSans-69" d="M 603 3500 
L 1178 3500 
L 1178 0 
L 603 0 
L 603 3500 
z
M 603 4863 
L 1178 4863 
L 1178 4134 
L 603 4134 
L 603 4863 
z
" transform="scale(0.015625)"/>
       <path id="DejaVuSans-75" d="M 544 1381 
L 544 3500 
L 1119 3500 
L 1119 1403 
Q 1119 906 1312 657 
Q 1506 409 1894 409 
Q 2359 409 2629 706 
Q 2900 1003 2900 1516 
L 2900 3500 
L 3475 3500 
L 3475 0 
L 2900 0 
L 2900 538 
Q 2691 219 2414 64 
Q 2138 -91 1772 -91 
Q 1169 -91 856 284 
Q 544 659 544 1381 
z
M 1991 3584 
L 1991 3584 
z
" transform="scale(0.015625)"/>
       <path id="DejaVuSans-64" d="M 2906 2969 
L 2906 4863 
L 3481 4863 
L 3481 0 
L 2906 0 
L 2906 525 
Q 2725 213 2448 61 
Q 2172 -91 1784 -91 
Q 1150 -91 751 415 
Q 353 922 353 1747 
Q 353 2572 751 3078 
Q 1150 3584 1784 3584 
Q 2172 3584 2448 3432 
Q 2725 3281 2906 2969 
z
M 947 1747 
Q 947 1113 1208 752 
Q 1469 391 1925 391 
Q 2381 391 2643 752 
Q 2906 1113 2906 1747 
Q 2906 2381 2643 2742 
Q 2381 3103 1925 3103 
Q 1469 3103 1208 2742 
Q 947 2381 947 1747 
z
" transform="scale(0.015625)"/>
       <path id="DejaVuSans-65" d="M 3597 1894 
L 3597 1613 
L 953 1613 
Q 991 1019 1311 708 
Q 1631 397 2203 397 
Q 2534 397 2845 478 
Q 3156 559 3463 722 
L 3463 178 
Q 3153 47 2828 -22 
Q 2503 -91 2169 -91 
Q 1331 -91 842 396 
Q 353 884 353 1716 
Q 353 2575 817 3079 
Q 1281 3584 2069 3584 
Q 2775 3584 3186 3129 
Q 3597 2675 3597 1894 
z
M 3022 2063 
Q 3016 2534 2758 2815 
Q 2500 3097 2075 3097 
Q 1594 3097 1305 2825 
Q 1016 2553 972 2059 
L 3022 2063 
z
" transform="scale(0.015625)"/>
      </defs>
      <use xlink:href="#DejaVuSans-4c"/>
      <use xlink:href="#DejaVuSans-61" x="55.712891"/>
      <use xlink:href="#DejaVuSans-74" x="116.992188"/>
      <use xlink:href="#DejaVuSans-69" x="156.201172"/>
      <use xlink:href="#DejaVuSans-74" x="183.984375"/>
      <use xlink:href="#DejaVuSans-75" x="223.193359"/>
      <use xlink:href="#DejaVuSans-64" x="286.572266"/>
      <use xlink:href="#DejaVuSans-65" x="350.048828"/>
     </g>
    </g>
   </g>
   <g id="matplotlib.axis_2">
    <g id="ytick_1">
     <g id="line2d_8">
      <defs>
       <path id="mf4974ab422" d="M 0 0 
L -3.5 0 
" style="stroke: #000000; stroke-width: 0.8"/>
      </defs>
      <g>
       <use xlink:href="#mf4974ab422" x="59.216563" y="387.672268" style="stroke: #000000; stroke-width: 0.8"/>
      </g>
     </g>
     <g id="text_9">
      <!-- −100 -->
      <g transform="translate(24.749375 391.471487) scale(0.1 -0.1)">
       <use xlink:href="#DejaVuSans-2212"/>
       <use xlink:href="#DejaVuSans-31" x="83.789062"/>
       <use xlink:href="#DejaVuSans-30" x="147.412109"/>
       <use xlink:href="#DejaVuSans-30" x="211.035156"/>
      </g>
     </g>
    </g>
    <g id="ytick_2">
     <g id="line2d_9">
      <g>
       <use xlink:href="#mf4974ab422" x="59.216563" y="323.692883" style="stroke: #000000; stroke-width: 0.8"/>
      </g>
     </g>
     <g id="text_10">
      <!-- −80 -->
      <g transform="translate(31.111875 327.492101) scale(0.1 -0.1)">
       <defs>
        <path id="DejaVuSans-38" d="M 2034 2216 
Q 1584 2216 1326 1975 
Q 1069 1734 1069 1313 
Q 1069 891 1326 650 
Q 1584 409 2034 409 
Q 2484 409 2743 651 
Q 3003 894 3003 1313 
Q 3003 1734 2745 1975 
Q 2488 2216 2034 2216 
z
M 1403 2484 
Q 997 2584 770 2862 
Q 544 3141 544 3541 
Q 544 4100 942 4425 
Q 1341 4750 2034 4750 
Q 2731 4750 3128 4425 
Q 3525 4100 3525 3541 
Q 3525 3141 3298 2862 
Q 3072 2584 2669 2484 
Q 3125 2378 3379 2068 
Q 3634 1759 3634 1313 
Q 3634 634 3220 271 
Q 2806 -91 2034 -91 
Q 1263 -91 848 271 
Q 434 634 434 1313 
Q 434 1759 690 2068 
Q 947 2378 1403 2484 
z
M 1172 3481 
Q 1172 3119 1398 2916 
Q 1625 2713 2034 2713 
Q 2441 2713 2670 2916 
Q 2900 3119 2900 3481 
Q 2900 3844 2670 4047 
Q 2441 4250 2034 4250 
Q 1625 4250 1398 4047 
Q 1172 3844 1172 3481 
z
" transform="scale(0.015625)"/>
       </defs>
       <use xlink:href="#DejaVuSans-2212"/>
       <use xlink:href="#DejaVuSans-38" x="83.789062"/>
       <use xlink:href="#DejaVuSans-30" x="147.412109"/>
      </g>
     </g>
    </g>
    <g id="ytick_3">
     <g id="line2d_10">
      <g>
       <use xlink:href="#mf4974ab422" x="59.216563" y="259.713497" style="stroke: #000000; stroke-width: 0.8"/>
      </g>
     </g>
     <g id="text_11">
      <!-- −60 -->
      <g transform="translate(31.111875 263.512716) scale(0.1 -0.1)">
       <defs>
        <path id="DejaVuSans-36" d="M 2113 2584 
Q 1688 2584 1439 2293 
Q 1191 2003 1191 1497 
Q 1191 994 1439 701 
Q 1688 409 2113 409 
Q 2538 409 2786 701 
Q 3034 994 3034 1497 
Q 3034 2003 2786 2293 
Q 2538 2584 2113 2584 
z
M 3366 4563 
L 3366 3988 
Q 3128 4100 2886 4159 
Q 2644 4219 2406 4219 
Q 1781 4219 1451 3797 
Q 1122 3375 1075 2522 
Q 1259 2794 1537 2939 
Q 1816 3084 2150 3084 
Q 2853 3084 3261 2657 
Q 3669 2231 3669 1497 
Q 3669 778 3244 343 
Q 2819 -91 2113 -91 
Q 1303 -91 875 529 
Q 447 1150 447 2328 
Q 447 3434 972 4092 
Q 1497 4750 2381 4750 
Q 2619 4750 2861 4703 
Q 3103 4656 3366 4563 
z
" transform="scale(0.015625)"/>
       </defs>
       <use xlink:href="#DejaVuSans-2212"/>
       <use xlink:href="#DejaVuSans-36" x="83.789062"/>
       <use xlink:href="#DejaVuSans-30" x="147.412109"/>
      </g>
     </g>
    </g>
    <g id="ytick_4">
     <g id="line2d_11">
      <g>
       <use xlink:href="#mf4974ab422" x="59.216563" y="195.734111" style="stroke: #000000; stroke-width: 0.8"/>
      </g>
     </g>
     <g id="text_12">
      <!-- −40 -->
      <g transform="translate(31.111875 199.53333) scale(0.1 -0.1)">
       <defs>
        <path id="DejaVuSans-34" d="M 2419 4116 
L 825 1625 
L 2419 1625 
L 2419 4116 
z
M 2253 4666 
L 3047 4666 
L 3047 1625 
L 3713 1625 
L 3713 1100 
L 3047 1100 
L 3047 0 
L 2419 0 
L 2419 1100 
L 313 1100 
L 313 1709 
L 2253 4666 
z
" transform="scale(0.015625)"/>
       </defs>
       <use xlink:href="#DejaVuSans-2212"/>
       <use xlink:href="#DejaVuSans-34" x="83.789062"/>
       <use xlink:href="#DejaVuSans-30" x="147.412109"/>
      </g>
     </g>
    </g>
    <g id="ytick_5">
     <g id="line2d_12">
      <g>
       <use xlink:href="#mf4974ab422" x="59.216563" y="131.754726" style="stroke: #000000; stroke-width: 0.8"/>
      </g>
     </g>
     <g id="text_13">
      <!-- −20 -->
      <g transform="translate(31.111875 135.553945) scale(0.1 -0.1)">
       <use xlink:href="#DejaVuSans-2212"/>
       <use xlink:href="#DejaVuSans-32" x="83.789062"/>
       <use xlink:href="#DejaVuSans-30" x="147.412109"/>
      </g>
     </g>
    </g>
    <g id="ytick_6">
     <g id="line2d_13">
      <g>
       <use xlink:href="#mf4974ab422" x="59.216563" y="67.77534" style="stroke: #000000; stroke-width: 0.8"/>
      </g>
     </g>
     <g id="text_14">
      <!-- 0 -->
      <g transform="translate(45.854063 71.574559) scale(0.1 -0.1)">
       <use xlink:href="#DejaVuSans-30"/>
      </g>
     </g>
    </g>
    <g id="text_15">
     <!-- Average Coral Cover Change Rate (%) -->
     <g transform="translate(17.837812 345.778354) rotate(-90) scale(0.14 -0.14)">
      <defs>
       <path id="DejaVuSans-41" d="M 2188 4044 
L 1331 1722 
L 3047 1722 
L 2188 4044 
z
M 1831 4666 
L 2547 4666 
L 4325 0 
L 3669 0 
L 3244 1197 
L 1141 1197 
L 716 0 
L 50 0 
L 1831 4666 
z
" transform="scale(0.015625)"/>
       <path id="DejaVuSans-76" d="M 191 3500 
L 800 3500 
L 1894 563 
L 2988 3500 
L 3597 3500 
L 2284 0 
L 1503 0 
L 191 3500 
z
" transform="scale(0.015625)"/>
       <path id="DejaVuSans-72" d="M 2631 2963 
Q 2534 3019 2420 3045 
Q 2306 3072 2169 3072 
Q 1681 3072 1420 2755 
Q 1159 2438 1159 1844 
L 1159 0 
L 581 0 
L 581 3500 
L 1159 3500 
L 1159 2956 
Q 1341 3275 1631 3429 
Q 1922 3584 2338 3584 
Q 2397 3584 2469 3576 
Q 2541 3569 2628 3553 
L 2631 2963 
z
" transform="scale(0.015625)"/>
       <path id="DejaVuSans-67" d="M 2906 1791 
Q 2906 2416 2648 2759 
Q 2391 3103 1925 3103 
Q 1463 3103 1205 2759 
Q 947 2416 947 1791 
Q 947 1169 1205 825 
Q 1463 481 1925 481 
Q 2391 481 2648 825 
Q 2906 1169 2906 1791 
z
M 3481 434 
Q 3481 -459 3084 -895 
Q 2688 -1331 1869 -1331 
Q 1566 -1331 1297 -1286 
Q 1028 -1241 775 -1147 
L 775 -588 
Q 1028 -725 1275 -790 
Q 1522 -856 1778 -856 
Q 2344 -856 2625 -561 
Q 2906 -266 2906 331 
L 2906 616 
Q 2728 306 2450 153 
Q 2172 0 1784 0 
Q 1141 0 747 490 
Q 353 981 353 1791 
Q 353 2603 747 3093 
Q 1141 3584 1784 3584 
Q 2172 3584 2450 3431 
Q 2728 3278 2906 2969 
L 2906 3500 
L 3481 3500 
L 3481 434 
z
" transform="scale(0.015625)"/>
       <path id="DejaVuSans-20" transform="scale(0.015625)"/>
       <path id="DejaVuSans-43" d="M 4122 4306 
L 4122 3641 
Q 3803 3938 3442 4084 
Q 3081 4231 2675 4231 
Q 1875 4231 1450 3742 
Q 1025 3253 1025 2328 
Q 1025 1406 1450 917 
Q 1875 428 2675 428 
Q 3081 428 3442 575 
Q 3803 722 4122 1019 
L 4122 359 
Q 3791 134 3420 21 
Q 3050 -91 2638 -91 
Q 1578 -91 968 557 
Q 359 1206 359 2328 
Q 359 3453 968 4101 
Q 1578 4750 2638 4750 
Q 3056 4750 3426 4639 
Q 3797 4528 4122 4306 
z
" transform="scale(0.015625)"/>
       <path id="DejaVuSans-6f" d="M 1959 3097 
Q 1497 3097 1228 2736 
Q 959 2375 959 1747 
Q 959 1119 1226 758 
Q 1494 397 1959 397 
Q 2419 397 2687 759 
Q 2956 1122 2956 1747 
Q 2956 2369 2687 2733 
Q 2419 3097 1959 3097 
z
M 1959 3584 
Q 2709 3584 3137 3096 
Q 3566 2609 3566 1747 
Q 3566 888 3137 398 
Q 2709 -91 1959 -91 
Q 1206 -91 779 398 
Q 353 888 353 1747 
Q 353 2609 779 3096 
Q 1206 3584 1959 3584 
z
" transform="scale(0.015625)"/>
       <path id="DejaVuSans-6c" d="M 603 4863 
L 1178 4863 
L 1178 0 
L 603 0 
L 603 4863 
z
" transform="scale(0.015625)"/>
       <path id="DejaVuSans-68" d="M 3513 2113 
L 3513 0 
L 2938 0 
L 2938 2094 
Q 2938 2591 2744 2837 
Q 2550 3084 2163 3084 
Q 1697 3084 1428 2787 
Q 1159 2491 1159 1978 
L 1159 0 
L 581 0 
L 581 4863 
L 1159 4863 
L 1159 2956 
Q 1366 3272 1645 3428 
Q 1925 3584 2291 3584 
Q 2894 3584 3203 3211 
Q 3513 2838 3513 2113 
z
" transform="scale(0.015625)"/>
       <path id="DejaVuSans-6e" d="M 3513 2113 
L 3513 0 
L 2938 0 
L 2938 2094 
Q 2938 2591 2744 2837 
Q 2550 3084 2163 3084 
Q 1697 3084 1428 2787 
Q 1159 2491 1159 1978 
L 1159 0 
L 581 0 
L 581 3500 
L 1159 3500 
L 1159 2956 
Q 1366 3272 1645 3428 
Q 1925 3584 2291 3584 
Q 2894 3584 3203 3211 
Q 3513 2838 3513 2113 
z
" transform="scale(0.015625)"/>
       <path id="DejaVuSans-52" d="M 2841 2188 
Q 3044 2119 3236 1894 
Q 3428 1669 3622 1275 
L 4263 0 
L 3584 0 
L 2988 1197 
Q 2756 1666 2539 1819 
Q 2322 1972 1947 1972 
L 1259 1972 
L 1259 0 
L 628 0 
L 628 4666 
L 2053 4666 
Q 2853 4666 3247 4331 
Q 3641 3997 3641 3322 
Q 3641 2881 3436 2590 
Q 3231 2300 2841 2188 
z
M 1259 4147 
L 1259 2491 
L 2053 2491 
Q 2509 2491 2742 2702 
Q 2975 2913 2975 3322 
Q 2975 3731 2742 3939 
Q 2509 4147 2053 4147 
L 1259 4147 
z
" transform="scale(0.015625)"/>
       <path id="DejaVuSans-28" d="M 1984 4856 
Q 1566 4138 1362 3434 
Q 1159 2731 1159 2009 
Q 1159 1288 1364 580 
Q 1569 -128 1984 -844 
L 1484 -844 
Q 1016 -109 783 600 
Q 550 1309 550 2009 
Q 550 2706 781 3412 
Q 1013 4119 1484 4856 
L 1984 4856 
z
" transform="scale(0.015625)"/>
       <path id="DejaVuSans-25" d="M 4653 2053 
Q 4381 2053 4226 1822 
Q 4072 1591 4072 1178 
Q 4072 772 4226 539 
Q 4381 306 4653 306 
Q 4919 306 5073 539 
Q 5228 772 5228 1178 
Q 5228 1588 5073 1820 
Q 4919 2053 4653 2053 
z
M 4653 2450 
Q 5147 2450 5437 2106 
Q 5728 1763 5728 1178 
Q 5728 594 5436 251 
Q 5144 -91 4653 -91 
Q 4153 -91 3862 251 
Q 3572 594 3572 1178 
Q 3572 1766 3864 2108 
Q 4156 2450 4653 2450 
z
M 1428 4353 
Q 1159 4353 1004 4120 
Q 850 3888 850 3481 
Q 850 3069 1003 2837 
Q 1156 2606 1428 2606 
Q 1700 2606 1854 2837 
Q 2009 3069 2009 3481 
Q 2009 3884 1853 4118 
Q 1697 4353 1428 4353 
z
M 4250 4750 
L 4750 4750 
L 1831 -91 
L 1331 -91 
L 4250 4750 
z
M 1428 4750 
Q 1922 4750 2215 4408 
Q 2509 4066 2509 3481 
Q 2509 2891 2217 2550 
Q 1925 2209 1428 2209 
Q 931 2209 642 2551 
Q 353 2894 353 3481 
Q 353 4063 643 4406 
Q 934 4750 1428 4750 
z
" transform="scale(0.015625)"/>
       <path id="DejaVuSans-29" d="M 513 4856 
L 1013 4856 
Q 1481 4119 1714 3412 
Q 1947 2706 1947 2009 
Q 1947 1309 1714 600 
Q 1481 -109 1013 -844 
L 513 -844 
Q 928 -128 1133 580 
Q 1338 1288 1338 2009 
Q 1338 2731 1133 3434 
Q 928 4138 513 4856 
z
" transform="scale(0.015625)"/>
      </defs>
      <use xlink:href="#DejaVuSans-41"/>
      <use xlink:href="#DejaVuSans-76" x="62.533203"/>
      <use xlink:href="#DejaVuSans-65" x="121.712891"/>
      <use xlink:href="#DejaVuSans-72" x="183.236328"/>
      <use xlink:href="#DejaVuSans-61" x="224.349609"/>
      <use xlink:href="#DejaVuSans-67" x="285.628906"/>
      <use xlink:href="#DejaVuSans-65" x="349.105469"/>
      <use xlink:href="#DejaVuSans-20" x="410.628906"/>
      <use xlink:href="#DejaVuSans-43" x="442.416016"/>
      <use xlink:href="#DejaVuSans-6f" x="512.240234"/>
      <use xlink:href="#DejaVuSans-72" x="573.421875"/>
      <use xlink:href="#DejaVuSans-61" x="614.535156"/>
      <use xlink:href="#DejaVuSans-6c" x="675.814453"/>
      <use xlink:href="#DejaVuSans-20" x="703.597656"/>
      <use xlink:href="#DejaVuSans-43" x="735.384766"/>
      <use xlink:href="#DejaVuSans-6f" x="805.208984"/>
      <use xlink:href="#DejaVuSans-76" x="866.390625"/>
      <use xlink:href="#DejaVuSans-65" x="925.570312"/>
      <use xlink:href="#DejaVuSans-72" x="987.09375"/>
      <use xlink:href="#DejaVuSans-20" x="1028.207031"/>
      <use xlink:href="#DejaVuSans-43" x="1059.994141"/>
      <use xlink:href="#DejaVuSans-68" x="1129.818359"/>
      <use xlink:href="#DejaVuSans-61" x="1193.197266"/>
      <use xlink:href="#DejaVuSans-6e" x="1254.476562"/>
      <use xlink:href="#DejaVuSans-67" x="1317.855469"/>
      <use xlink:href="#DejaVuSans-65" x="1381.332031"/>
      <use xlink:href="#DejaVuSans-20" x="1442.855469"/>
      <use xlink:href="#DejaVuSans-52" x="1474.642578"/>
      <use xlink:href="#DejaVuSans-61" x="1541.875"/>
      <use xlink:href="#DejaVuSans-74" x="1603.154297"/>
      <use xlink:href="#DejaVuSans-65" x="1642.363281"/>
      <use xlink:href="#DejaVuSans-20" x="1703.886719"/>
      <use xlink:href="#DejaVuSans-28" x="1735.673828"/>
      <use xlink:href="#DejaVuSans-25" x="1774.6875"/>
      <use xlink:href="#DejaVuSans-29" x="1869.707031"/>
     </g>
    </g>
   </g>
   <g id="line2d_14">
    <path d="M 89.585787 142.614749 
L 96.410332 267.135961 
L 103.234877 332.328184 
L 110.059422 314.279621 
L 116.883967 379.610526 
L 123.708512 381.989542 
L 130.533057 381.383762 
L 137.357602 373.764503 
L 144.182146 377.14927 
L 151.006691 364.337847 
L 157.831236 373.345052 
L 164.655781 364.883289 
L 171.480326 359.965885 
L 178.304871 362.210277 
L 185.129416 347.566918 
L 191.953961 349.477696 
L 198.778506 350.043215 
L 205.60305 356.345671 
L 212.427595 357.94728 
L 219.25214 354.624516 
L 226.076685 357.067805 
L 232.90123 351.068786 
L 239.725775 338.562678 
L 246.55032 333.406956 
L 253.374865 339.817263 
L 260.19941 342.671966 
L 267.023955 336.976824 
L 273.848499 332.573417 
L 280.673044 346.195408 
L 287.497589 350.680746 
L 294.322134 324.625637 
L 301.146679 326.637933 
L 307.971224 318.820295 
L 314.795769 324.271051 
L 321.620314 329.576888 
L 328.444859 334.49805 
L 335.269403 340.370129 
L 342.093948 329.355448 
L 348.918493 330.437847 
L 355.743038 341.133541 
L 362.567583 335.299335 
L 369.392128 342.443543 
L 376.216673 353.260047 
L 383.041218 351.164778 
L 389.865763 353.041542 
L 396.690308 355.078826 
L 403.514852 358.610558 
L 410.339397 359.222694 
L 417.163942 362.278044 
L 423.988487 351.486916 
L 430.813032 335.931374 
L 437.637577 337.953092 
L 444.462122 350.452493 
L 451.286667 353.451225 
L 458.111212 338.326653 
L 464.935756 320.493838 
L 471.760301 306.854255 
L 478.584846 333.574878 
L 485.409391 327.947431 
L 492.233936 360.955386 
L 499.058481 359.594387 
L 505.883026 348.167376 
L 512.707571 367.48365 
L 519.532116 379.07859 
L 526.356661 206.163258 
L 533.181205 261.967272 
L 540.00575 262.060086 
L 546.830295 334.391585 
L 553.65484 310.898567 
" clip-path="url(#p90d460f4a8)" style="fill: none; stroke: #1f77b4; stroke-width: 2; stroke-linecap: square"/>
   </g>
   <g id="line2d_15">
    <path d="M 89.585787 96.621006 
L 96.410332 233.660779 
L 103.234877 291.441847 
L 110.059422 275.5277 
L 116.883967 372.906747 
L 123.708512 378.013753 
L 130.533057 376.081454 
L 137.357602 367.961988 
L 144.182146 367.667826 
L 151.006691 362.138829 
L 157.831236 367.731003 
L 164.655781 357.150861 
L 171.480326 350.235014 
L 178.304871 354.187049 
L 185.129416 334.991461 
L 191.953961 340.741188 
L 198.778506 347.133557 
L 205.60305 360.264924 
L 212.427595 353.368046 
L 219.25214 344.058313 
L 226.076685 342.793108 
L 232.90123 339.102002 
L 239.725775 333.17305 
L 246.55032 330.317994 
L 253.374865 332.302593 
L 260.19941 335.205143 
L 267.023955 334.644526 
L 273.848499 330.797137 
L 280.673044 345.609614 
L 287.497589 346.942519 
L 294.322134 313.00357 
L 301.146679 310.448143 
L 307.971224 303.099478 
L 314.795769 311.568562 
L 321.620314 322.768642 
L 328.444859 329.946976 
L 335.269403 337.091693 
L 342.093948 321.498369 
L 348.918493 326.081771 
L 355.743038 335.409686 
L 362.567583 324.817492 
L 369.392128 335.106682 
L 376.216673 345.355899 
L 383.041218 344.114024 
L 389.865763 347.989384 
L 396.690308 350.595827 
L 403.514852 351.555056 
L 410.339397 349.844112 
L 417.163942 356.152401 
L 423.988487 342.828276 
L 430.813032 328.851237 
L 437.637577 332.948152 
L 444.462122 345.894084 
L 451.286667 351.217589 
L 458.111212 336.544778 
L 464.935756 321.549659 
L 471.760301 309.848095 
L 478.584846 339.111274 
L 485.409391 334.631847 
L 492.233936 367.505866 
L 499.058481 362.5022 
L 505.883026 348.971878 
L 512.707571 365.213661 
L 519.532116 318.560988 
L 526.356661 186.56509 
L 533.181205 276.48523 
L 540.00575 281.639369 
L 546.830295 308.012078 
L 553.65484 302.951551 
" clip-path="url(#p90d460f4a8)" style="fill: none; stroke: #aec7e8; stroke-width: 2; stroke-linecap: square"/>
   </g>
   <g id="line2d_16">
    <path d="M 89.585787 93.028909 
L 96.410332 208.171581 
L 103.234877 200.599492 
L 110.059422 217.576866 
L 116.883967 309.450257 
L 123.708512 361.806719 
L 130.533057 289.647351 
L 137.357602 308.654151 
L 144.182146 342.443114 
L 151.006691 353.544265 
L 157.831236 359.387462 
L 164.655781 354.704885 
L 171.480326 347.888626 
L 178.304871 353.632374 
L 185.129416 341.221956 
L 191.953961 347.753434 
L 198.778506 344.091085 
L 205.60305 341.909979 
L 212.427595 342.624407 
L 219.25214 340.520271 
L 226.076685 341.250671 
L 232.90123 339.705426 
L 239.725775 335.384483 
L 246.55032 336.995363 
L 253.374865 340.695048 
L 260.19941 342.665491 
L 267.023955 338.492564 
L 273.848499 333.371767 
L 280.673044 346.078007 
L 287.497589 350.096947 
L 294.322134 331.745052 
L 301.146679 330.511892 
L 307.971224 317.381533 
L 314.795769 324.409526 
L 321.620314 331.203479 
L 328.444859 336.295342 
L 335.269403 345.861712 
L 342.093948 334.202384 
L 348.918493 337.128365 
L 355.743038 344.143988 
L 362.567583 331.835056 
L 369.392128 347.150931 
L 376.216673 360.632658 
L 383.041218 360.782248 
L 389.865763 365.557275 
L 396.690308 369.234278 
L 403.514852 368.946601 
L 410.339397 371.555783 
L 417.163942 373.830764 
L 423.988487 366.885017 
L 430.813032 363.68258 
L 437.637577 366.087609 
L 444.462122 373.477924 
L 451.286667 371.08648 
L 458.111212 364.890748 
L 464.935756 357.768699 
L 471.760301 345.821687 
L 478.584846 360.228758 
L 485.409391 348.956976 
L 492.233936 377.088085 
L 499.058481 377.874692 
L 505.883026 357.026287 
L 512.707571 354.425394 
L 519.532116 381.539549 
L 526.356661 245.537234 
L 533.181205 300.508689 
L 540.00575 350.773648 
L 546.830295 258.128262 
L 553.65484 124.364805 
" clip-path="url(#p90d460f4a8)" style="fill: none; stroke: #ffbb78; stroke-width: 2; stroke-linecap: square"/>
   </g>
   <g id="line2d_17">
    <path d="M 89.585787 78.366176 
L 96.410332 176.220391 
L 103.234877 164.205355 
L 110.059422 208.774655 
L 116.883967 330.961158 
L 123.708512 365.067495 
L 130.533057 340.238556 
L 137.357602 333.226805 
L 144.182146 346.153335 
L 151.006691 359.320459 
L 157.831236 366.640514 
L 164.655781 363.54413 
L 171.480326 359.896514 
L 178.304871 361.378373 
L 185.129416 340.519299 
L 191.953961 346.748048 
L 198.778506 344.348572 
L 205.60305 348.650374 
L 212.427595 344.359933 
L 219.25214 336.201011 
L 226.076685 328.483753 
L 232.90123 332.848559 
L 239.725775 325.110937 
L 246.55032 324.267127 
L 253.374865 319.570444 
L 260.19941 322.503023 
L 267.023955 314.396553 
L 273.848499 305.188161 
L 280.673044 319.538135 
L 287.497589 325.283966 
L 294.322134 300.829388 
L 301.146679 300.268903 
L 307.971224 289.664264 
L 314.795769 301.383543 
L 321.620314 312.137597 
L 328.444859 312.060389 
L 335.269403 321.759496 
L 342.093948 313.652719 
L 348.918493 312.694535 
L 355.743038 321.00298 
L 362.567583 321.050337 
L 369.392128 334.267343 
L 376.216673 339.669624 
L 383.041218 337.455633 
L 389.865763 333.824247 
L 396.690308 332.313117 
L 403.514852 332.600938 
L 410.339397 334.682636 
L 417.163942 346.942449 
L 423.988487 341.850227 
L 430.813032 336.659721 
L 437.637577 340.331086 
L 444.462122 351.846519 
L 451.286667 355.998581 
L 458.111212 327.361972 
L 464.935756 341.696268 
L 471.760301 344.17075 
L 478.584846 362.975139 
L 485.409391 338.597881 
L 492.233936 378.012101 
L 499.058481 363.167165 
L 505.883026 347.137816 
L 512.707571 373.447869 
L 519.532116 321.73845 
L 526.356661 251.281337 
L 533.181205 357.760386 
L 540.00575 325.847991 
L 546.830295 349.80638 
L 553.65484 307.034323 
" clip-path="url(#p90d460f4a8)" style="fill: none; stroke: #98df8a; stroke-width: 2; stroke-linecap: square"/>
   </g>
   <g id="line2d_18">
    <path d="M 89.585787 89.200597 
L 96.410332 175.001234 
L 103.234877 149.612459 
L 110.059422 181.943971 
L 116.883967 318.473379 
L 123.708512 337.30106 
L 130.533057 344.602108 
L 137.357602 324.893274 
L 144.182146 322.394245 
L 151.006691 319.151878 
L 157.831236 336.653526 
L 164.655781 327.127604 
L 171.480326 333.007414 
L 178.304871 339.296433 
L 185.129416 323.462344 
L 191.953961 328.156824 
L 198.778506 330.540528 
L 205.60305 342.767925 
L 212.427595 338.228836 
L 219.25214 321.08934 
L 226.076685 322.049656 
L 232.90123 320.80136 
L 239.725775 314.277266 
L 246.55032 308.711103 
L 253.374865 310.298988 
L 260.19941 308.758266 
L 267.023955 297.417813 
L 273.848499 285.394284 
L 280.673044 303.250512 
L 287.497589 305.371734 
L 294.322134 274.399313 
L 301.146679 277.118875 
L 307.971224 267.396773 
L 314.795769 281.503166 
L 321.620314 293.095851 
L 328.444859 304.228117 
L 335.269403 315.952996 
L 342.093948 308.194509 
L 348.918493 309.18057 
L 355.743038 319.861693 
L 362.567583 308.336888 
L 369.392128 323.737333 
L 376.216673 337.487795 
L 383.041218 335.400867 
L 389.865763 335.388236 
L 396.690308 333.077431 
L 403.514852 334.802666 
L 410.339397 337.472782 
L 417.163942 353.969791 
L 423.988487 343.704784 
L 430.813032 337.273856 
L 437.637577 336.493732 
L 444.462122 349.145853 
L 451.286667 350.796707 
L 458.111212 334.566053 
L 464.935756 348.684192 
L 471.760301 343.549599 
L 478.584846 367.756883 
L 485.409391 346.092631 
L 492.233936 379.086554 
L 499.058481 377.650579 
L 505.883026 358.444162 
L 512.707571 343.782281 
L 519.532116 299.449245 
L 526.356661 209.951716 
L 533.181205 274.278009 
L 540.00575 291.046991 
L 546.830295 327.946886 
L 553.65484 289.762047 
" clip-path="url(#p90d460f4a8)" style="fill: none; stroke: #ff9896; stroke-width: 2; stroke-linecap: square"/>
   </g>
   <g id="line2d_19">
    <path d="M 82.761242 95.146068 
L 89.585787 78.607107 
L 96.410332 153.428702 
L 103.234877 108.417145 
L 110.059422 114.082149 
L 116.883967 238.655531 
L 123.708512 286.634984 
L 130.533057 267.56102 
L 137.357602 272.776118 
L 144.182146 265.165139 
L 151.006691 258.273183 
L 157.831236 284.146591 
L 164.655781 260.994785 
L 171.480326 273.4671 
L 178.304871 283.930945 
L 185.129416 262.268798 
L 191.953961 270.379323 
L 198.778506 274.278739 
L 205.60305 287.370216 
L 212.427595 284.543659 
L 219.25214 269.700499 
L 226.076685 264.981512 
L 232.90123 275.437644 
L 239.725775 260.588064 
L 246.55032 261.760757 
L 253.374865 252.264279 
L 260.19941 244.157632 
L 267.023955 228.489763 
L 273.848499 214.864537 
L 280.673044 224.91476 
L 287.497589 218.497712 
L 294.322134 190.063212 
L 301.146679 193.047705 
L 307.971224 187.592126 
L 314.795769 212.009275 
L 321.620314 221.236933 
L 328.444859 234.948393 
L 335.269403 256.515817 
L 342.093948 237.912582 
L 348.918493 237.078155 
L 355.743038 245.034381 
L 362.567583 246.603427 
L 369.392128 275.090354 
L 376.216673 281.144151 
L 383.041218 278.04924 
L 389.865763 279.432311 
L 396.690308 274.926573 
L 403.514852 281.01314 
L 410.339397 291.063948 
L 417.163942 304.518525 
L 423.988487 282.421854 
L 430.813032 256.591416 
L 437.637577 272.852419 
L 444.462122 290.238825 
L 451.286667 315.612275 
L 458.111212 279.096513 
L 464.935756 292.78501 
L 471.760301 269.120865 
L 478.584846 303.01521 
L 485.409391 297.555363 
L 492.233936 347.625426 
L 499.058481 337.483495 
L 505.883026 327.924054 
L 512.707571 346.140859 
L 519.532116 247.324036 
L 526.356661 176.578529 
L 533.181205 293.587341 
L 540.00575 269.231878 
L 546.830295 290.11584 
L 553.65484 233.021005 
" clip-path="url(#p90d460f4a8)" style="fill: none; stroke: #c5b0d5; stroke-width: 2; stroke-linecap: square"/>
   </g>
   <g id="line2d_20">
    <path d="M 89.585787 160.404329 
L 96.410332 230.586434 
L 103.234877 258.311755 
L 110.059422 303.941651 
L 116.883967 357.770422 
L 123.708512 376.839884 
L 130.533057 365.27436 
L 137.357602 368.996548 
L 144.182146 371.298188 
L 151.006691 357.07974 
L 157.831236 366.050021 
L 164.655781 358.626482 
L 171.480326 351.351683 
L 178.304871 352.468454 
L 185.129416 334.144069 
L 191.953961 346.402267 
L 198.778506 343.522041 
L 205.60305 348.586446 
L 212.427595 350.894624 
L 219.25214 346.383263 
L 226.076685 348.792258 
L 232.90123 348.638784 
L 239.725775 342.345944 
L 246.55032 343.78108 
L 253.374865 343.064401 
L 260.19941 341.086385 
L 267.023955 335.275323 
L 273.848499 336.082339 
L 280.673044 345.967454 
L 287.497589 350.934408 
L 294.322134 337.267546 
L 301.146679 339.683746 
L 307.971224 326.948209 
L 314.795769 331.543762 
L 321.620314 344.234298 
L 328.444859 347.118221 
L 335.269403 350.273245 
L 342.093948 336.015434 
L 348.918493 337.590886 
L 355.743038 343.813754 
L 362.567583 333.801492 
L 369.392128 347.079039 
L 376.216673 352.750904 
L 383.041218 348.248486 
L 389.865763 350.610677 
L 396.690308 355.34307 
L 403.514852 356.806007 
L 410.339397 355.011199 
L 417.163942 360.484082 
L 423.988487 353.495791 
L 430.813032 356.188484 
L 437.637577 358.843793 
L 444.462122 372.92246 
L 451.286667 369.435366 
L 458.111212 349.173811 
L 464.935756 348.110008 
L 471.760301 339.806588 
L 478.584846 361.196876 
L 485.409391 361.849906 
L 492.233936 370.363119 
L 499.058481 381.243212 
L 505.883026 369.155447 
L 512.707571 346.355395 
L 519.532116 273.687013 
L 526.356661 226.144173 
L 533.181205 272.819594 
L 540.00575 338.250578 
L 546.830295 345.612991 
L 553.65484 326.086846 
" clip-path="url(#p90d460f4a8)" style="fill: none; stroke: #8c564b; stroke-width: 2; stroke-linecap: square"/>
   </g>
   <g id="line2d_21">
    <path d="M 89.585787 77.297559 
L 96.410332 129.078837 
L 103.234877 93.356495 
L 110.059422 104.098765 
L 116.883967 226.919779 
L 123.708512 285.74131 
L 130.533057 227.15563 
L 137.357602 259.454377 
L 144.182146 259.999958 
L 151.006691 244.296576 
L 157.831236 297.615776 
L 164.655781 281.791628 
L 171.480326 292.949761 
L 178.304871 302.513229 
L 185.129416 274.847647 
L 191.953961 287.024945 
L 198.778506 289.702769 
L 205.60305 284.873018 
L 212.427595 277.530744 
L 219.25214 271.503966 
L 226.076685 271.905889 
L 232.90123 284.215995 
L 239.725775 260.312809 
L 246.55032 262.877514 
L 253.374865 261.448633 
L 260.19941 260.14775 
L 267.023955 243.956269 
L 273.848499 230.603165 
L 280.673044 255.933284 
L 287.497589 264.899503 
L 294.322134 244.920469 
L 301.146679 252.820764 
L 307.971224 250.472075 
L 314.795769 254.64904 
L 321.620314 257.168485 
L 328.444859 252.327233 
L 335.269403 262.658058 
L 342.093948 243.691892 
L 348.918493 246.443783 
L 355.743038 255.874248 
L 362.567583 242.093563 
L 369.392128 264.950929 
L 376.216673 272.958911 
L 383.041218 265.877632 
L 389.865763 271.41109 
L 396.690308 280.613601 
L 403.514852 287.243552 
L 410.339397 291.131026 
L 417.163942 313.08612 
L 423.988487 310.493036 
L 430.813032 298.761505 
L 437.637577 313.154395 
L 444.462122 327.971761 
L 451.286667 345.280734 
L 458.111212 309.09468 
L 464.935756 327.375089 
L 471.760301 318.184219 
L 478.584846 327.929852 
L 485.409391 312.347418 
L 492.233936 342.939363 
L 499.058481 346.67353 
L 505.883026 356.84244 
L 512.707571 374.380978 
L 519.532116 378.726365 
L 526.356661 325.446874 
L 533.181205 321.816468 
L 540.00575 329.119616 
L 546.830295 275.766425 
L 553.65484 225.151054 
" clip-path="url(#p90d460f4a8)" style="fill: none; stroke: #e377c2; stroke-width: 2; stroke-linecap: square"/>
   </g>
   <g id="line2d_22">
    <path d="M 82.761242 96.184451 
L 89.585787 75.560059 
L 96.410332 130.910819 
L 103.234877 112.449225 
L 110.059422 148.283701 
L 116.883967 238.391535 
L 123.708512 293.189931 
L 130.533057 282.188625 
L 137.357602 264.054221 
L 144.182146 269.829947 
L 151.006691 265.932149 
L 157.831236 280.643097 
L 164.655781 277.559936 
L 171.480326 275.782977 
L 178.304871 291.894882 
L 185.129416 269.61046 
L 191.953961 262.981534 
L 198.778506 265.518357 
L 205.60305 273.901269 
L 212.427595 271.116097 
L 219.25214 255.80377 
L 226.076685 237.376706 
L 232.90123 249.53767 
L 239.725775 224.016705 
L 246.55032 210.731352 
L 253.374865 187.598241 
L 260.19941 187.980687 
L 267.023955 184.028919 
L 273.848499 181.157273 
L 280.673044 197.750221 
L 287.497589 192.477334 
L 294.322134 165.894474 
L 301.146679 171.753613 
L 307.971224 168.844794 
L 314.795769 175.138055 
L 321.620314 173.094283 
L 328.444859 174.778903 
L 335.269403 191.297909 
L 342.093948 183.641825 
L 348.918493 185.892874 
L 355.743038 195.205721 
L 362.567583 185.979065 
L 369.392128 206.900187 
L 376.216673 208.420904 
L 383.041218 208.065245 
L 389.865763 217.975768 
L 396.690308 209.72044 
L 403.514852 222.612157 
L 410.339397 224.709692 
L 417.163942 241.793484 
L 423.988487 250.085901 
L 430.813032 243.506749 
L 437.637577 253.725112 
L 444.462122 271.993051 
L 451.286667 299.505996 
L 458.111212 259.097805 
L 464.935756 284.856967 
L 471.760301 274.877412 
L 478.584846 307.960867 
L 485.409391 308.812486 
L 492.233936 322.772737 
L 499.058481 331.441989 
L 505.883026 340.709401 
L 512.707571 363.023303 
L 519.532116 260.413422 
L 526.356661 155.40737 
L 533.181205 274.574509 
L 540.00575 201.228873 
L 546.830295 304.420007 
L 553.65484 225.147495 
" clip-path="url(#p90d460f4a8)" style="fill: none; stroke: #7f7f7f; stroke-width: 2; stroke-linecap: square"/>
   </g>
   <g id="line2d_23">
    <path d="M 82.761242 79.693661 
L 89.585787 79.376013 
L 96.410332 117.693184 
L 103.234877 98.328582 
L 110.059422 97.111885 
L 116.883967 199.289462 
L 123.708512 275.393596 
L 130.533057 239.060895 
L 137.357602 253.030043 
L 144.182146 268.686213 
L 151.006691 256.26844 
L 157.831236 291.765357 
L 164.655781 271.31725 
L 171.480326 274.054629 
L 178.304871 283.039321 
L 185.129416 265.75144 
L 191.953961 267.414755 
L 198.778506 262.316473 
L 205.60305 261.871987 
L 212.427595 255.953455 
L 219.25214 237.946494 
L 226.076685 222.788653 
L 232.90123 244.529646 
L 239.725775 211.398232 
L 246.55032 210.485792 
L 253.374865 214.872715 
L 260.19941 211.149587 
L 267.023955 204.461985 
L 273.848499 190.767194 
L 280.673044 198.473772 
L 287.497589 201.535235 
L 294.322134 185.128589 
L 301.146679 186.23601 
L 307.971224 178.278333 
L 314.795769 185.148986 
L 321.620314 189.097347 
L 328.444859 200.471669 
L 335.269403 213.40955 
L 342.093948 205.30607 
L 348.918493 205.642199 
L 355.743038 209.880298 
L 362.567583 197.753705 
L 369.392128 218.714012 
L 376.216673 227.504063 
L 383.041218 212.566054 
L 389.865763 217.21953 
L 396.690308 222.024055 
L 403.514852 237.424129 
L 410.339397 238.565627 
L 417.163942 261.652105 
L 423.988487 265.598127 
L 430.813032 248.435137 
L 437.637577 257.122984 
L 444.462122 272.096959 
L 451.286667 294.575142 
L 458.111212 257.957247 
L 464.935756 272.407015 
L 471.760301 256.325599 
L 478.584846 282.703598 
L 485.409391 279.202472 
L 492.233936 318.835442 
L 499.058481 331.655774 
L 505.883026 328.57217 
L 512.707571 354.19933 
L 519.532116 255.049339 
L 526.356661 134.400251 
L 533.181205 294.814379 
L 540.00575 221.78319 
L 546.830295 281.92571 
L 553.65484 177.100727 
" clip-path="url(#p90d460f4a8)" style="fill: none; stroke: #bcbd22; stroke-width: 2; stroke-linecap: square"/>
   </g>
   <g id="line2d_24">
    <path d="M 82.761242 105.482098 
L 89.585787 84.640887 
L 96.410332 119.123342 
L 103.234877 87.838262 
L 110.059422 107.488678 
L 116.883967 226.815742 
L 123.708512 277.981511 
L 130.533057 240.949233 
L 137.357602 247.335179 
L 144.182146 251.872677 
L 151.006691 237.274084 
L 157.831236 256.87375 
L 164.655781 256.163861 
L 171.480326 272.147414 
L 178.304871 297.31383 
L 185.129416 272.020736 
L 191.953961 278.758308 
L 198.778506 286.363641 
L 205.60305 295.050565 
L 212.427595 286.396789 
L 219.25214 273.098721 
L 226.076685 269.484075 
L 232.90123 284.180005 
L 239.725775 248.252089 
L 246.55032 247.116504 
L 253.374865 248.614439 
L 260.19941 238.426409 
L 267.023955 225.029584 
L 273.848499 211.438202 
L 280.673044 231.084989 
L 287.497589 232.939063 
L 294.322134 210.788126 
L 301.146679 210.569693 
L 307.971224 193.745437 
L 314.795769 201.355423 
L 321.620314 210.641348 
L 328.444859 222.464808 
L 335.269403 239.695429 
L 342.093948 218.828926 
L 348.918493 223.33778 
L 355.743038 233.863531 
L 362.567583 224.096254 
L 369.392128 247.640654 
L 376.216673 260.946096 
L 383.041218 269.462161 
L 389.865763 285.826802 
L 396.690308 284.300079 
L 403.514852 294.481247 
L 410.339397 298.770847 
L 417.163942 318.230721 
L 423.988487 316.950577 
L 430.813032 308.668517 
L 437.637577 312.981861 
L 444.462122 334.947569 
L 451.286667 339.499611 
L 458.111212 302.694038 
L 464.935756 305.287213 
L 471.760301 293.003492 
L 478.584846 321.987674 
L 485.409391 321.675494 
L 492.233936 360.516511 
L 499.058481 353.53924 
L 505.883026 347.612877 
L 512.707571 368.640526 
L 519.532116 325.531087 
L 526.356661 172.803878 
L 533.181205 281.537174 
L 540.00575 291.264539 
L 546.830295 274.225644 
L 553.65484 240.373174 
" clip-path="url(#p90d460f4a8)" style="fill: none; stroke: #17becf; stroke-width: 2; stroke-linecap: square"/>
   </g>
   <g id="line2d_25">
    <path d="M 82.761242 42.339978 
L 89.585787 71.83041 
L 96.410332 101.392178 
L 103.234877 91.238404 
L 110.059422 126.206765 
L 116.883967 246.437692 
L 123.708512 255.056367 
L 130.533057 243.366772 
L 137.357602 269.113785 
L 144.182146 252.811964 
L 151.006691 240.337697 
L 157.831236 263.532275 
L 164.655781 250.197978 
L 171.480326 267.742695 
L 178.304871 295.251519 
L 185.129416 269.384124 
L 191.953961 275.6076 
L 198.778506 281.378303 
L 205.60305 289.493988 
L 212.427595 277.037276 
L 219.25214 258.78238 
L 226.076685 246.622591 
L 232.90123 263.650594 
L 239.725775 254.066541 
L 246.55032 252.722648 
L 253.374865 253.548623 
L 260.19941 254.498218 
L 267.023955 244.301246 
L 273.848499 229.259607 
L 280.673044 240.420716 
L 287.497589 244.380449 
L 294.322134 212.177792 
L 301.146679 216.181278 
L 307.971224 204.64259 
L 314.795769 209.755248 
L 321.620314 207.682483 
L 328.444859 211.92228 
L 335.269403 231.290816 
L 342.093948 216.088389 
L 348.918493 224.58573 
L 355.743038 238.307671 
L 362.567583 232.917361 
L 369.392128 262.862357 
L 376.216673 266.999718 
L 383.041218 254.122863 
L 389.865763 262.701282 
L 396.690308 267.094523 
L 403.514852 279.682069 
L 410.339397 290.019867 
L 417.163942 311.476284 
L 423.988487 303.235604 
L 430.813032 294.877971 
L 437.637577 306.234328 
L 444.462122 325.596823 
L 451.286667 337.619502 
L 458.111212 313.056632 
L 464.935756 319.499681 
L 471.760301 311.208841 
L 478.584846 334.762925 
L 485.409391 326.052569 
L 492.233936 366.390434 
L 499.058481 356.296367 
L 505.883026 340.788104 
L 512.707571 364.178645 
L 519.532116 368.057274 
L 526.356661 191.898836 
L 533.181205 305.619392 
L 540.00575 303.054629 
L 546.830295 295.477269 
L 553.65484 233.269459 
" clip-path="url(#p90d460f4a8)" style="fill: none; stroke: #9edae5; stroke-width: 2; stroke-linecap: square"/>
   </g>
   <g id="line2d_26">
    <path d="M 82.761242 83.769251 
L 89.585787 93.962317 
L 96.410332 170.200287 
L 103.234877 165.677267 
L 110.059422 183.276367 
L 116.883967 287.140186 
L 123.708512 322.918013 
L 130.533057 299.79248 
L 137.357602 303.605083 
L 144.182146 307.95599 
L 151.006691 301.496262 
L 157.831236 320.365369 
L 164.655781 310.338557 
L 171.480326 313.207476 
L 178.304871 323.093057 
L 185.129416 302.982438 
L 191.953961 308.453827 
L 198.778506 309.93644 
L 205.60305 315.923863 
L 212.427595 311.666762 
L 219.25214 300.809379 
L 226.076685 296.133056 
L 232.90123 302.809706 
L 239.725775 287.290733 
L 246.55032 285.264516 
L 253.374865 283.674639 
L 260.19941 282.437546 
L 267.023955 273.955947 
L 273.848499 265.124757 
L 280.673044 279.601406 
L 287.497589 282.003301 
L 294.322134 257.570264 
L 301.146679 259.606546 
L 307.971224 250.573826 
L 314.795769 259.394636 
L 321.620314 265.994803 
L 328.444859 271.755032 
L 335.269403 283.848071 
L 342.093948 270.699045 
L 348.918493 273.007875 
L 355.743038 281.960958 
L 362.567583 273.715331 
L 369.392128 292.161947 
L 376.216673 300.594231 
L 383.041218 297.109103 
L 389.865763 301.748179 
L 396.690308 302.860151 
L 403.514852 308.814843 
L 410.339397 311.837518 
L 417.163942 325.367898 
L 423.988487 319.086342 
L 430.813032 309.119046 
L 437.637577 315.72738 
L 444.462122 330.548693 
L 451.286667 340.339934 
L 458.111212 314.321744 
L 464.935756 320.042803 
L 471.760301 309.397617 
L 478.584846 333.600328 
L 485.409391 325.310206 
L 492.233936 357.674252 
L 499.058481 356.593553 
L 505.883026 347.612668 
L 512.707571 360.105991 
L 519.532116 317.429613 
L 526.356661 206.848212 
L 533.181205 292.980704 
L 540.00575 288.775116 
L 546.830295 303.81909 
L 553.65484 249.596754 
" clip-path="url(#p90d460f4a8)" style="fill: none; stroke: #000000; stroke-width: 3; stroke-linecap: square"/>
   </g>
   <g id="patch_3">
    <path d="M 59.216563 398.97202 
L 59.216563 25.3575 
" style="fill: none; stroke: #000000; stroke-width: 0.8; stroke-linejoin: miter; stroke-linecap: square"/>
   </g>
   <g id="patch_4">
    <path d="M 577.19952 398.97202 
L 577.19952 25.3575 
" style="fill: none; stroke: #000000; stroke-width: 0.8; stroke-linejoin: miter; stroke-linecap: square"/>
   </g>
   <g id="patch_5">
    <path d="M 59.216563 398.97202 
L 577.19952 398.97202 
" style="fill: none; stroke: #000000; stroke-width: 0.8; stroke-linejoin: miter; stroke-linecap: square"/>
   </g>
   <g id="patch_6">
    <path d="M 59.216563 25.3575 
L 577.19952 25.3575 
" style="fill: none; stroke: #000000; stroke-width: 0.8; stroke-linejoin: miter; stroke-linecap: square"/>
   </g>
   <g id="text_16">
    <!-- Average Coral Cover Change Rate by Latitude -->
    <g transform="translate(111.755541 19.3575) scale(0.16 -0.16)">
     <defs>
      <path id="DejaVuSans-Bold-41" d="M 3419 850 
L 1538 850 
L 1241 0 
L 31 0 
L 1759 4666 
L 3194 4666 
L 4922 0 
L 3713 0 
L 3419 850 
z
M 1838 1716 
L 3116 1716 
L 2478 3572 
L 1838 1716 
z
" transform="scale(0.015625)"/>
      <path id="DejaVuSans-Bold-76" d="M 97 3500 
L 1216 3500 
L 2088 1081 
L 2956 3500 
L 4078 3500 
L 2700 0 
L 1472 0 
L 97 3500 
z
" transform="scale(0.015625)"/>
      <path id="DejaVuSans-Bold-65" d="M 4031 1759 
L 4031 1441 
L 1416 1441 
Q 1456 1047 1700 850 
Q 1944 653 2381 653 
Q 2734 653 3104 758 
Q 3475 863 3866 1075 
L 3866 213 
Q 3469 63 3072 -14 
Q 2675 -91 2278 -91 
Q 1328 -91 801 392 
Q 275 875 275 1747 
Q 275 2603 792 3093 
Q 1309 3584 2216 3584 
Q 3041 3584 3536 3087 
Q 4031 2591 4031 1759 
z
M 2881 2131 
Q 2881 2450 2695 2645 
Q 2509 2841 2209 2841 
Q 1884 2841 1681 2658 
Q 1478 2475 1428 2131 
L 2881 2131 
z
" transform="scale(0.015625)"/>
      <path id="DejaVuSans-Bold-72" d="M 3138 2547 
Q 2991 2616 2845 2648 
Q 2700 2681 2553 2681 
Q 2122 2681 1889 2404 
Q 1656 2128 1656 1613 
L 1656 0 
L 538 0 
L 538 3500 
L 1656 3500 
L 1656 2925 
Q 1872 3269 2151 3426 
Q 2431 3584 2822 3584 
Q 2878 3584 2943 3579 
Q 3009 3575 3134 3559 
L 3138 2547 
z
" transform="scale(0.015625)"/>
      <path id="DejaVuSans-Bold-61" d="M 2106 1575 
Q 1756 1575 1579 1456 
Q 1403 1338 1403 1106 
Q 1403 894 1545 773 
Q 1688 653 1941 653 
Q 2256 653 2472 879 
Q 2688 1106 2688 1447 
L 2688 1575 
L 2106 1575 
z
M 3816 1997 
L 3816 0 
L 2688 0 
L 2688 519 
Q 2463 200 2181 54 
Q 1900 -91 1497 -91 
Q 953 -91 614 226 
Q 275 544 275 1050 
Q 275 1666 698 1953 
Q 1122 2241 2028 2241 
L 2688 2241 
L 2688 2328 
Q 2688 2594 2478 2717 
Q 2269 2841 1825 2841 
Q 1466 2841 1156 2769 
Q 847 2697 581 2553 
L 581 3406 
Q 941 3494 1303 3539 
Q 1666 3584 2028 3584 
Q 2975 3584 3395 3211 
Q 3816 2838 3816 1997 
z
" transform="scale(0.015625)"/>
      <path id="DejaVuSans-Bold-67" d="M 2919 594 
Q 2688 288 2409 144 
Q 2131 0 1766 0 
Q 1125 0 706 504 
Q 288 1009 288 1791 
Q 288 2575 706 3076 
Q 1125 3578 1766 3578 
Q 2131 3578 2409 3434 
Q 2688 3291 2919 2981 
L 2919 3500 
L 4044 3500 
L 4044 353 
Q 4044 -491 3511 -936 
Q 2978 -1381 1966 -1381 
Q 1638 -1381 1331 -1331 
Q 1025 -1281 716 -1178 
L 716 -306 
Q 1009 -475 1290 -558 
Q 1572 -641 1856 -641 
Q 2406 -641 2662 -400 
Q 2919 -159 2919 353 
L 2919 594 
z
M 2181 2772 
Q 1834 2772 1640 2515 
Q 1447 2259 1447 1791 
Q 1447 1309 1634 1061 
Q 1822 813 2181 813 
Q 2531 813 2725 1069 
Q 2919 1325 2919 1791 
Q 2919 2259 2725 2515 
Q 2531 2772 2181 2772 
z
" transform="scale(0.015625)"/>
      <path id="DejaVuSans-Bold-20" transform="scale(0.015625)"/>
      <path id="DejaVuSans-Bold-43" d="M 4288 256 
Q 3956 84 3597 -3 
Q 3238 -91 2847 -91 
Q 1681 -91 1000 561 
Q 319 1213 319 2328 
Q 319 3447 1000 4098 
Q 1681 4750 2847 4750 
Q 3238 4750 3597 4662 
Q 3956 4575 4288 4403 
L 4288 3438 
Q 3953 3666 3628 3772 
Q 3303 3878 2944 3878 
Q 2300 3878 1931 3465 
Q 1563 3053 1563 2328 
Q 1563 1606 1931 1193 
Q 2300 781 2944 781 
Q 3303 781 3628 887 
Q 3953 994 4288 1222 
L 4288 256 
z
" transform="scale(0.015625)"/>
      <path id="DejaVuSans-Bold-6f" d="M 2203 2784 
Q 1831 2784 1636 2517 
Q 1441 2250 1441 1747 
Q 1441 1244 1636 976 
Q 1831 709 2203 709 
Q 2569 709 2762 976 
Q 2956 1244 2956 1747 
Q 2956 2250 2762 2517 
Q 2569 2784 2203 2784 
z
M 2203 3584 
Q 3106 3584 3614 3096 
Q 4122 2609 4122 1747 
Q 4122 884 3614 396 
Q 3106 -91 2203 -91 
Q 1297 -91 786 396 
Q 275 884 275 1747 
Q 275 2609 786 3096 
Q 1297 3584 2203 3584 
z
" transform="scale(0.015625)"/>
      <path id="DejaVuSans-Bold-6c" d="M 538 4863 
L 1656 4863 
L 1656 0 
L 538 0 
L 538 4863 
z
" transform="scale(0.015625)"/>
      <path id="DejaVuSans-Bold-68" d="M 4056 2131 
L 4056 0 
L 2931 0 
L 2931 347 
L 2931 1625 
Q 2931 2084 2911 2256 
Q 2891 2428 2841 2509 
Q 2775 2619 2662 2680 
Q 2550 2741 2406 2741 
Q 2056 2741 1856 2470 
Q 1656 2200 1656 1722 
L 1656 0 
L 538 0 
L 538 4863 
L 1656 4863 
L 1656 2988 
Q 1909 3294 2193 3439 
Q 2478 3584 2822 3584 
Q 3428 3584 3742 3212 
Q 4056 2841 4056 2131 
z
" transform="scale(0.015625)"/>
      <path id="DejaVuSans-Bold-6e" d="M 4056 2131 
L 4056 0 
L 2931 0 
L 2931 347 
L 2931 1631 
Q 2931 2084 2911 2256 
Q 2891 2428 2841 2509 
Q 2775 2619 2662 2680 
Q 2550 2741 2406 2741 
Q 2056 2741 1856 2470 
Q 1656 2200 1656 1722 
L 1656 0 
L 538 0 
L 538 3500 
L 1656 3500 
L 1656 2988 
Q 1909 3294 2193 3439 
Q 2478 3584 2822 3584 
Q 3428 3584 3742 3212 
Q 4056 2841 4056 2131 
z
" transform="scale(0.015625)"/>
      <path id="DejaVuSans-Bold-52" d="M 2297 2597 
Q 2675 2597 2839 2737 
Q 3003 2878 3003 3200 
Q 3003 3519 2839 3656 
Q 2675 3794 2297 3794 
L 1791 3794 
L 1791 2597 
L 2297 2597 
z
M 1791 1766 
L 1791 0 
L 588 0 
L 588 4666 
L 2425 4666 
Q 3347 4666 3776 4356 
Q 4206 4047 4206 3378 
Q 4206 2916 3982 2619 
Q 3759 2322 3309 2181 
Q 3556 2125 3751 1926 
Q 3947 1728 4147 1325 
L 4800 0 
L 3519 0 
L 2950 1159 
Q 2778 1509 2601 1637 
Q 2425 1766 2131 1766 
L 1791 1766 
z
" transform="scale(0.015625)"/>
      <path id="DejaVuSans-Bold-74" d="M 1759 4494 
L 1759 3500 
L 2913 3500 
L 2913 2700 
L 1759 2700 
L 1759 1216 
Q 1759 972 1856 886 
Q 1953 800 2241 800 
L 2816 800 
L 2816 0 
L 1856 0 
Q 1194 0 917 276 
Q 641 553 641 1216 
L 641 2700 
L 84 2700 
L 84 3500 
L 641 3500 
L 641 4494 
L 1759 4494 
z
" transform="scale(0.015625)"/>
      <path id="DejaVuSans-Bold-62" d="M 2400 722 
Q 2759 722 2948 984 
Q 3138 1247 3138 1747 
Q 3138 2247 2948 2509 
Q 2759 2772 2400 2772 
Q 2041 2772 1848 2508 
Q 1656 2244 1656 1747 
Q 1656 1250 1848 986 
Q 2041 722 2400 722 
z
M 1656 2988 
Q 1888 3294 2169 3439 
Q 2450 3584 2816 3584 
Q 3463 3584 3878 3070 
Q 4294 2556 4294 1747 
Q 4294 938 3878 423 
Q 3463 -91 2816 -91 
Q 2450 -91 2169 54 
Q 1888 200 1656 506 
L 1656 0 
L 538 0 
L 538 4863 
L 1656 4863 
L 1656 2988 
z
" transform="scale(0.015625)"/>
      <path id="DejaVuSans-Bold-79" d="M 78 3500 
L 1197 3500 
L 2138 1125 
L 2938 3500 
L 4056 3500 
L 2584 -331 
Q 2363 -916 2067 -1148 
Q 1772 -1381 1288 -1381 
L 641 -1381 
L 641 -647 
L 991 -647 
Q 1275 -647 1404 -556 
Q 1534 -466 1606 -231 
L 1638 -134 
L 78 3500 
z
" transform="scale(0.015625)"/>
      <path id="DejaVuSans-Bold-4c" d="M 588 4666 
L 1791 4666 
L 1791 909 
L 3903 909 
L 3903 0 
L 588 0 
L 588 4666 
z
" transform="scale(0.015625)"/>
      <path id="DejaVuSans-Bold-69" d="M 538 3500 
L 1656 3500 
L 1656 0 
L 538 0 
L 538 3500 
z
M 538 4863 
L 1656 4863 
L 1656 3950 
L 538 3950 
L 538 4863 
z
" transform="scale(0.015625)"/>
      <path id="DejaVuSans-Bold-75" d="M 500 1363 
L 500 3500 
L 1625 3500 
L 1625 3150 
Q 1625 2866 1622 2436 
Q 1619 2006 1619 1863 
Q 1619 1441 1641 1255 
Q 1663 1069 1716 984 
Q 1784 875 1895 815 
Q 2006 756 2150 756 
Q 2500 756 2700 1025 
Q 2900 1294 2900 1772 
L 2900 3500 
L 4019 3500 
L 4019 0 
L 2900 0 
L 2900 506 
Q 2647 200 2364 54 
Q 2081 -91 1741 -91 
Q 1134 -91 817 281 
Q 500 653 500 1363 
z
" transform="scale(0.015625)"/>
      <path id="DejaVuSans-Bold-64" d="M 2919 2988 
L 2919 4863 
L 4044 4863 
L 4044 0 
L 2919 0 
L 2919 506 
Q 2688 197 2409 53 
Q 2131 -91 1766 -91 
Q 1119 -91 703 423 
Q 288 938 288 1747 
Q 288 2556 703 3070 
Q 1119 3584 1766 3584 
Q 2128 3584 2408 3439 
Q 2688 3294 2919 2988 
z
M 2181 722 
Q 2541 722 2730 984 
Q 2919 1247 2919 1747 
Q 2919 2247 2730 2509 
Q 2541 2772 2181 2772 
Q 1825 2772 1636 2509 
Q 1447 2247 1447 1747 
Q 1447 1247 1636 984 
Q 1825 722 2181 722 
z
" transform="scale(0.015625)"/>
     </defs>
     <use xlink:href="#DejaVuSans-Bold-41"/>
     <use xlink:href="#DejaVuSans-Bold-76" x="73.767578"/>
     <use xlink:href="#DejaVuSans-Bold-65" x="138.953125"/>
     <use xlink:href="#DejaVuSans-Bold-72" x="206.775391"/>
     <use xlink:href="#DejaVuSans-Bold-61" x="256.091797"/>
     <use xlink:href="#DejaVuSans-Bold-67" x="323.572266"/>
     <use xlink:href="#DejaVuSans-Bold-65" x="395.154297"/>
     <use xlink:href="#DejaVuSans-Bold-20" x="462.976562"/>
     <use xlink:href="#DejaVuSans-Bold-43" x="497.791016"/>
     <use xlink:href="#DejaVuSans-Bold-6f" x="571.179688"/>
     <use xlink:href="#DejaVuSans-Bold-72" x="639.880859"/>
     <use xlink:href="#DejaVuSans-Bold-61" x="689.197266"/>
     <use xlink:href="#DejaVuSans-Bold-6c" x="756.677734"/>
     <use xlink:href="#DejaVuSans-Bold-20" x="790.955078"/>
     <use xlink:href="#DejaVuSans-Bold-43" x="825.769531"/>
     <use xlink:href="#DejaVuSans-Bold-6f" x="899.158203"/>
     <use xlink:href="#DejaVuSans-Bold-76" x="967.859375"/>
     <use xlink:href="#DejaVuSans-Bold-65" x="1033.044922"/>
     <use xlink:href="#DejaVuSans-Bold-72" x="1100.867188"/>
     <use xlink:href="#DejaVuSans-Bold-20" x="1150.183594"/>
     <use xlink:href="#DejaVuSans-Bold-43" x="1184.998047"/>
     <use xlink:href="#DejaVuSans-Bold-68" x="1258.386719"/>
     <use xlink:href="#DejaVuSans-Bold-61" x="1329.578125"/>
     <use xlink:href="#DejaVuSans-Bold-6e" x="1397.058594"/>
     <use xlink:href="#DejaVuSans-Bold-67" x="1468.25"/>
     <use xlink:href="#DejaVuSans-Bold-65" x="1539.832031"/>
     <use xlink:href="#DejaVuSans-Bold-20" x="1607.654297"/>
     <use xlink:href="#DejaVuSans-Bold-52" x="1642.46875"/>
     <use xlink:href="#DejaVuSans-Bold-61" x="1719.470703"/>
     <use xlink:href="#DejaVuSans-Bold-74" x="1786.951172"/>
     <use xlink:href="#DejaVuSans-Bold-65" x="1834.753906"/>
     <use xlink:href="#DejaVuSans-Bold-20" x="1902.576172"/>
     <use xlink:href="#DejaVuSans-Bold-62" x="1937.390625"/>
     <use xlink:href="#DejaVuSans-Bold-79" x="2008.972656"/>
     <use xlink:href="#DejaVuSans-Bold-20" x="2074.158203"/>
     <use xlink:href="#DejaVuSans-Bold-4c" x="2108.972656"/>
     <use xlink:href="#DejaVuSans-Bold-61" x="2172.693359"/>
     <use xlink:href="#DejaVuSans-Bold-74" x="2240.173828"/>
     <use xlink:href="#DejaVuSans-Bold-69" x="2287.976562"/>
     <use xlink:href="#DejaVuSans-Bold-74" x="2322.253906"/>
     <use xlink:href="#DejaVuSans-Bold-75" x="2370.056641"/>
     <use xlink:href="#DejaVuSans-Bold-64" x="2441.248047"/>
     <use xlink:href="#DejaVuSans-Bold-65" x="2512.830078"/>
    </g>
   </g>
   <g id="legend_1">
    <g id="line2d_27">
     <path d="M 432.111878 38.455937 
L 442.111878 38.455937 
L 452.111878 38.455937 
" style="fill: none; stroke: #1f77b4; stroke-width: 2; stroke-linecap: square"/>
    </g>
    <g id="text_17">
     <!-- Model 0 -->
     <g transform="translate(460.111878 41.955937) scale(0.1 -0.1)">
      <defs>
       <path id="DejaVuSans-4d" d="M 628 4666 
L 1569 4666 
L 2759 1491 
L 3956 4666 
L 4897 4666 
L 4897 0 
L 4281 0 
L 4281 4097 
L 3078 897 
L 2444 897 
L 1241 4097 
L 1241 0 
L 628 0 
L 628 4666 
z
" transform="scale(0.015625)"/>
      </defs>
      <use xlink:href="#DejaVuSans-4d"/>
      <use xlink:href="#DejaVuSans-6f" x="86.279297"/>
      <use xlink:href="#DejaVuSans-64" x="147.460938"/>
      <use xlink:href="#DejaVuSans-65" x="210.9375"/>
      <use xlink:href="#DejaVuSans-6c" x="272.460938"/>
      <use xlink:href="#DejaVuSans-20" x="300.244141"/>
      <use xlink:href="#DejaVuSans-30" x="332.03125"/>
     </g>
    </g>
    <g id="line2d_28">
     <path d="M 432.111878 53.134062 
L 442.111878 53.134062 
L 452.111878 53.134062 
" style="fill: none; stroke: #aec7e8; stroke-width: 2; stroke-linecap: square"/>
    </g>
    <g id="text_18">
     <!-- Model 1 -->
     <g transform="translate(460.111878 56.634062) scale(0.1 -0.1)">
      <use xlink:href="#DejaVuSans-4d"/>
      <use xlink:href="#DejaVuSans-6f" x="86.279297"/>
      <use xlink:href="#DejaVuSans-64" x="147.460938"/>
      <use xlink:href="#DejaVuSans-65" x="210.9375"/>
      <use xlink:href="#DejaVuSans-6c" x="272.460938"/>
      <use xlink:href="#DejaVuSans-20" x="300.244141"/>
      <use xlink:href="#DejaVuSans-31" x="332.03125"/>
     </g>
    </g>
    <g id="line2d_29">
     <path d="M 432.111878 67.812187 
L 442.111878 67.812187 
L 452.111878 67.812187 
" style="fill: none; stroke: #ffbb78; stroke-width: 2; stroke-linecap: square"/>
    </g>
    <g id="text_19">
     <!-- Model 2 -->
     <g transform="translate(460.111878 71.312187) scale(0.1 -0.1)">
      <use xlink:href="#DejaVuSans-4d"/>
      <use xlink:href="#DejaVuSans-6f" x="86.279297"/>
      <use xlink:href="#DejaVuSans-64" x="147.460938"/>
      <use xlink:href="#DejaVuSans-65" x="210.9375"/>
      <use xlink:href="#DejaVuSans-6c" x="272.460938"/>
      <use xlink:href="#DejaVuSans-20" x="300.244141"/>
      <use xlink:href="#DejaVuSans-32" x="332.03125"/>
     </g>
    </g>
    <g id="line2d_30">
     <path d="M 432.111878 82.490312 
L 442.111878 82.490312 
L 452.111878 82.490312 
" style="fill: none; stroke: #98df8a; stroke-width: 2; stroke-linecap: square"/>
    </g>
    <g id="text_20">
     <!-- Model 3 -->
     <g transform="translate(460.111878 85.990312) scale(0.1 -0.1)">
      <use xlink:href="#DejaVuSans-4d"/>
      <use xlink:href="#DejaVuSans-6f" x="86.279297"/>
      <use xlink:href="#DejaVuSans-64" x="147.460938"/>
      <use xlink:href="#DejaVuSans-65" x="210.9375"/>
      <use xlink:href="#DejaVuSans-6c" x="272.460938"/>
      <use xlink:href="#DejaVuSans-20" x="300.244141"/>
      <use xlink:href="#DejaVuSans-33" x="332.03125"/>
     </g>
    </g>
    <g id="line2d_31">
     <path d="M 432.111878 97.168437 
L 442.111878 97.168437 
L 452.111878 97.168437 
" style="fill: none; stroke: #ff9896; stroke-width: 2; stroke-linecap: square"/>
    </g>
    <g id="text_21">
     <!-- Model 4 -->
     <g transform="translate(460.111878 100.668437) scale(0.1 -0.1)">
      <use xlink:href="#DejaVuSans-4d"/>
      <use xlink:href="#DejaVuSans-6f" x="86.279297"/>
      <use xlink:href="#DejaVuSans-64" x="147.460938"/>
      <use xlink:href="#DejaVuSans-65" x="210.9375"/>
      <use xlink:href="#DejaVuSans-6c" x="272.460938"/>
      <use xlink:href="#DejaVuSans-20" x="300.244141"/>
      <use xlink:href="#DejaVuSans-34" x="332.03125"/>
     </g>
    </g>
    <g id="line2d_32">
     <path d="M 432.111878 111.846562 
L 442.111878 111.846562 
L 452.111878 111.846562 
" style="fill: none; stroke: #c5b0d5; stroke-width: 2; stroke-linecap: square"/>
    </g>
    <g id="text_22">
     <!-- Model 5 -->
     <g transform="translate(460.111878 115.346562) scale(0.1 -0.1)">
      <defs>
       <path id="DejaVuSans-35" d="M 691 4666 
L 3169 4666 
L 3169 4134 
L 1269 4134 
L 1269 2991 
Q 1406 3038 1543 3061 
Q 1681 3084 1819 3084 
Q 2600 3084 3056 2656 
Q 3513 2228 3513 1497 
Q 3513 744 3044 326 
Q 2575 -91 1722 -91 
Q 1428 -91 1123 -41 
Q 819 9 494 109 
L 494 744 
Q 775 591 1075 516 
Q 1375 441 1709 441 
Q 2250 441 2565 725 
Q 2881 1009 2881 1497 
Q 2881 1984 2565 2268 
Q 2250 2553 1709 2553 
Q 1456 2553 1204 2497 
Q 953 2441 691 2322 
L 691 4666 
z
" transform="scale(0.015625)"/>
      </defs>
      <use xlink:href="#DejaVuSans-4d"/>
      <use xlink:href="#DejaVuSans-6f" x="86.279297"/>
      <use xlink:href="#DejaVuSans-64" x="147.460938"/>
      <use xlink:href="#DejaVuSans-65" x="210.9375"/>
      <use xlink:href="#DejaVuSans-6c" x="272.460938"/>
      <use xlink:href="#DejaVuSans-20" x="300.244141"/>
      <use xlink:href="#DejaVuSans-35" x="332.03125"/>
     </g>
    </g>
    <g id="line2d_33">
     <path d="M 432.111878 126.524687 
L 442.111878 126.524687 
L 452.111878 126.524687 
" style="fill: none; stroke: #8c564b; stroke-width: 2; stroke-linecap: square"/>
    </g>
    <g id="text_23">
     <!-- Model 6 -->
     <g transform="translate(460.111878 130.024687) scale(0.1 -0.1)">
      <use xlink:href="#DejaVuSans-4d"/>
      <use xlink:href="#DejaVuSans-6f" x="86.279297"/>
      <use xlink:href="#DejaVuSans-64" x="147.460938"/>
      <use xlink:href="#DejaVuSans-65" x="210.9375"/>
      <use xlink:href="#DejaVuSans-6c" x="272.460938"/>
      <use xlink:href="#DejaVuSans-20" x="300.244141"/>
      <use xlink:href="#DejaVuSans-36" x="332.03125"/>
     </g>
    </g>
    <g id="line2d_34">
     <path d="M 432.111878 141.202812 
L 442.111878 141.202812 
L 452.111878 141.202812 
" style="fill: none; stroke: #e377c2; stroke-width: 2; stroke-linecap: square"/>
    </g>
    <g id="text_24">
     <!-- Model 7 -->
     <g transform="translate(460.111878 144.702812) scale(0.1 -0.1)">
      <defs>
       <path id="DejaVuSans-37" d="M 525 4666 
L 3525 4666 
L 3525 4397 
L 1831 0 
L 1172 0 
L 2766 4134 
L 525 4134 
L 525 4666 
z
" transform="scale(0.015625)"/>
      </defs>
      <use xlink:href="#DejaVuSans-4d"/>
      <use xlink:href="#DejaVuSans-6f" x="86.279297"/>
      <use xlink:href="#DejaVuSans-64" x="147.460938"/>
      <use xlink:href="#DejaVuSans-65" x="210.9375"/>
      <use xlink:href="#DejaVuSans-6c" x="272.460938"/>
      <use xlink:href="#DejaVuSans-20" x="300.244141"/>
      <use xlink:href="#DejaVuSans-37" x="332.03125"/>
     </g>
    </g>
    <g id="line2d_35">
     <path d="M 432.111878 155.880937 
L 442.111878 155.880937 
L 452.111878 155.880937 
" style="fill: none; stroke: #7f7f7f; stroke-width: 2; stroke-linecap: square"/>
    </g>
    <g id="text_25">
     <!-- Model 8 -->
     <g transform="translate(460.111878 159.380937) scale(0.1 -0.1)">
      <use xlink:href="#DejaVuSans-4d"/>
      <use xlink:href="#DejaVuSans-6f" x="86.279297"/>
      <use xlink:href="#DejaVuSans-64" x="147.460938"/>
      <use xlink:href="#DejaVuSans-65" x="210.9375"/>
      <use xlink:href="#DejaVuSans-6c" x="272.460938"/>
      <use xlink:href="#DejaVuSans-20" x="300.244141"/>
      <use xlink:href="#DejaVuSans-38" x="332.03125"/>
     </g>
    </g>
    <g id="line2d_36">
     <path d="M 432.111878 170.559062 
L 442.111878 170.559062 
L 452.111878 170.559062 
" style="fill: none; stroke: #bcbd22; stroke-width: 2; stroke-linecap: square"/>
    </g>
    <g id="text_26">
     <!-- Model 9 -->
     <g transform="translate(460.111878 174.059062) scale(0.1 -0.1)">
      <defs>
       <path id="DejaVuSans-39" d="M 703 97 
L 703 672 
Q 941 559 1184 500 
Q 1428 441 1663 441 
Q 2288 441 2617 861 
Q 2947 1281 2994 2138 
Q 2813 1869 2534 1725 
Q 2256 1581 1919 1581 
Q 1219 1581 811 2004 
Q 403 2428 403 3163 
Q 403 3881 828 4315 
Q 1253 4750 1959 4750 
Q 2769 4750 3195 4129 
Q 3622 3509 3622 2328 
Q 3622 1225 3098 567 
Q 2575 -91 1691 -91 
Q 1453 -91 1209 -44 
Q 966 3 703 97 
z
M 1959 2075 
Q 2384 2075 2632 2365 
Q 2881 2656 2881 3163 
Q 2881 3666 2632 3958 
Q 2384 4250 1959 4250 
Q 1534 4250 1286 3958 
Q 1038 3666 1038 3163 
Q 1038 2656 1286 2365 
Q 1534 2075 1959 2075 
z
" transform="scale(0.015625)"/>
      </defs>
      <use xlink:href="#DejaVuSans-4d"/>
      <use xlink:href="#DejaVuSans-6f" x="86.279297"/>
      <use xlink:href="#DejaVuSans-64" x="147.460938"/>
      <use xlink:href="#DejaVuSans-65" x="210.9375"/>
      <use xlink:href="#DejaVuSans-6c" x="272.460938"/>
      <use xlink:href="#DejaVuSans-20" x="300.244141"/>
      <use xlink:href="#DejaVuSans-39" x="332.03125"/>
     </g>
    </g>
    <g id="line2d_37">
     <path d="M 432.111878 185.237187 
L 442.111878 185.237187 
L 452.111878 185.237187 
" style="fill: none; stroke: #17becf; stroke-width: 2; stroke-linecap: square"/>
    </g>
    <g id="text_27">
     <!-- Model 10 -->
     <g transform="translate(460.111878 188.737187) scale(0.1 -0.1)">
      <use xlink:href="#DejaVuSans-4d"/>
      <use xlink:href="#DejaVuSans-6f" x="86.279297"/>
      <use xlink:href="#DejaVuSans-64" x="147.460938"/>
      <use xlink:href="#DejaVuSans-65" x="210.9375"/>
      <use xlink:href="#DejaVuSans-6c" x="272.460938"/>
      <use xlink:href="#DejaVuSans-20" x="300.244141"/>
      <use xlink:href="#DejaVuSans-31" x="332.03125"/>
      <use xlink:href="#DejaVuSans-30" x="395.654297"/>
     </g>
    </g>
    <g id="line2d_38">
     <path d="M 432.111878 199.915312 
L 442.111878 199.915312 
L 452.111878 199.915312 
" style="fill: none; stroke: #9edae5; stroke-width: 2; stroke-linecap: square"/>
    </g>
    <g id="text_28">
     <!-- Model 11 -->
     <g transform="translate(460.111878 203.415312) scale(0.1 -0.1)">
      <use xlink:href="#DejaVuSans-4d"/>
      <use xlink:href="#DejaVuSans-6f" x="86.279297"/>
      <use xlink:href="#DejaVuSans-64" x="147.460938"/>
      <use xlink:href="#DejaVuSans-65" x="210.9375"/>
      <use xlink:href="#DejaVuSans-6c" x="272.460938"/>
      <use xlink:href="#DejaVuSans-20" x="300.244141"/>
      <use xlink:href="#DejaVuSans-31" x="332.03125"/>
      <use xlink:href="#DejaVuSans-31" x="395.654297"/>
     </g>
    </g>
    <g id="line2d_39">
     <path d="M 432.111878 214.593437 
L 442.111878 214.593437 
L 452.111878 214.593437 
" style="fill: none; stroke: #000000; stroke-width: 3; stroke-linecap: square"/>
    </g>
    <g id="text_29">
     <!-- Mean -->
     <g transform="translate(460.111878 218.093437) scale(0.1 -0.1)">
      <use xlink:href="#DejaVuSans-4d"/>
      <use xlink:href="#DejaVuSans-65" x="86.279297"/>
      <use xlink:href="#DejaVuSans-61" x="147.802734"/>
      <use xlink:href="#DejaVuSans-6e" x="209.082031"/>
     </g>
    </g>
   </g>
  </g>
 </g>
 <defs>
  <clipPath id="p90d460f4a8">
   <rect x="59.216563" y="25.3575" width="517.982957" height="373.61452"/>
  </clipPath>
 </defs>
</svg>
