<?xml version="1.0" encoding="utf-8" standalone="no"?>
<!DOCTYPE svg PUBLIC "-//W3C//DTD SVG 1.1//EN"
  "http://www.w3.org/Graphics/SVG/1.1/DTD/svg11.dtd">
<svg xmlns:xlink="http://www.w3.org/1999/xlink" width="452.88pt" height="344.88pt" viewBox="0 0 452.88 344.88" xmlns="http://www.w3.org/2000/svg" version="1.1">
 <metadata>
  <rdf:RDF xmlns:dc="http://purl.org/dc/elements/1.1/" xmlns:cc="http://creativecommons.org/ns#" xmlns:rdf="http://www.w3.org/1999/02/22-rdf-syntax-ns#">
   <cc:Work>
    <dc:type rdf:resource="http://purl.org/dc/dcmitype/StillImage"/>
    <dc:date>2024-11-02T23:03:33.007227</dc:date>
    <dc:format>image/svg+xml</dc:format>
    <dc:creator>
     <cc:Agent>
      <dc:title>Matplotlib v3.9.2, https://matplotlib.org/</dc:title>
     </cc:Agent>
    </dc:creator>
   </cc:Work>
  </rdf:RDF>
 </metadata>
 <defs>
  <style type="text/css">*{stroke-linejoin: round; stroke-linecap: butt}</style>
 </defs>
 <g id="figure_1">
  <g id="patch_1">
   <path d="M 0 344.88 
L 452.88 344.88 
L 452.88 0 
L 0 0 
z
" style="fill: #ffffff"/>
  </g>
  <g id="axes_1">
   <g id="patch_2">
    <path d="M 58.945313 303.72375 
L 341.07142 303.72375 
L 341.07142 25.918125 
L 58.945313 25.918125 
z
" style="fill: #ffffff"/>
   </g>
   <g id="matplotlib.axis_1">
    <g id="xtick_1">
     <g id="line2d_1">
      <defs>
       <path id="m3723be51f3" d="M 0 0 
L 0 3.5 
" style="stroke: #000000; stroke-width: 0.8"/>
      </defs>
      <g>
       <use xlink:href="#m3723be51f3" x="86.637533" y="303.72375" style="stroke: #000000; stroke-width: 0.8"/>
      </g>
     </g>
     <g id="text_1">
      <!-- −30 -->
      <g transform="translate(76.085189 318.322187) scale(0.1 -0.1)">
       <defs>
        <path id="DejaVuSans-2212" d="M 678 2272 
L 4684 2272 
L 4684 1741 
L 678 1741 
L 678 2272 
z
" transform="scale(0.015625)"/>
        <path id="DejaVuSans-33" d="M 2597 2516 
Q 3050 2419 3304 2112 
Q 3559 1806 3559 1356 
Q 3559 666 3084 287 
Q 2609 -91 1734 -91 
Q 1441 -91 1130 -33 
Q 819 25 488 141 
L 488 750 
Q 750 597 1062 519 
Q 1375 441 1716 441 
Q 2309 441 2620 675 
Q 2931 909 2931 1356 
Q 2931 1769 2642 2001 
Q 2353 2234 1838 2234 
L 1294 2234 
L 1294 2753 
L 1863 2753 
Q 2328 2753 2575 2939 
Q 2822 3125 2822 3475 
Q 2822 3834 2567 4026 
Q 2313 4219 1838 4219 
Q 1578 4219 1281 4162 
Q 984 4106 628 3988 
L 628 4550 
Q 988 4650 1302 4700 
Q 1616 4750 1894 4750 
Q 2613 4750 3031 4423 
Q 3450 4097 3450 3541 
Q 3450 3153 3228 2886 
Q 3006 2619 2597 2516 
z
" transform="scale(0.015625)"/>
        <path id="DejaVuSans-30" d="M 2034 4250 
Q 1547 4250 1301 3770 
Q 1056 3291 1056 2328 
Q 1056 1369 1301 889 
Q 1547 409 2034 409 
Q 2525 409 2770 889 
Q 3016 1369 3016 2328 
Q 3016 3291 2770 3770 
Q 2525 4250 2034 4250 
z
M 2034 4750 
Q 2819 4750 3233 4129 
Q 3647 3509 3647 2328 
Q 3647 1150 3233 529 
Q 2819 -91 2034 -91 
Q 1250 -91 836 529 
Q 422 1150 422 2328 
Q 422 3509 836 4129 
Q 1250 4750 2034 4750 
z
" transform="scale(0.015625)"/>
       </defs>
       <use xlink:href="#DejaVuSans-2212"/>
       <use xlink:href="#DejaVuSans-33" x="83.789062"/>
       <use xlink:href="#DejaVuSans-30" x="147.412109"/>
      </g>
     </g>
    </g>
    <g id="xtick_2">
     <g id="line2d_2">
      <g>
       <use xlink:href="#m3723be51f3" x="123.808298" y="303.72375" style="stroke: #000000; stroke-width: 0.8"/>
      </g>
     </g>
     <g id="text_2">
      <!-- −20 -->
      <g transform="translate(113.255954 318.322187) scale(0.1 -0.1)">
       <defs>
        <path id="DejaVuSans-32" d="M 1228 531 
L 3431 531 
L 3431 0 
L 469 0 
L 469 531 
Q 828 903 1448 1529 
Q 2069 2156 2228 2338 
Q 2531 2678 2651 2914 
Q 2772 3150 2772 3378 
Q 2772 3750 2511 3984 
Q 2250 4219 1831 4219 
Q 1534 4219 1204 4116 
Q 875 4013 500 3803 
L 500 4441 
Q 881 4594 1212 4672 
Q 1544 4750 1819 4750 
Q 2544 4750 2975 4387 
Q 3406 4025 3406 3419 
Q 3406 3131 3298 2873 
Q 3191 2616 2906 2266 
Q 2828 2175 2409 1742 
Q 1991 1309 1228 531 
z
" transform="scale(0.015625)"/>
       </defs>
       <use xlink:href="#DejaVuSans-2212"/>
       <use xlink:href="#DejaVuSans-32" x="83.789062"/>
       <use xlink:href="#DejaVuSans-30" x="147.412109"/>
      </g>
     </g>
    </g>
    <g id="xtick_3">
     <g id="line2d_3">
      <g>
       <use xlink:href="#m3723be51f3" x="160.979063" y="303.72375" style="stroke: #000000; stroke-width: 0.8"/>
      </g>
     </g>
     <g id="text_3">
      <!-- −10 -->
      <g transform="translate(150.426719 318.322187) scale(0.1 -0.1)">
       <defs>
        <path id="DejaVuSans-31" d="M 794 531 
L 1825 531 
L 1825 4091 
L 703 3866 
L 703 4441 
L 1819 4666 
L 2450 4666 
L 2450 531 
L 3481 531 
L 3481 0 
L 794 0 
L 794 531 
z
" transform="scale(0.015625)"/>
       </defs>
       <use xlink:href="#DejaVuSans-2212"/>
       <use xlink:href="#DejaVuSans-31" x="83.789062"/>
       <use xlink:href="#DejaVuSans-30" x="147.412109"/>
      </g>
     </g>
    </g>
    <g id="xtick_4">
     <g id="line2d_4">
      <g>
       <use xlink:href="#m3723be51f3" x="198.149828" y="303.72375" style="stroke: #000000; stroke-width: 0.8"/>
      </g>
     </g>
     <g id="text_4">
      <!-- 0 -->
      <g transform="translate(194.968578 318.322187) scale(0.1 -0.1)">
       <use xlink:href="#DejaVuSans-30"/>
      </g>
     </g>
    </g>
    <g id="xtick_5">
     <g id="line2d_5">
      <g>
       <use xlink:href="#m3723be51f3" x="235.320593" y="303.72375" style="stroke: #000000; stroke-width: 0.8"/>
      </g>
     </g>
     <g id="text_5">
      <!-- 10 -->
      <g transform="translate(228.958093 318.322187) scale(0.1 -0.1)">
       <use xlink:href="#DejaVuSans-31"/>
       <use xlink:href="#DejaVuSans-30" x="63.623047"/>
      </g>
     </g>
    </g>
    <g id="xtick_6">
     <g id="line2d_6">
      <g>
       <use xlink:href="#m3723be51f3" x="272.491359" y="303.72375" style="stroke: #000000; stroke-width: 0.8"/>
      </g>
     </g>
     <g id="text_6">
      <!-- 20 -->
      <g transform="translate(266.128859 318.322187) scale(0.1 -0.1)">
       <use xlink:href="#DejaVuSans-32"/>
       <use xlink:href="#DejaVuSans-30" x="63.623047"/>
      </g>
     </g>
    </g>
    <g id="xtick_7">
     <g id="line2d_7">
      <g>
       <use xlink:href="#m3723be51f3" x="309.662124" y="303.72375" style="stroke: #000000; stroke-width: 0.8"/>
      </g>
     </g>
     <g id="text_7">
      <!-- 30 -->
      <g transform="translate(303.299624 318.322187) scale(0.1 -0.1)">
       <use xlink:href="#DejaVuSans-33"/>
       <use xlink:href="#DejaVuSans-30" x="63.623047"/>
      </g>
     </g>
    </g>
    <g id="text_8">
     <!-- Latitude -->
     <g transform="translate(179.42946 332.000313) scale(0.1 -0.1)">
      <defs>
       <path id="DejaVuSans-4c" d="M 628 4666 
L 1259 4666 
L 1259 531 
L 3531 531 
L 3531 0 
L 628 0 
L 628 4666 
z
" transform="scale(0.015625)"/>
       <path id="DejaVuSans-61" d="M 2194 1759 
Q 1497 1759 1228 1600 
Q 959 1441 959 1056 
Q 959 750 1161 570 
Q 1363 391 1709 391 
Q 2188 391 2477 730 
Q 2766 1069 2766 1631 
L 2766 1759 
L 2194 1759 
z
M 3341 1997 
L 3341 0 
L 2766 0 
L 2766 531 
Q 2569 213 2275 61 
Q 1981 -91 1556 -91 
Q 1019 -91 701 211 
Q 384 513 384 1019 
Q 384 1609 779 1909 
Q 1175 2209 1959 2209 
L 2766 2209 
L 2766 2266 
Q 2766 2663 2505 2880 
Q 2244 3097 1772 3097 
Q 1472 3097 1187 3025 
Q 903 2953 641 2809 
L 641 3341 
Q 956 3463 1253 3523 
Q 1550 3584 1831 3584 
Q 2591 3584 2966 3190 
Q 3341 2797 3341 1997 
z
" transform="scale(0.015625)"/>
       <path id="DejaVuSans-74" d="M 1172 4494 
L 1172 3500 
L 2356 3500 
L 2356 3053 
L 1172 3053 
L 1172 1153 
Q 1172 725 1289 603 
Q 1406 481 1766 481 
L 2356 481 
L 2356 0 
L 1766 0 
Q 1100 0 847 248 
Q 594 497 594 1153 
L 594 3053 
L 172 3053 
L 172 3500 
L 594 3500 
L 594 4494 
L 1172 4494 
z
" transform="scale(0.015625)"/>
       <path id="DejaVuSans-69" d="M 603 3500 
L 1178 3500 
L 1178 0 
L 603 0 
L 603 3500 
z
M 603 4863 
L 1178 4863 
L 1178 4134 
L 603 4134 
L 603 4863 
z
" transform="scale(0.015625)"/>
       <path id="DejaVuSans-75" d="M 544 1381 
L 544 3500 
L 1119 3500 
L 1119 1403 
Q 1119 906 1312 657 
Q 1506 409 1894 409 
Q 2359 409 2629 706 
Q 2900 1003 2900 1516 
L 2900 3500 
L 3475 3500 
L 3475 0 
L 2900 0 
L 2900 538 
Q 2691 219 2414 64 
Q 2138 -91 1772 -91 
Q 1169 -91 856 284 
Q 544 659 544 1381 
z
M 1991 3584 
L 1991 3584 
z
" transform="scale(0.015625)"/>
       <path id="DejaVuSans-64" d="M 2906 2969 
L 2906 4863 
L 3481 4863 
L 3481 0 
L 2906 0 
L 2906 525 
Q 2725 213 2448 61 
Q 2172 -91 1784 -91 
Q 1150 -91 751 415 
Q 353 922 353 1747 
Q 353 2572 751 3078 
Q 1150 3584 1784 3584 
Q 2172 3584 2448 3432 
Q 2725 3281 2906 2969 
z
M 947 1747 
Q 947 1113 1208 752 
Q 1469 391 1925 391 
Q 2381 391 2643 752 
Q 2906 1113 2906 1747 
Q 2906 2381 2643 2742 
Q 2381 3103 1925 3103 
Q 1469 3103 1208 2742 
Q 947 2381 947 1747 
z
" transform="scale(0.015625)"/>
       <path id="DejaVuSans-65" d="M 3597 1894 
L 3597 1613 
L 953 1613 
Q 991 1019 1311 708 
Q 1631 397 2203 397 
Q 2534 397 2845 478 
Q 3156 559 3463 722 
L 3463 178 
Q 3153 47 2828 -22 
Q 2503 -91 2169 -91 
Q 1331 -91 842 396 
Q 353 884 353 1716 
Q 353 2575 817 3079 
Q 1281 3584 2069 3584 
Q 2775 3584 3186 3129 
Q 3597 2675 3597 1894 
z
M 3022 2063 
Q 3016 2534 2758 2815 
Q 2500 3097 2075 3097 
Q 1594 3097 1305 2825 
Q 1016 2553 972 2059 
L 3022 2063 
z
" transform="scale(0.015625)"/>
      </defs>
      <use xlink:href="#DejaVuSans-4c"/>
      <use xlink:href="#DejaVuSans-61" x="55.712891"/>
      <use xlink:href="#DejaVuSans-74" x="116.992188"/>
      <use xlink:href="#DejaVuSans-69" x="156.201172"/>
      <use xlink:href="#DejaVuSans-74" x="183.984375"/>
      <use xlink:href="#DejaVuSans-75" x="223.193359"/>
      <use xlink:href="#DejaVuSans-64" x="286.572266"/>
      <use xlink:href="#DejaVuSans-65" x="350.048828"/>
     </g>
    </g>
   </g>
   <g id="matplotlib.axis_2">
    <g id="ytick_1">
     <g id="line2d_8">
      <defs>
       <path id="ma1b055c39c" d="M 0 0 
L -3.5 0 
" style="stroke: #000000; stroke-width: 0.8"/>
      </defs>
      <g>
       <use xlink:href="#ma1b055c39c" x="58.945313" y="295.321682" style="stroke: #000000; stroke-width: 0.8"/>
      </g>
     </g>
     <g id="text_9">
      <!-- −100 -->
      <g transform="translate(24.478125 299.120901) scale(0.1 -0.1)">
       <use xlink:href="#DejaVuSans-2212"/>
       <use xlink:href="#DejaVuSans-31" x="83.789062"/>
       <use xlink:href="#DejaVuSans-30" x="147.412109"/>
       <use xlink:href="#DejaVuSans-30" x="211.035156"/>
      </g>
     </g>
    </g>
    <g id="ytick_2">
     <g id="line2d_9">
      <g>
       <use xlink:href="#ma1b055c39c" x="58.945313" y="247.749031" style="stroke: #000000; stroke-width: 0.8"/>
      </g>
     </g>
     <g id="text_10">
      <!-- −80 -->
      <g transform="translate(30.840625 251.54825) scale(0.1 -0.1)">
       <defs>
        <path id="DejaVuSans-38" d="M 2034 2216 
Q 1584 2216 1326 1975 
Q 1069 1734 1069 1313 
Q 1069 891 1326 650 
Q 1584 409 2034 409 
Q 2484 409 2743 651 
Q 3003 894 3003 1313 
Q 3003 1734 2745 1975 
Q 2488 2216 2034 2216 
z
M 1403 2484 
Q 997 2584 770 2862 
Q 544 3141 544 3541 
Q 544 4100 942 4425 
Q 1341 4750 2034 4750 
Q 2731 4750 3128 4425 
Q 3525 4100 3525 3541 
Q 3525 3141 3298 2862 
Q 3072 2584 2669 2484 
Q 3125 2378 3379 2068 
Q 3634 1759 3634 1313 
Q 3634 634 3220 271 
Q 2806 -91 2034 -91 
Q 1263 -91 848 271 
Q 434 634 434 1313 
Q 434 1759 690 2068 
Q 947 2378 1403 2484 
z
M 1172 3481 
Q 1172 3119 1398 2916 
Q 1625 2713 2034 2713 
Q 2441 2713 2670 2916 
Q 2900 3119 2900 3481 
Q 2900 3844 2670 4047 
Q 2441 4250 2034 4250 
Q 1625 4250 1398 4047 
Q 1172 3844 1172 3481 
z
" transform="scale(0.015625)"/>
       </defs>
       <use xlink:href="#DejaVuSans-2212"/>
       <use xlink:href="#DejaVuSans-38" x="83.789062"/>
       <use xlink:href="#DejaVuSans-30" x="147.412109"/>
      </g>
     </g>
    </g>
    <g id="ytick_3">
     <g id="line2d_10">
      <g>
       <use xlink:href="#ma1b055c39c" x="58.945313" y="200.17638" style="stroke: #000000; stroke-width: 0.8"/>
      </g>
     </g>
     <g id="text_11">
      <!-- −60 -->
      <g transform="translate(30.840625 203.975599) scale(0.1 -0.1)">
       <defs>
        <path id="DejaVuSans-36" d="M 2113 2584 
Q 1688 2584 1439 2293 
Q 1191 2003 1191 1497 
Q 1191 994 1439 701 
Q 1688 409 2113 409 
Q 2538 409 2786 701 
Q 3034 994 3034 1497 
Q 3034 2003 2786 2293 
Q 2538 2584 2113 2584 
z
M 3366 4563 
L 3366 3988 
Q 3128 4100 2886 4159 
Q 2644 4219 2406 4219 
Q 1781 4219 1451 3797 
Q 1122 3375 1075 2522 
Q 1259 2794 1537 2939 
Q 1816 3084 2150 3084 
Q 2853 3084 3261 2657 
Q 3669 2231 3669 1497 
Q 3669 778 3244 343 
Q 2819 -91 2113 -91 
Q 1303 -91 875 529 
Q 447 1150 447 2328 
Q 447 3434 972 4092 
Q 1497 4750 2381 4750 
Q 2619 4750 2861 4703 
Q 3103 4656 3366 4563 
z
" transform="scale(0.015625)"/>
       </defs>
       <use xlink:href="#DejaVuSans-2212"/>
       <use xlink:href="#DejaVuSans-36" x="83.789062"/>
       <use xlink:href="#DejaVuSans-30" x="147.412109"/>
      </g>
     </g>
    </g>
    <g id="ytick_4">
     <g id="line2d_11">
      <g>
       <use xlink:href="#ma1b055c39c" x="58.945313" y="152.603729" style="stroke: #000000; stroke-width: 0.8"/>
      </g>
     </g>
     <g id="text_12">
      <!-- −40 -->
      <g transform="translate(30.840625 156.402947) scale(0.1 -0.1)">
       <defs>
        <path id="DejaVuSans-34" d="M 2419 4116 
L 825 1625 
L 2419 1625 
L 2419 4116 
z
M 2253 4666 
L 3047 4666 
L 3047 1625 
L 3713 1625 
L 3713 1100 
L 3047 1100 
L 3047 0 
L 2419 0 
L 2419 1100 
L 313 1100 
L 313 1709 
L 2253 4666 
z
" transform="scale(0.015625)"/>
       </defs>
       <use xlink:href="#DejaVuSans-2212"/>
       <use xlink:href="#DejaVuSans-34" x="83.789062"/>
       <use xlink:href="#DejaVuSans-30" x="147.412109"/>
      </g>
     </g>
    </g>
    <g id="ytick_5">
     <g id="line2d_12">
      <g>
       <use xlink:href="#ma1b055c39c" x="58.945313" y="105.031078" style="stroke: #000000; stroke-width: 0.8"/>
      </g>
     </g>
     <g id="text_13">
      <!-- −20 -->
      <g transform="translate(30.840625 108.830296) scale(0.1 -0.1)">
       <use xlink:href="#DejaVuSans-2212"/>
       <use xlink:href="#DejaVuSans-32" x="83.789062"/>
       <use xlink:href="#DejaVuSans-30" x="147.412109"/>
      </g>
     </g>
    </g>
    <g id="ytick_6">
     <g id="line2d_13">
      <g>
       <use xlink:href="#ma1b055c39c" x="58.945313" y="57.458427" style="stroke: #000000; stroke-width: 0.8"/>
      </g>
     </g>
     <g id="text_14">
      <!-- 0 -->
      <g transform="translate(45.582813 61.257645) scale(0.1 -0.1)">
       <use xlink:href="#DejaVuSans-30"/>
      </g>
     </g>
    </g>
    <g id="text_15">
     <!-- Average Coral Cover Change Rate (%) -->
     <g transform="translate(18.398438 260.259219) rotate(-90) scale(0.1 -0.1)">
      <defs>
       <path id="DejaVuSans-41" d="M 2188 4044 
L 1331 1722 
L 3047 1722 
L 2188 4044 
z
M 1831 4666 
L 2547 4666 
L 4325 0 
L 3669 0 
L 3244 1197 
L 1141 1197 
L 716 0 
L 50 0 
L 1831 4666 
z
" transform="scale(0.015625)"/>
       <path id="DejaVuSans-76" d="M 191 3500 
L 800 3500 
L 1894 563 
L 2988 3500 
L 3597 3500 
L 2284 0 
L 1503 0 
L 191 3500 
z
" transform="scale(0.015625)"/>
       <path id="DejaVuSans-72" d="M 2631 2963 
Q 2534 3019 2420 3045 
Q 2306 3072 2169 3072 
Q 1681 3072 1420 2755 
Q 1159 2438 1159 1844 
L 1159 0 
L 581 0 
L 581 3500 
L 1159 3500 
L 1159 2956 
Q 1341 3275 1631 3429 
Q 1922 3584 2338 3584 
Q 2397 3584 2469 3576 
Q 2541 3569 2628 3553 
L 2631 2963 
z
" transform="scale(0.015625)"/>
       <path id="DejaVuSans-67" d="M 2906 1791 
Q 2906 2416 2648 2759 
Q 2391 3103 1925 3103 
Q 1463 3103 1205 2759 
Q 947 2416 947 1791 
Q 947 1169 1205 825 
Q 1463 481 1925 481 
Q 2391 481 2648 825 
Q 2906 1169 2906 1791 
z
M 3481 434 
Q 3481 -459 3084 -895 
Q 2688 -1331 1869 -1331 
Q 1566 -1331 1297 -1286 
Q 1028 -1241 775 -1147 
L 775 -588 
Q 1028 -725 1275 -790 
Q 1522 -856 1778 -856 
Q 2344 -856 2625 -561 
Q 2906 -266 2906 331 
L 2906 616 
Q 2728 306 2450 153 
Q 2172 0 1784 0 
Q 1141 0 747 490 
Q 353 981 353 1791 
Q 353 2603 747 3093 
Q 1141 3584 1784 3584 
Q 2172 3584 2450 3431 
Q 2728 3278 2906 2969 
L 2906 3500 
L 3481 3500 
L 3481 434 
z
" transform="scale(0.015625)"/>
       <path id="DejaVuSans-20" transform="scale(0.015625)"/>
       <path id="DejaVuSans-43" d="M 4122 4306 
L 4122 3641 
Q 3803 3938 3442 4084 
Q 3081 4231 2675 4231 
Q 1875 4231 1450 3742 
Q 1025 3253 1025 2328 
Q 1025 1406 1450 917 
Q 1875 428 2675 428 
Q 3081 428 3442 575 
Q 3803 722 4122 1019 
L 4122 359 
Q 3791 134 3420 21 
Q 3050 -91 2638 -91 
Q 1578 -91 968 557 
Q 359 1206 359 2328 
Q 359 3453 968 4101 
Q 1578 4750 2638 4750 
Q 3056 4750 3426 4639 
Q 3797 4528 4122 4306 
z
" transform="scale(0.015625)"/>
       <path id="DejaVuSans-6f" d="M 1959 3097 
Q 1497 3097 1228 2736 
Q 959 2375 959 1747 
Q 959 1119 1226 758 
Q 1494 397 1959 397 
Q 2419 397 2687 759 
Q 2956 1122 2956 1747 
Q 2956 2369 2687 2733 
Q 2419 3097 1959 3097 
z
M 1959 3584 
Q 2709 3584 3137 3096 
Q 3566 2609 3566 1747 
Q 3566 888 3137 398 
Q 2709 -91 1959 -91 
Q 1206 -91 779 398 
Q 353 888 353 1747 
Q 353 2609 779 3096 
Q 1206 3584 1959 3584 
z
" transform="scale(0.015625)"/>
       <path id="DejaVuSans-6c" d="M 603 4863 
L 1178 4863 
L 1178 0 
L 603 0 
L 603 4863 
z
" transform="scale(0.015625)"/>
       <path id="DejaVuSans-68" d="M 3513 2113 
L 3513 0 
L 2938 0 
L 2938 2094 
Q 2938 2591 2744 2837 
Q 2550 3084 2163 3084 
Q 1697 3084 1428 2787 
Q 1159 2491 1159 1978 
L 1159 0 
L 581 0 
L 581 4863 
L 1159 4863 
L 1159 2956 
Q 1366 3272 1645 3428 
Q 1925 3584 2291 3584 
Q 2894 3584 3203 3211 
Q 3513 2838 3513 2113 
z
" transform="scale(0.015625)"/>
       <path id="DejaVuSans-6e" d="M 3513 2113 
L 3513 0 
L 2938 0 
L 2938 2094 
Q 2938 2591 2744 2837 
Q 2550 3084 2163 3084 
Q 1697 3084 1428 2787 
Q 1159 2491 1159 1978 
L 1159 0 
L 581 0 
L 581 3500 
L 1159 3500 
L 1159 2956 
Q 1366 3272 1645 3428 
Q 1925 3584 2291 3584 
Q 2894 3584 3203 3211 
Q 3513 2838 3513 2113 
z
" transform="scale(0.015625)"/>
       <path id="DejaVuSans-52" d="M 2841 2188 
Q 3044 2119 3236 1894 
Q 3428 1669 3622 1275 
L 4263 0 
L 3584 0 
L 2988 1197 
Q 2756 1666 2539 1819 
Q 2322 1972 1947 1972 
L 1259 1972 
L 1259 0 
L 628 0 
L 628 4666 
L 2053 4666 
Q 2853 4666 3247 4331 
Q 3641 3997 3641 3322 
Q 3641 2881 3436 2590 
Q 3231 2300 2841 2188 
z
M 1259 4147 
L 1259 2491 
L 2053 2491 
Q 2509 2491 2742 2702 
Q 2975 2913 2975 3322 
Q 2975 3731 2742 3939 
Q 2509 4147 2053 4147 
L 1259 4147 
z
" transform="scale(0.015625)"/>
       <path id="DejaVuSans-28" d="M 1984 4856 
Q 1566 4138 1362 3434 
Q 1159 2731 1159 2009 
Q 1159 1288 1364 580 
Q 1569 -128 1984 -844 
L 1484 -844 
Q 1016 -109 783 600 
Q 550 1309 550 2009 
Q 550 2706 781 3412 
Q 1013 4119 1484 4856 
L 1984 4856 
z
" transform="scale(0.015625)"/>
       <path id="DejaVuSans-25" d="M 4653 2053 
Q 4381 2053 4226 1822 
Q 4072 1591 4072 1178 
Q 4072 772 4226 539 
Q 4381 306 4653 306 
Q 4919 306 5073 539 
Q 5228 772 5228 1178 
Q 5228 1588 5073 1820 
Q 4919 2053 4653 2053 
z
M 4653 2450 
Q 5147 2450 5437 2106 
Q 5728 1763 5728 1178 
Q 5728 594 5436 251 
Q 5144 -91 4653 -91 
Q 4153 -91 3862 251 
Q 3572 594 3572 1178 
Q 3572 1766 3864 2108 
Q 4156 2450 4653 2450 
z
M 1428 4353 
Q 1159 4353 1004 4120 
Q 850 3888 850 3481 
Q 850 3069 1003 2837 
Q 1156 2606 1428 2606 
Q 1700 2606 1854 2837 
Q 2009 3069 2009 3481 
Q 2009 3884 1853 4118 
Q 1697 4353 1428 4353 
z
M 4250 4750 
L 4750 4750 
L 1831 -91 
L 1331 -91 
L 4250 4750 
z
M 1428 4750 
Q 1922 4750 2215 4408 
Q 2509 4066 2509 3481 
Q 2509 2891 2217 2550 
Q 1925 2209 1428 2209 
Q 931 2209 642 2551 
Q 353 2894 353 3481 
Q 353 4063 643 4406 
Q 934 4750 1428 4750 
z
" transform="scale(0.015625)"/>
       <path id="DejaVuSans-29" d="M 513 4856 
L 1013 4856 
Q 1481 4119 1714 3412 
Q 1947 2706 1947 2009 
Q 1947 1309 1714 600 
Q 1481 -109 1013 -844 
L 513 -844 
Q 928 -128 1133 580 
Q 1338 1288 1338 2009 
Q 1338 2731 1133 3434 
Q 928 4138 513 4856 
z
" transform="scale(0.015625)"/>
      </defs>
      <use xlink:href="#DejaVuSans-41"/>
      <use xlink:href="#DejaVuSans-76" x="62.533203"/>
      <use xlink:href="#DejaVuSans-65" x="121.712891"/>
      <use xlink:href="#DejaVuSans-72" x="183.236328"/>
      <use xlink:href="#DejaVuSans-61" x="224.349609"/>
      <use xlink:href="#DejaVuSans-67" x="285.628906"/>
      <use xlink:href="#DejaVuSans-65" x="349.105469"/>
      <use xlink:href="#DejaVuSans-20" x="410.628906"/>
      <use xlink:href="#DejaVuSans-43" x="442.416016"/>
      <use xlink:href="#DejaVuSans-6f" x="512.240234"/>
      <use xlink:href="#DejaVuSans-72" x="573.421875"/>
      <use xlink:href="#DejaVuSans-61" x="614.535156"/>
      <use xlink:href="#DejaVuSans-6c" x="675.814453"/>
      <use xlink:href="#DejaVuSans-20" x="703.597656"/>
      <use xlink:href="#DejaVuSans-43" x="735.384766"/>
      <use xlink:href="#DejaVuSans-6f" x="805.208984"/>
      <use xlink:href="#DejaVuSans-76" x="866.390625"/>
      <use xlink:href="#DejaVuSans-65" x="925.570312"/>
      <use xlink:href="#DejaVuSans-72" x="987.09375"/>
      <use xlink:href="#DejaVuSans-20" x="1028.207031"/>
      <use xlink:href="#DejaVuSans-43" x="1059.994141"/>
      <use xlink:href="#DejaVuSans-68" x="1129.818359"/>
      <use xlink:href="#DejaVuSans-61" x="1193.197266"/>
      <use xlink:href="#DejaVuSans-6e" x="1254.476562"/>
      <use xlink:href="#DejaVuSans-67" x="1317.855469"/>
      <use xlink:href="#DejaVuSans-65" x="1381.332031"/>
      <use xlink:href="#DejaVuSans-20" x="1442.855469"/>
      <use xlink:href="#DejaVuSans-52" x="1474.642578"/>
      <use xlink:href="#DejaVuSans-61" x="1541.875"/>
      <use xlink:href="#DejaVuSans-74" x="1603.154297"/>
      <use xlink:href="#DejaVuSans-65" x="1642.363281"/>
      <use xlink:href="#DejaVuSans-20" x="1703.886719"/>
      <use xlink:href="#DejaVuSans-28" x="1735.673828"/>
      <use xlink:href="#DejaVuSans-25" x="1774.6875"/>
      <use xlink:href="#DejaVuSans-29" x="1869.707031"/>
     </g>
    </g>
   </g>
   <g id="line2d_14">
    <path d="M 75.486303 113.10618 
L 79.20338 205.695443 
L 82.920456 254.169915 
L 86.637533 240.749686 
L 90.354609 289.327275 
L 94.071686 291.096222 
L 97.788762 290.645786 
L 101.505839 284.980394 
L 105.222915 287.497179 
L 108.939992 277.971089 
L 112.657068 284.668506 
L 116.374145 278.376659 
L 120.091221 274.720263 
L 123.808298 276.389109 
L 127.525374 265.500861 
L 131.242451 266.921643 
L 134.959527 267.342141 
L 138.676604 272.028409 
L 142.39368 273.219305 
L 146.110757 270.748624 
L 149.827833 272.565361 
L 153.54491 268.104717 
L 157.261986 258.805648 
L 160.979063 254.972049 
L 164.696139 259.73851 
L 168.413216 261.86116 
L 172.130293 257.626467 
L 175.847369 254.352261 
L 179.564446 264.481058 
L 183.281522 267.816185 
L 186.998599 248.442592 
L 190.715675 249.938859 
L 194.432752 244.125959 
L 198.149828 248.178935 
L 201.866905 252.124155 
L 205.583981 255.783345 
L 209.301058 260.1496 
L 213.018134 251.9595 
L 216.735211 252.764331 
L 220.452287 260.717245 
L 224.169364 256.37915 
L 227.88644 261.691312 
L 231.603517 269.734056 
L 235.320593 268.176093 
L 239.03767 269.571584 
L 242.754746 271.086432 
L 246.471823 273.712493 
L 250.188899 274.167655 
L 253.905976 276.439498 
L 257.623052 268.415623 
L 261.340129 256.84911 
L 265.057206 258.352383 
L 268.774282 267.646465 
L 272.491359 269.876209 
L 276.208435 258.630149 
L 279.925512 245.370342 
L 283.642588 235.228465 
L 287.359665 255.096909 
L 291.076741 250.912552 
L 294.793818 275.456019 
L 298.510894 274.444032 
L 302.227971 265.947338 
L 305.945047 280.310189 
L 309.662124 288.931748 
L 313.3792 160.358448 
L 317.096277 201.852201 
L 320.813353 201.921215 
L 324.53043 255.704181 
L 328.247506 238.235661 
" clip-path="url(#p6256e5012c)" style="fill: none; stroke: #1f77b4; stroke-width: 1.5; stroke-linecap: square"/>
   </g>
   <g id="line2d_15">
    <path d="M 75.486303 78.906973 
L 79.20338 180.804564 
L 82.920456 223.768381 
L 86.637533 211.935223 
L 90.354609 284.342599 
L 94.071686 288.139976 
L 97.788762 286.703191 
L 101.505839 280.665863 
L 105.222915 280.447136 
L 108.939992 276.335983 
L 112.657068 280.494112 
L 116.374145 272.627118 
L 120.091221 267.484756 
L 123.808298 270.42334 
L 127.525374 256.150227 
L 131.242451 260.425506 
L 134.959527 265.17863 
L 138.676604 274.942617 
L 142.39368 269.81436 
L 146.110757 262.891994 
L 149.827833 261.951236 
L 153.54491 259.206669 
L 157.261986 254.798125 
L 160.979063 252.675213 
L 164.696139 254.150886 
L 168.413216 256.309112 
L 172.130293 255.892259 
L 175.847369 253.031486 
L 179.564446 264.045484 
L 183.281522 265.036581 
L 186.998599 239.800862 
L 190.715675 237.900743 
L 194.432752 232.436554 
L 198.149828 238.733845 
L 201.866905 247.061801 
L 205.583981 252.399338 
L 209.301058 257.711879 
L 213.018134 246.117274 
L 216.735211 249.525318 
L 220.452287 256.461203 
L 224.169364 248.585248 
L 227.88644 256.235901 
L 231.603517 263.85683 
L 235.320593 262.933419 
L 239.03767 265.81499 
L 242.754746 267.753042 
L 246.471823 268.466289 
L 250.188899 267.194096 
L 253.905976 271.884701 
L 257.623052 261.977385 
L 261.340129 251.584588 
L 265.057206 254.630899 
L 268.774282 264.257004 
L 272.491359 268.215361 
L 276.208435 257.305214 
L 279.925512 246.155411 
L 283.642588 237.454571 
L 287.359665 259.213563 
L 291.076741 255.882831 
L 294.793818 280.326708 
L 298.510894 276.606171 
L 302.227971 266.545536 
L 305.945047 278.622311 
L 309.662124 243.933148 
L 313.3792 145.785991 
L 317.096277 212.647206 
L 320.813353 216.479628 
L 324.53043 236.089378 
L 328.247506 232.326561 
" clip-path="url(#p6256e5012c)" style="fill: none; stroke: #aec7e8; stroke-width: 1.5; stroke-linecap: square"/>
   </g>
   <g id="line2d_16">
    <path d="M 75.486303 76.236025 
L 79.20338 161.851761 
L 82.920456 156.221442 
L 86.637533 168.845175 
L 90.354609 237.158753 
L 94.071686 276.089038 
L 97.788762 222.434061 
L 101.505839 236.566799 
L 105.222915 261.690994 
L 108.939992 269.945389 
L 112.657068 274.29017 
L 116.374145 270.808383 
L 120.091221 265.740071 
L 123.808298 270.010904 
L 127.525374 260.782986 
L 131.242451 265.639547 
L 134.959527 262.916363 
L 138.676604 261.294575 
L 142.39368 261.825797 
L 146.110757 260.26124 
L 149.827833 260.804338 
L 153.54491 259.655352 
L 157.261986 256.442463 
L 160.979063 257.640252 
L 164.696139 260.391198 
L 168.413216 261.856345 
L 172.130293 258.753514 
L 175.847369 254.945883 
L 179.564446 264.393763 
L 183.281522 267.382094 
L 186.998599 253.736319 
L 190.715675 252.819388 
L 194.432752 243.05615 
L 198.149828 248.281899 
L 201.866905 253.333626 
L 205.583981 257.119743 
L 209.301058 264.232934 
L 213.018134 255.563499 
L 216.735211 257.739148 
L 220.452287 262.955699 
L 224.169364 253.803243 
L 227.88644 265.191549 
L 231.603517 275.21605 
L 235.320593 275.32728 
L 239.03767 278.87781 
L 242.754746 281.61189 
L 246.471823 281.397985 
L 250.188899 283.338073 
L 253.905976 285.029663 
L 257.623052 279.865068 
L 261.340129 277.483857 
L 265.057206 279.272145 
L 268.774282 284.767305 
L 272.491359 282.989118 
L 276.208435 278.382205 
L 279.925512 273.086519 
L 283.642588 264.203172 
L 287.359665 274.915726 
L 291.076741 266.534455 
L 294.793818 287.451683 
L 298.510894 288.036575 
L 302.227971 272.534489 
L 305.945047 270.600564 
L 309.662124 290.761624 
L 313.3792 189.635447 
L 317.096277 230.510141 
L 320.813353 267.885263 
L 324.53043 198.997659 
L 328.247506 99.536212 
" clip-path="url(#p6256e5012c)" style="fill: none; stroke: #ffbb78; stroke-width: 1.5; stroke-linecap: square"/>
   </g>
   <g id="line2d_17">
    <path d="M 75.486303 65.333371 
L 79.20338 138.094065 
L 82.920456 129.160138 
L 86.637533 162.300184 
L 90.354609 253.153445 
L 94.071686 278.513628 
L 97.788762 260.051768 
L 101.505839 254.838095 
L 105.222915 264.449774 
L 108.939992 274.240349 
L 112.657068 279.683265 
L 116.374145 277.380911 
L 120.091221 274.668682 
L 123.808298 275.770536 
L 127.525374 260.260518 
L 131.242451 264.89198 
L 134.959527 263.10782 
L 138.676604 266.306478 
L 142.39368 263.116268 
L 146.110757 257.049602 
L 149.827833 251.311341 
L 153.54491 254.556846 
L 157.261986 248.803442 
L 160.979063 248.176017 
L 164.696139 244.683742 
L 168.413216 246.864296 
L 172.130293 240.836632 
L 175.847369 233.98962 
L 179.564446 244.659718 
L 183.281522 248.9321 
L 186.998599 230.748601 
L 190.715675 230.331845 
L 194.432752 222.446637 
L 198.149828 231.16065 
L 201.866905 239.156958 
L 205.583981 239.099549 
L 209.301058 246.311438 
L 213.018134 240.283545 
L 216.735211 239.571075 
L 220.452287 245.748921 
L 224.169364 245.784134 
L 227.88644 255.611799 
L 231.603517 259.628731 
L 235.320593 257.982492 
L 239.03767 255.28233 
L 242.754746 254.158711 
L 246.471823 254.372724 
L 250.188899 255.920596 
L 253.905976 265.036529 
L 257.623052 261.250145 
L 261.340129 257.390681 
L 265.057206 260.120569 
L 268.774282 268.68301 
L 272.491359 271.770326 
L 276.208435 250.477227 
L 279.925512 261.135667 
L 283.642588 262.975599 
L 287.359665 276.957831 
L 291.076741 258.831824 
L 294.793818 288.138747 
L 298.510894 277.100614 
L 302.227971 265.181796 
L 305.945047 284.744957 
L 309.662124 246.295788 
L 313.3792 193.906544 
L 317.096277 273.080338 
L 320.813353 249.351488 
L 324.53043 267.16604 
L 328.247506 235.362356 
" clip-path="url(#p6256e5012c)" style="fill: none; stroke: #98df8a; stroke-width: 1.5; stroke-linecap: square"/>
   </g>
   <g id="line2d_18">
    <path d="M 75.486303 73.389437 
L 79.20338 137.187545 
L 82.920456 118.309413 
L 86.637533 142.349902 
L 90.354609 243.868005 
L 94.071686 257.867557 
L 97.788762 263.29634 
L 101.505839 248.641597 
L 105.222915 246.783413 
L 108.939992 244.372511 
L 112.657068 257.386075 
L 116.374145 250.30296 
L 120.091221 254.674964 
L 123.808298 259.351241 
L 127.525374 247.577611 
L 131.242451 251.068249 
L 134.959527 252.840681 
L 138.676604 261.932511 
L 142.39368 258.557416 
L 146.110757 245.813135 
L 149.827833 246.52719 
L 153.54491 245.599004 
L 157.261986 240.747935 
L 160.979063 236.609146 
L 164.696139 237.789838 
L 168.413216 236.644215 
L 172.130293 228.211883 
L 175.847369 219.271642 
L 179.564446 232.548858 
L 183.281522 234.126118 
L 186.998599 211.096197 
L 190.715675 213.118361 
L 194.432752 205.889373 
L 198.149828 216.378353 
L 201.866905 224.998235 
L 205.583981 233.275767 
L 209.301058 241.993944 
L 213.018134 236.225026 
L 216.735211 236.958224 
L 220.452287 244.900303 
L 224.169364 236.330894 
L 227.88644 247.782083 
L 231.603517 258.006406 
L 235.320593 256.454645 
L 239.03767 256.445253 
L 242.754746 254.727026 
L 246.471823 256.009846 
L 250.188899 257.995243 
L 253.905976 270.261795 
L 257.623052 262.629124 
L 261.340129 257.847329 
L 265.057206 257.267258 
L 268.774282 266.674897 
L 272.491359 267.902409 
L 276.208435 255.833909 
L 279.925512 266.331623 
L 283.642588 262.513734 
L 287.359665 280.513355 
L 291.076741 264.404637 
L 294.793818 288.937669 
L 298.510894 287.869933 
L 302.227971 273.588768 
L 305.945047 262.686748 
L 309.662124 229.722379 
L 313.3792 163.175402 
L 317.096277 211.006 
L 320.813353 223.474781 
L 324.53043 250.912147 
L 328.247506 222.519345 
" clip-path="url(#p6256e5012c)" style="fill: none; stroke: #ff9896; stroke-width: 1.5; stroke-linecap: square"/>
   </g>
   <g id="line2d_19">
    <path d="M 71.769226 77.810264 
L 75.486303 65.512519 
L 79.20338 121.147026 
L 82.920456 87.678135 
L 86.637533 91.890418 
L 90.354609 184.518473 
L 94.071686 220.194179 
L 97.788762 206.011501 
L 101.505839 209.88925 
L 105.222915 204.230015 
L 108.939992 199.105417 
L 112.657068 218.343904 
L 116.374145 201.129097 
L 120.091221 210.403039 
L 123.808298 218.183558 
L 127.525374 202.076405 
L 131.242451 208.107084 
L 134.959527 211.006543 
L 138.676604 220.74087 
L 142.39368 218.639149 
L 146.110757 207.602337 
L 149.827833 204.093477 
L 153.54491 211.868261 
L 157.261986 200.826675 
L 160.979063 201.698645 
L 164.696139 194.637423 
L 168.413216 188.609627 
L 172.130293 176.959592 
L 175.847369 166.82839 
L 179.564446 174.301355 
L 183.281522 169.529881 
L 186.998599 148.387063 
L 190.715675 150.606218 
L 194.432752 146.549656 
L 198.149828 164.705325 
L 201.866905 171.566662 
L 205.583981 181.761986 
L 209.301058 197.798706 
L 213.018134 183.966044 
L 216.735211 183.345596 
L 220.452287 189.261544 
L 224.169364 190.428228 
L 227.88644 211.610029 
L 231.603517 216.111404 
L 235.320593 213.810145 
L 239.03767 214.838544 
L 242.754746 211.488247 
L 246.471823 216.013988 
L 250.188899 223.48739 
L 253.905976 233.491704 
L 257.623052 217.061455 
L 261.340129 197.854918 
L 265.057206 209.945985 
L 268.774282 222.873859 
L 272.491359 241.740596 
L 276.208435 214.588857 
L 279.925512 224.767106 
L 283.642588 207.171343 
L 287.359665 232.373895 
L 291.076741 228.31416 
L 294.793818 265.544365 
L 298.510894 258.003209 
L 302.227971 250.89517 
L 305.945047 264.440497 
L 309.662124 190.964045 
L 313.3792 138.360362 
L 317.096277 225.363689 
L 320.813353 207.253888 
L 324.53043 222.782412 
L 328.247506 180.328853 
" clip-path="url(#p6256e5012c)" style="fill: none; stroke: #c5b0d5; stroke-width: 1.5; stroke-linecap: square"/>
   </g>
   <g id="line2d_20">
    <path d="M 75.486303 126.333839 
L 79.20338 178.518597 
L 82.920456 199.134098 
L 86.637533 233.062762 
L 90.354609 273.0878 
L 94.071686 287.267131 
L 97.788762 278.667445 
L 101.505839 281.435123 
L 105.222915 283.146535 
L 108.939992 272.574235 
L 112.657068 279.244197 
L 116.374145 273.724334 
L 120.091221 268.315069 
L 123.808298 269.145458 
L 127.525374 255.520138 
L 131.242451 264.63487 
L 134.959527 262.493243 
L 138.676604 266.258943 
L 142.39368 267.975217 
L 146.110757 264.620739 
L 149.827833 266.411977 
L 153.54491 266.297859 
L 157.261986 261.618742 
L 160.979063 262.685854 
L 164.696139 262.152959 
L 168.413216 260.682182 
L 172.130293 256.361295 
L 175.847369 256.961362 
L 179.564446 264.31156 
L 183.281522 268.004798 
L 186.998599 257.842637 
L 190.715675 259.639232 
L 194.432752 250.169569 
L 198.149828 253.586648 
L 201.866905 263.02285 
L 205.583981 265.167226 
L 209.301058 267.513183 
L 213.018134 256.911614 
L 216.735211 258.083061 
L 220.452287 262.71015 
L 224.169364 255.265411 
L 227.88644 265.138093 
L 231.603517 269.355476 
L 235.320593 266.007649 
L 239.03767 267.764085 
L 242.754746 271.282913 
L 246.471823 272.370698 
L 250.188899 271.036146 
L 253.905976 275.105575 
L 257.623052 269.909346 
L 261.340129 271.911531 
L 265.057206 273.885918 
L 268.774282 284.354283 
L 272.491359 281.761412 
L 276.208435 266.695685 
L 279.925512 265.904682 
L 283.642588 259.730573 
L 287.359665 275.635582 
L 291.076741 276.12115 
L 294.793818 282.451253 
L 298.510894 290.541279 
L 302.227971 281.553274 
L 305.945047 264.600018 
L 309.662124 210.566558 
L 313.3792 175.215501 
L 317.096277 209.921578 
L 320.813353 258.573582 
L 324.53043 264.047995 
L 328.247506 249.529091 
" clip-path="url(#p6256e5012c)" style="fill: none; stroke: #8c564b; stroke-width: 1.5; stroke-linecap: square"/>
   </g>
   <g id="line2d_21">
    <path d="M 75.486303 64.538788 
L 79.20338 103.041388 
L 82.920456 76.479606 
L 86.637533 84.467151 
L 90.354609 175.792211 
L 94.071686 219.529677 
L 97.788762 175.967581 
L 101.505839 199.983708 
L 105.222915 200.389381 
L 108.939992 188.71294 
L 112.657068 228.35908 
L 116.374145 216.592843 
L 120.091221 224.889609 
L 123.808298 232.000642 
L 127.525374 211.429561 
L 131.242451 220.48414 
L 134.959527 222.475268 
L 138.676604 218.884048 
L 142.39368 213.424611 
L 146.110757 208.943327 
L 149.827833 209.242181 
L 153.54491 218.39551 
L 157.261986 200.622005 
L 160.979063 202.529023 
L 164.696139 201.466561 
L 168.413216 200.499274 
L 172.130293 188.459901 
L 175.847369 178.531038 
L 179.564446 197.365557 
L 183.281522 204.032497 
L 186.998599 189.176844 
L 190.715675 195.051204 
L 194.432752 193.304808 
L 198.149828 196.410641 
L 201.866905 198.284005 
L 205.583981 194.684233 
L 209.301058 202.365844 
L 213.018134 188.26332 
L 216.735211 190.309522 
L 220.452287 197.32166 
L 224.169364 187.074863 
L 227.88644 204.070736 
L 231.603517 210.025169 
L 235.320593 204.759798 
L 239.03767 208.874268 
L 242.754746 215.716906 
L 246.471823 220.646687 
L 250.188899 223.537266 
L 253.905976 239.862243 
L 257.623052 237.934124 
L 261.340129 229.211002 
L 265.057206 239.91301 
L 268.774282 250.930643 
L 272.491359 263.80094 
L 276.208435 236.894359 
L 279.925512 250.48698 
L 283.642588 243.652997 
L 287.359665 250.899481 
L 291.076741 239.312973 
L 294.793818 262.059985 
L 298.510894 264.836571 
L 302.227971 272.397788 
L 305.945047 285.438781 
L 309.662124 288.669847 
L 313.3792 249.053233 
L 317.096277 246.3538 
L 320.813353 251.784145 
L 324.53043 212.11273 
L 328.247506 174.477055 
" clip-path="url(#p6256e5012c)" style="fill: none; stroke: #e377c2; stroke-width: 1.5; stroke-linecap: square"/>
   </g>
   <g id="line2d_22">
    <path d="M 71.769226 78.582367 
L 75.486303 63.246849 
L 79.20338 104.40358 
L 82.920456 90.676237 
L 86.637533 117.321398 
L 90.354609 184.322175 
L 94.071686 225.06819 
L 97.788762 216.888035 
L 101.505839 203.403978 
L 105.222915 207.698589 
L 108.939992 204.800334 
L 112.657068 215.738839 
L 116.374145 213.446317 
L 120.091221 212.125038 
L 123.808298 224.10524 
L 127.525374 207.535387 
L 131.242451 202.606368 
L 134.959527 204.492654 
L 138.676604 210.725871 
L 142.39368 208.654922 
L 146.110757 197.269254 
L 149.827833 183.567587 
L 153.54491 192.61002 
L 157.261986 173.633595 
L 160.979063 163.755109 
L 164.696139 146.554204 
L 168.413216 146.838575 
L 172.130293 143.90019 
L 175.847369 141.764943 
L 179.564446 154.102831 
L 183.281522 150.182112 
L 186.998599 130.416103 
L 190.715675 134.772737 
L 194.432752 132.60985 
L 198.149828 137.28928 
L 201.866905 135.769609 
L 205.583981 137.022229 
L 209.301058 149.305136 
L 213.018134 143.612362 
L 216.735211 145.286157 
L 220.452287 152.210838 
L 224.169364 145.350245 
L 227.88644 160.9064 
L 231.603517 162.037148 
L 235.320593 161.772693 
L 239.03767 169.141783 
L 242.754746 163.003433 
L 246.471823 172.589227 
L 250.188899 174.148875 
L 253.905976 186.851736 
L 257.623052 193.017664 
L 261.340129 188.125655 
L 265.057206 195.723643 
L 268.774282 209.306992 
L 272.491359 229.764577 
L 276.208435 199.718575 
L 279.925512 218.872113 
L 283.642588 211.451693 
L 287.359665 236.051299 
L 291.076741 236.684531 
L 294.793818 247.064845 
L 298.510894 253.510974 
L 302.227971 260.401871 
L 305.945047 276.993643 
L 309.662124 200.696818 
L 313.3792 122.618289 
L 317.096277 211.226466 
L 320.813353 156.689426 
L 324.53043 233.418449 
L 328.247506 174.474408 
" clip-path="url(#p6256e5012c)" style="fill: none; stroke: #7f7f7f; stroke-width: 1.5; stroke-linecap: square"/>
   </g>
   <g id="line2d_23">
    <path d="M 71.769226 66.320439 
L 75.486303 66.084248 
L 79.20338 94.575447 
L 82.920456 80.176661 
L 86.637533 79.271972 
L 90.354609 155.247353 
L 94.071686 211.835509 
L 97.788762 184.819886 
L 101.505839 195.206816 
L 105.222915 206.848152 
L 108.939992 197.614766 
L 112.657068 224.008931 
L 116.374145 208.804492 
L 120.091221 210.839903 
L 123.808298 217.52058 
L 127.525374 204.665966 
L 131.242451 205.902744 
L 134.959527 202.111854 
L 138.676604 201.781351 
L 142.39368 197.380555 
L 146.110757 183.99126 
L 149.827833 172.720463 
L 153.54491 188.886242 
L 157.261986 164.250976 
L 160.979063 163.572521 
L 164.696139 166.83447 
L 168.413216 164.066093 
L 172.130293 159.093445 
L 175.847369 148.910517 
L 179.564446 154.640837 
L 183.281522 156.917225 
L 186.998599 144.717864 
L 190.715675 145.541299 
L 194.432752 139.624272 
L 198.149828 144.73303 
L 201.866905 147.668882 
L 205.583981 156.126398 
L 209.301058 165.746516 
L 213.018134 159.721075 
L 216.735211 159.971008 
L 220.452287 163.122298 
L 224.169364 154.105422 
L 227.88644 169.690714 
L 231.603517 176.226663 
L 235.320593 165.119324 
L 239.03767 168.579474 
L 242.754746 172.151936 
L 246.471823 183.602849 
L 250.188899 184.451624 
L 253.905976 201.617855 
L 257.623052 204.551968 
L 261.340129 191.790218 
L 265.057206 198.250172 
L 268.774282 209.384254 
L 272.491359 226.098181 
L 276.208435 198.870499 
L 279.925512 209.6148 
L 283.642588 197.657267 
L 287.359665 217.27095 
L 291.076741 214.667644 
L 294.793818 244.137222 
L 298.510894 253.669936 
L 302.227971 251.377084 
L 305.945047 270.432471 
L 309.662124 196.708288 
L 313.3792 106.99819 
L 317.096277 226.276068 
L 320.813353 171.972838 
L 324.53043 216.692541 
L 328.247506 138.748649 
" clip-path="url(#p6256e5012c)" style="fill: none; stroke: #bcbd22; stroke-width: 1.5; stroke-linecap: square"/>
   </g>
   <g id="line2d_24">
    <path d="M 71.769226 85.495745 
L 75.486303 69.999009 
L 79.20338 95.638859 
L 82.920456 72.376456 
L 86.637533 86.987763 
L 90.354609 175.714854 
L 94.071686 213.759784 
L 97.788762 186.223983 
L 101.505839 190.972331 
L 105.222915 194.346243 
L 108.939992 183.491281 
L 112.657068 198.064851 
L 116.374145 197.537004 
L 120.091221 209.42177 
L 123.808298 228.134565 
L 127.525374 209.327577 
L 131.242451 214.337381 
L 134.959527 219.992419 
L 138.676604 226.451687 
L 142.39368 220.017066 
L 146.110757 210.129126 
L 149.827833 207.441412 
L 153.54491 218.36875 
L 157.261986 191.65411 
L 160.979063 190.809733 
L 164.696139 191.92354 
L 168.413216 184.348107 
L 172.130293 174.386734 
L 175.847369 164.280696 
L 179.564446 178.889304 
L 183.281522 180.267923 
L 186.998599 163.797325 
L 190.715675 163.634906 
L 194.432752 151.125026 
L 198.149828 156.783523 
L 201.866905 163.688186 
L 205.583981 172.479663 
L 209.301058 185.291701 
L 213.018134 169.776159 
L 216.735211 173.128773 
L 220.452287 180.955323 
L 224.169364 173.692745 
L 227.88644 191.19947 
L 231.603517 201.092894 
L 235.320593 207.425117 
L 239.03767 219.593246 
L 242.754746 218.458032 
L 246.471823 226.028364 
L 250.188899 229.217948 
L 253.905976 243.687574 
L 257.623052 242.735708 
L 261.340129 236.577481 
L 265.057206 239.78472 
L 268.774282 256.11759 
L 272.491359 259.502316 
L 276.208435 232.135084 
L 279.925512 234.063271 
L 283.642588 224.929561 
L 287.359665 246.481102 
L 291.076741 246.248977 
L 294.793818 275.129688 
L 298.510894 269.941653 
L 302.227971 265.535034 
L 305.945047 281.170399 
L 309.662124 249.11585 
L 313.3792 135.553674 
L 317.096277 216.40364 
L 320.813353 223.636541 
L 324.53043 210.967064 
L 328.247506 185.795647 
" clip-path="url(#p6256e5012c)" style="fill: none; stroke: #17becf; stroke-width: 1.5; stroke-linecap: square"/>
   </g>
   <g id="line2d_25">
    <path d="M 71.769226 38.545653 
L 75.486303 60.473623 
L 79.20338 82.454635 
L 82.920456 74.904673 
L 86.637533 100.905824 
L 90.354609 190.304993 
L 94.071686 196.713514 
L 97.788762 188.021573 
L 101.505839 207.166079 
L 105.222915 195.044661 
L 108.939992 185.769268 
L 112.657068 203.015878 
L 116.374145 193.101 
L 120.091221 206.146588 
L 123.808298 226.601109 
L 127.525374 207.367092 
L 131.242451 211.994633 
L 134.959527 216.28551 
L 138.676604 222.320026 
L 142.39368 213.057686 
L 146.110757 199.484036 
L 149.827833 190.442477 
L 153.54491 203.103856 
L 157.261986 195.977517 
L 160.979063 194.978249 
L 164.696139 195.592412 
L 168.413216 196.298495 
L 172.130293 188.716413 
L 175.847369 177.532019 
L 179.564446 185.830997 
L 183.281522 188.775306 
L 186.998599 164.830628 
L 190.715675 167.807468 
L 194.432752 159.227736 
L 198.149828 163.029315 
L 201.866905 161.488086 
L 205.583981 164.640638 
L 209.301058 179.042349 
L 213.018134 167.738399 
L 216.735211 174.056701 
L 220.452287 184.259817 
L 224.169364 180.251786 
L 227.88644 202.517753 
L 231.603517 205.594138 
L 235.320593 196.019396 
L 239.03767 202.397984 
L 242.754746 205.664632 
L 246.471823 215.024255 
L 250.188899 222.71105 
L 253.905976 238.66523 
L 257.623052 232.537772 
L 261.340129 226.323353 
L 265.057206 234.76751 
L 268.774282 249.164729 
L 272.491359 258.104338 
L 276.208435 239.840318 
L 279.925512 244.631125 
L 283.642588 238.46637 
L 287.359665 255.980296 
L 291.076741 249.503604 
L 294.793818 279.497315 
L 298.510894 271.991749 
L 302.227971 260.460391 
L 305.945047 277.852712 
L 309.662124 280.736714 
L 313.3792 149.751963 
L 317.096277 234.310267 
L 320.813353 232.403206 
L 324.53043 226.768968 
L 328.247506 180.513593 
" clip-path="url(#p6256e5012c)" style="fill: none; stroke: #9edae5; stroke-width: 1.5; stroke-linecap: square"/>
   </g>
   <g id="line2d_26">
    <path d="M 71.769226 69.350894 
L 75.486303 76.930072 
L 79.20338 133.617743 
L 82.920456 130.254596 
L 86.637533 143.340621 
L 90.354609 220.569828 
L 94.071686 247.172867 
L 97.788762 229.977596 
L 101.505839 232.812503 
L 105.222915 236.047673 
L 108.939992 231.244464 
L 112.657068 245.274817 
L 116.374145 237.81926 
L 120.091221 239.952479 
L 123.808298 247.303023 
L 127.525374 232.349527 
L 131.242451 236.417845 
L 134.959527 237.52026 
L 138.676604 241.972282 
L 142.39368 238.806863 
L 146.110757 230.733723 
L 149.827833 227.256587 
L 153.54491 232.221091 
L 157.261986 220.681769 
L 160.979063 219.175151 
L 164.696139 217.992979 
L 168.413216 217.073123 
L 172.130293 210.766527 
L 175.847369 204.199988 
L 179.564446 214.964277 
L 183.281522 216.750235 
L 186.998599 198.582753 
L 190.715675 200.096855 
L 194.432752 193.380466 
L 198.149828 199.939287 
L 201.866905 204.846921 
L 205.583981 209.13001 
L 209.301058 218.121936 
L 213.018134 208.344818 
L 216.735211 210.061576 
L 220.452287 216.71875 
L 224.169364 210.587614 
L 227.88644 224.30382 
L 231.603517 230.573747 
L 235.320593 227.982338 
L 239.03767 231.431779 
L 242.754746 232.2586 
L 246.471823 236.686284 
L 250.188899 238.93383 
L 253.905976 248.994509 
L 257.623052 244.323782 
L 261.340129 236.912477 
L 265.057206 241.826184 
L 268.774282 252.846752 
L 272.491359 260.127149 
L 276.208435 240.781007 
L 279.925512 245.03497 
L 283.642588 237.119612 
L 287.359665 255.115832 
L 291.076741 248.951612 
L 294.793818 273.016292 
L 298.510894 272.212725 
L 302.227971 265.534878 
L 305.945047 274.824441 
L 309.662124 243.091901 
L 313.3792 160.867754 
L 317.096277 224.912616 
L 320.813353 221.7855 
L 324.53043 232.97163 
L 328.247506 192.653953 
" clip-path="url(#p6256e5012c)" style="fill: none; stroke: #000000; stroke-width: 2.5; stroke-linecap: square"/>
   </g>
   <g id="patch_3">
    <path d="M 58.945313 303.72375 
L 58.945313 25.918125 
" style="fill: none; stroke: #000000; stroke-width: 0.8; stroke-linejoin: miter; stroke-linecap: square"/>
   </g>
   <g id="patch_4">
    <path d="M 341.07142 303.72375 
L 341.07142 25.918125 
" style="fill: none; stroke: #000000; stroke-width: 0.8; stroke-linejoin: miter; stroke-linecap: square"/>
   </g>
   <g id="patch_5">
    <path d="M 58.945312 303.72375 
L 341.07142 303.72375 
" style="fill: none; stroke: #000000; stroke-width: 0.8; stroke-linejoin: miter; stroke-linecap: square"/>
   </g>
   <g id="patch_6">
    <path d="M 58.945312 25.918125 
L 341.07142 25.918125 
" style="fill: none; stroke: #000000; stroke-width: 0.8; stroke-linejoin: miter; stroke-linecap: square"/>
   </g>
   <g id="text_16">
    <!-- Average Coral Cover Change Rate by Latitude -->
    <g transform="translate(61.903366 19.918125) scale(0.12 -0.12)">
     <defs>
      <path id="DejaVuSans-62" d="M 3116 1747 
Q 3116 2381 2855 2742 
Q 2594 3103 2138 3103 
Q 1681 3103 1420 2742 
Q 1159 2381 1159 1747 
Q 1159 1113 1420 752 
Q 1681 391 2138 391 
Q 2594 391 2855 752 
Q 3116 1113 3116 1747 
z
M 1159 2969 
Q 1341 3281 1617 3432 
Q 1894 3584 2278 3584 
Q 2916 3584 3314 3078 
Q 3713 2572 3713 1747 
Q 3713 922 3314 415 
Q 2916 -91 2278 -91 
Q 1894 -91 1617 61 
Q 1341 213 1159 525 
L 1159 0 
L 581 0 
L 581 4863 
L 1159 4863 
L 1159 2969 
z
" transform="scale(0.015625)"/>
      <path id="DejaVuSans-79" d="M 2059 -325 
Q 1816 -950 1584 -1140 
Q 1353 -1331 966 -1331 
L 506 -1331 
L 506 -850 
L 844 -850 
Q 1081 -850 1212 -737 
Q 1344 -625 1503 -206 
L 1606 56 
L 191 3500 
L 800 3500 
L 1894 763 
L 2988 3500 
L 3597 3500 
L 2059 -325 
z
" transform="scale(0.015625)"/>
     </defs>
     <use xlink:href="#DejaVuSans-41"/>
     <use xlink:href="#DejaVuSans-76" x="62.533203"/>
     <use xlink:href="#DejaVuSans-65" x="121.712891"/>
     <use xlink:href="#DejaVuSans-72" x="183.236328"/>
     <use xlink:href="#DejaVuSans-61" x="224.349609"/>
     <use xlink:href="#DejaVuSans-67" x="285.628906"/>
     <use xlink:href="#DejaVuSans-65" x="349.105469"/>
     <use xlink:href="#DejaVuSans-20" x="410.628906"/>
     <use xlink:href="#DejaVuSans-43" x="442.416016"/>
     <use xlink:href="#DejaVuSans-6f" x="512.240234"/>
     <use xlink:href="#DejaVuSans-72" x="573.421875"/>
     <use xlink:href="#DejaVuSans-61" x="614.535156"/>
     <use xlink:href="#DejaVuSans-6c" x="675.814453"/>
     <use xlink:href="#DejaVuSans-20" x="703.597656"/>
     <use xlink:href="#DejaVuSans-43" x="735.384766"/>
     <use xlink:href="#DejaVuSans-6f" x="805.208984"/>
     <use xlink:href="#DejaVuSans-76" x="866.390625"/>
     <use xlink:href="#DejaVuSans-65" x="925.570312"/>
     <use xlink:href="#DejaVuSans-72" x="987.09375"/>
     <use xlink:href="#DejaVuSans-20" x="1028.207031"/>
     <use xlink:href="#DejaVuSans-43" x="1059.994141"/>
     <use xlink:href="#DejaVuSans-68" x="1129.818359"/>
     <use xlink:href="#DejaVuSans-61" x="1193.197266"/>
     <use xlink:href="#DejaVuSans-6e" x="1254.476562"/>
     <use xlink:href="#DejaVuSans-67" x="1317.855469"/>
     <use xlink:href="#DejaVuSans-65" x="1381.332031"/>
     <use xlink:href="#DejaVuSans-20" x="1442.855469"/>
     <use xlink:href="#DejaVuSans-52" x="1474.642578"/>
     <use xlink:href="#DejaVuSans-61" x="1541.875"/>
     <use xlink:href="#DejaVuSans-74" x="1603.154297"/>
     <use xlink:href="#DejaVuSans-65" x="1642.363281"/>
     <use xlink:href="#DejaVuSans-20" x="1703.886719"/>
     <use xlink:href="#DejaVuSans-62" x="1735.673828"/>
     <use xlink:href="#DejaVuSans-79" x="1799.150391"/>
     <use xlink:href="#DejaVuSans-20" x="1858.330078"/>
     <use xlink:href="#DejaVuSans-4c" x="1890.117188"/>
     <use xlink:href="#DejaVuSans-61" x="1945.830078"/>
     <use xlink:href="#DejaVuSans-74" x="2007.109375"/>
     <use xlink:href="#DejaVuSans-69" x="2046.318359"/>
     <use xlink:href="#DejaVuSans-74" x="2074.101562"/>
     <use xlink:href="#DejaVuSans-75" x="2113.310547"/>
     <use xlink:href="#DejaVuSans-64" x="2176.689453"/>
     <use xlink:href="#DejaVuSans-65" x="2240.166016"/>
    </g>
   </g>
   <g id="legend_1">
    <g id="patch_7">
     <path d="M 362.177726 239.411875 
L 440.107413 239.411875 
Q 442.107413 239.411875 442.107413 237.411875 
L 442.107413 32.918125 
Q 442.107413 30.918125 440.107413 30.918125 
L 362.177726 30.918125 
Q 360.177726 30.918125 360.177726 32.918125 
L 360.177726 237.411875 
Q 360.177726 239.411875 362.177726 239.411875 
z
" style="fill: #ffffff; opacity: 0.8; stroke: #cccccc; stroke-linejoin: miter"/>
    </g>
    <g id="text_17">
     <!-- Model Number -->
     <g transform="translate(364.454288 42.516562) scale(0.1 -0.1)">
      <defs>
       <path id="DejaVuSans-4d" d="M 628 4666 
L 1569 4666 
L 2759 1491 
L 3956 4666 
L 4897 4666 
L 4897 0 
L 4281 0 
L 4281 4097 
L 3078 897 
L 2444 897 
L 1241 4097 
L 1241 0 
L 628 0 
L 628 4666 
z
" transform="scale(0.015625)"/>
       <path id="DejaVuSans-4e" d="M 628 4666 
L 1478 4666 
L 3547 763 
L 3547 4666 
L 4159 4666 
L 4159 0 
L 3309 0 
L 1241 3903 
L 1241 0 
L 628 0 
L 628 4666 
z
" transform="scale(0.015625)"/>
       <path id="DejaVuSans-6d" d="M 3328 2828 
Q 3544 3216 3844 3400 
Q 4144 3584 4550 3584 
Q 5097 3584 5394 3201 
Q 5691 2819 5691 2113 
L 5691 0 
L 5113 0 
L 5113 2094 
Q 5113 2597 4934 2840 
Q 4756 3084 4391 3084 
Q 3944 3084 3684 2787 
Q 3425 2491 3425 1978 
L 3425 0 
L 2847 0 
L 2847 2094 
Q 2847 2600 2669 2842 
Q 2491 3084 2119 3084 
Q 1678 3084 1418 2786 
Q 1159 2488 1159 1978 
L 1159 0 
L 581 0 
L 581 3500 
L 1159 3500 
L 1159 2956 
Q 1356 3278 1631 3431 
Q 1906 3584 2284 3584 
Q 2666 3584 2933 3390 
Q 3200 3197 3328 2828 
z
" transform="scale(0.015625)"/>
      </defs>
      <use xlink:href="#DejaVuSans-4d"/>
      <use xlink:href="#DejaVuSans-6f" x="86.279297"/>
      <use xlink:href="#DejaVuSans-64" x="147.460938"/>
      <use xlink:href="#DejaVuSans-65" x="210.9375"/>
      <use xlink:href="#DejaVuSans-6c" x="272.460938"/>
      <use xlink:href="#DejaVuSans-20" x="300.244141"/>
      <use xlink:href="#DejaVuSans-4e" x="332.03125"/>
      <use xlink:href="#DejaVuSans-75" x="406.835938"/>
      <use xlink:href="#DejaVuSans-6d" x="470.214844"/>
      <use xlink:href="#DejaVuSans-62" x="567.626953"/>
      <use xlink:href="#DejaVuSans-65" x="631.103516"/>
      <use xlink:href="#DejaVuSans-72" x="692.626953"/>
     </g>
    </g>
    <g id="line2d_27">
     <path d="M 364.177726 53.694687 
L 374.177726 53.694687 
L 384.177726 53.694687 
" style="fill: none; stroke: #1f77b4; stroke-width: 1.5; stroke-linecap: square"/>
    </g>
    <g id="text_18">
     <!-- Model 0 -->
     <g transform="translate(392.177726 57.194687) scale(0.1 -0.1)">
      <use xlink:href="#DejaVuSans-4d"/>
      <use xlink:href="#DejaVuSans-6f" x="86.279297"/>
      <use xlink:href="#DejaVuSans-64" x="147.460938"/>
      <use xlink:href="#DejaVuSans-65" x="210.9375"/>
      <use xlink:href="#DejaVuSans-6c" x="272.460938"/>
      <use xlink:href="#DejaVuSans-20" x="300.244141"/>
      <use xlink:href="#DejaVuSans-30" x="332.03125"/>
     </g>
    </g>
    <g id="line2d_28">
     <path d="M 364.177726 68.372813 
L 374.177726 68.372813 
L 384.177726 68.372813 
" style="fill: none; stroke: #aec7e8; stroke-width: 1.5; stroke-linecap: square"/>
    </g>
    <g id="text_19">
     <!-- Model 1 -->
     <g transform="translate(392.177726 71.872813) scale(0.1 -0.1)">
      <use xlink:href="#DejaVuSans-4d"/>
      <use xlink:href="#DejaVuSans-6f" x="86.279297"/>
      <use xlink:href="#DejaVuSans-64" x="147.460938"/>
      <use xlink:href="#DejaVuSans-65" x="210.9375"/>
      <use xlink:href="#DejaVuSans-6c" x="272.460938"/>
      <use xlink:href="#DejaVuSans-20" x="300.244141"/>
      <use xlink:href="#DejaVuSans-31" x="332.03125"/>
     </g>
    </g>
    <g id="line2d_29">
     <path d="M 364.177726 83.050938 
L 374.177726 83.050938 
L 384.177726 83.050938 
" style="fill: none; stroke: #ffbb78; stroke-width: 1.5; stroke-linecap: square"/>
    </g>
    <g id="text_20">
     <!-- Model 2 -->
     <g transform="translate(392.177726 86.550938) scale(0.1 -0.1)">
      <use xlink:href="#DejaVuSans-4d"/>
      <use xlink:href="#DejaVuSans-6f" x="86.279297"/>
      <use xlink:href="#DejaVuSans-64" x="147.460938"/>
      <use xlink:href="#DejaVuSans-65" x="210.9375"/>
      <use xlink:href="#DejaVuSans-6c" x="272.460938"/>
      <use xlink:href="#DejaVuSans-20" x="300.244141"/>
      <use xlink:href="#DejaVuSans-32" x="332.03125"/>
     </g>
    </g>
    <g id="line2d_30">
     <path d="M 364.177726 97.729062 
L 374.177726 97.729062 
L 384.177726 97.729062 
" style="fill: none; stroke: #98df8a; stroke-width: 1.5; stroke-linecap: square"/>
    </g>
    <g id="text_21">
     <!-- Model 3 -->
     <g transform="translate(392.177726 101.229062) scale(0.1 -0.1)">
      <use xlink:href="#DejaVuSans-4d"/>
      <use xlink:href="#DejaVuSans-6f" x="86.279297"/>
      <use xlink:href="#DejaVuSans-64" x="147.460938"/>
      <use xlink:href="#DejaVuSans-65" x="210.9375"/>
      <use xlink:href="#DejaVuSans-6c" x="272.460938"/>
      <use xlink:href="#DejaVuSans-20" x="300.244141"/>
      <use xlink:href="#DejaVuSans-33" x="332.03125"/>
     </g>
    </g>
    <g id="line2d_31">
     <path d="M 364.177726 112.407188 
L 374.177726 112.407188 
L 384.177726 112.407188 
" style="fill: none; stroke: #ff9896; stroke-width: 1.5; stroke-linecap: square"/>
    </g>
    <g id="text_22">
     <!-- Model 4 -->
     <g transform="translate(392.177726 115.907188) scale(0.1 -0.1)">
      <use xlink:href="#DejaVuSans-4d"/>
      <use xlink:href="#DejaVuSans-6f" x="86.279297"/>
      <use xlink:href="#DejaVuSans-64" x="147.460938"/>
      <use xlink:href="#DejaVuSans-65" x="210.9375"/>
      <use xlink:href="#DejaVuSans-6c" x="272.460938"/>
      <use xlink:href="#DejaVuSans-20" x="300.244141"/>
      <use xlink:href="#DejaVuSans-34" x="332.03125"/>
     </g>
    </g>
    <g id="line2d_32">
     <path d="M 364.177726 127.085312 
L 374.177726 127.085312 
L 384.177726 127.085312 
" style="fill: none; stroke: #c5b0d5; stroke-width: 1.5; stroke-linecap: square"/>
    </g>
    <g id="text_23">
     <!-- Model 5 -->
     <g transform="translate(392.177726 130.585312) scale(0.1 -0.1)">
      <defs>
       <path id="DejaVuSans-35" d="M 691 4666 
L 3169 4666 
L 3169 4134 
L 1269 4134 
L 1269 2991 
Q 1406 3038 1543 3061 
Q 1681 3084 1819 3084 
Q 2600 3084 3056 2656 
Q 3513 2228 3513 1497 
Q 3513 744 3044 326 
Q 2575 -91 1722 -91 
Q 1428 -91 1123 -41 
Q 819 9 494 109 
L 494 744 
Q 775 591 1075 516 
Q 1375 441 1709 441 
Q 2250 441 2565 725 
Q 2881 1009 2881 1497 
Q 2881 1984 2565 2268 
Q 2250 2553 1709 2553 
Q 1456 2553 1204 2497 
Q 953 2441 691 2322 
L 691 4666 
z
" transform="scale(0.015625)"/>
      </defs>
      <use xlink:href="#DejaVuSans-4d"/>
      <use xlink:href="#DejaVuSans-6f" x="86.279297"/>
      <use xlink:href="#DejaVuSans-64" x="147.460938"/>
      <use xlink:href="#DejaVuSans-65" x="210.9375"/>
      <use xlink:href="#DejaVuSans-6c" x="272.460938"/>
      <use xlink:href="#DejaVuSans-20" x="300.244141"/>
      <use xlink:href="#DejaVuSans-35" x="332.03125"/>
     </g>
    </g>
    <g id="line2d_33">
     <path d="M 364.177726 141.763438 
L 374.177726 141.763438 
L 384.177726 141.763438 
" style="fill: none; stroke: #8c564b; stroke-width: 1.5; stroke-linecap: square"/>
    </g>
    <g id="text_24">
     <!-- Model 6 -->
     <g transform="translate(392.177726 145.263438) scale(0.1 -0.1)">
      <use xlink:href="#DejaVuSans-4d"/>
      <use xlink:href="#DejaVuSans-6f" x="86.279297"/>
      <use xlink:href="#DejaVuSans-64" x="147.460938"/>
      <use xlink:href="#DejaVuSans-65" x="210.9375"/>
      <use xlink:href="#DejaVuSans-6c" x="272.460938"/>
      <use xlink:href="#DejaVuSans-20" x="300.244141"/>
      <use xlink:href="#DejaVuSans-36" x="332.03125"/>
     </g>
    </g>
    <g id="line2d_34">
     <path d="M 364.177726 156.441562 
L 374.177726 156.441562 
L 384.177726 156.441562 
" style="fill: none; stroke: #e377c2; stroke-width: 1.5; stroke-linecap: square"/>
    </g>
    <g id="text_25">
     <!-- Model 7 -->
     <g transform="translate(392.177726 159.941562) scale(0.1 -0.1)">
      <defs>
       <path id="DejaVuSans-37" d="M 525 4666 
L 3525 4666 
L 3525 4397 
L 1831 0 
L 1172 0 
L 2766 4134 
L 525 4134 
L 525 4666 
z
" transform="scale(0.015625)"/>
      </defs>
      <use xlink:href="#DejaVuSans-4d"/>
      <use xlink:href="#DejaVuSans-6f" x="86.279297"/>
      <use xlink:href="#DejaVuSans-64" x="147.460938"/>
      <use xlink:href="#DejaVuSans-65" x="210.9375"/>
      <use xlink:href="#DejaVuSans-6c" x="272.460938"/>
      <use xlink:href="#DejaVuSans-20" x="300.244141"/>
      <use xlink:href="#DejaVuSans-37" x="332.03125"/>
     </g>
    </g>
    <g id="line2d_35">
     <path d="M 364.177726 171.119687 
L 374.177726 171.119687 
L 384.177726 171.119687 
" style="fill: none; stroke: #7f7f7f; stroke-width: 1.5; stroke-linecap: square"/>
    </g>
    <g id="text_26">
     <!-- Model 8 -->
     <g transform="translate(392.177726 174.619687) scale(0.1 -0.1)">
      <use xlink:href="#DejaVuSans-4d"/>
      <use xlink:href="#DejaVuSans-6f" x="86.279297"/>
      <use xlink:href="#DejaVuSans-64" x="147.460938"/>
      <use xlink:href="#DejaVuSans-65" x="210.9375"/>
      <use xlink:href="#DejaVuSans-6c" x="272.460938"/>
      <use xlink:href="#DejaVuSans-20" x="300.244141"/>
      <use xlink:href="#DejaVuSans-38" x="332.03125"/>
     </g>
    </g>
    <g id="line2d_36">
     <path d="M 364.177726 185.797812 
L 374.177726 185.797812 
L 384.177726 185.797812 
" style="fill: none; stroke: #bcbd22; stroke-width: 1.5; stroke-linecap: square"/>
    </g>
    <g id="text_27">
     <!-- Model 9 -->
     <g transform="translate(392.177726 189.297812) scale(0.1 -0.1)">
      <defs>
       <path id="DejaVuSans-39" d="M 703 97 
L 703 672 
Q 941 559 1184 500 
Q 1428 441 1663 441 
Q 2288 441 2617 861 
Q 2947 1281 2994 2138 
Q 2813 1869 2534 1725 
Q 2256 1581 1919 1581 
Q 1219 1581 811 2004 
Q 403 2428 403 3163 
Q 403 3881 828 4315 
Q 1253 4750 1959 4750 
Q 2769 4750 3195 4129 
Q 3622 3509 3622 2328 
Q 3622 1225 3098 567 
Q 2575 -91 1691 -91 
Q 1453 -91 1209 -44 
Q 966 3 703 97 
z
M 1959 2075 
Q 2384 2075 2632 2365 
Q 2881 2656 2881 3163 
Q 2881 3666 2632 3958 
Q 2384 4250 1959 4250 
Q 1534 4250 1286 3958 
Q 1038 3666 1038 3163 
Q 1038 2656 1286 2365 
Q 1534 2075 1959 2075 
z
" transform="scale(0.015625)"/>
      </defs>
      <use xlink:href="#DejaVuSans-4d"/>
      <use xlink:href="#DejaVuSans-6f" x="86.279297"/>
      <use xlink:href="#DejaVuSans-64" x="147.460938"/>
      <use xlink:href="#DejaVuSans-65" x="210.9375"/>
      <use xlink:href="#DejaVuSans-6c" x="272.460938"/>
      <use xlink:href="#DejaVuSans-20" x="300.244141"/>
      <use xlink:href="#DejaVuSans-39" x="332.03125"/>
     </g>
    </g>
    <g id="line2d_37">
     <path d="M 364.177726 200.475937 
L 374.177726 200.475937 
L 384.177726 200.475937 
" style="fill: none; stroke: #17becf; stroke-width: 1.5; stroke-linecap: square"/>
    </g>
    <g id="text_28">
     <!-- Model 10 -->
     <g transform="translate(392.177726 203.975937) scale(0.1 -0.1)">
      <use xlink:href="#DejaVuSans-4d"/>
      <use xlink:href="#DejaVuSans-6f" x="86.279297"/>
      <use xlink:href="#DejaVuSans-64" x="147.460938"/>
      <use xlink:href="#DejaVuSans-65" x="210.9375"/>
      <use xlink:href="#DejaVuSans-6c" x="272.460938"/>
      <use xlink:href="#DejaVuSans-20" x="300.244141"/>
      <use xlink:href="#DejaVuSans-31" x="332.03125"/>
      <use xlink:href="#DejaVuSans-30" x="395.654297"/>
     </g>
    </g>
    <g id="line2d_38">
     <path d="M 364.177726 215.154062 
L 374.177726 215.154062 
L 384.177726 215.154062 
" style="fill: none; stroke: #9edae5; stroke-width: 1.5; stroke-linecap: square"/>
    </g>
    <g id="text_29">
     <!-- Model 11 -->
     <g transform="translate(392.177726 218.654062) scale(0.1 -0.1)">
      <use xlink:href="#DejaVuSans-4d"/>
      <use xlink:href="#DejaVuSans-6f" x="86.279297"/>
      <use xlink:href="#DejaVuSans-64" x="147.460938"/>
      <use xlink:href="#DejaVuSans-65" x="210.9375"/>
      <use xlink:href="#DejaVuSans-6c" x="272.460938"/>
      <use xlink:href="#DejaVuSans-20" x="300.244141"/>
      <use xlink:href="#DejaVuSans-31" x="332.03125"/>
      <use xlink:href="#DejaVuSans-31" x="395.654297"/>
     </g>
    </g>
    <g id="line2d_39">
     <path d="M 364.177726 229.832187 
L 374.177726 229.832187 
L 384.177726 229.832187 
" style="fill: none; stroke: #000000; stroke-width: 2.5; stroke-linecap: square"/>
    </g>
    <g id="text_30">
     <!-- Mean -->
     <g transform="translate(392.177726 233.332187) scale(0.1 -0.1)">
      <use xlink:href="#DejaVuSans-4d"/>
      <use xlink:href="#DejaVuSans-65" x="86.279297"/>
      <use xlink:href="#DejaVuSans-61" x="147.802734"/>
      <use xlink:href="#DejaVuSans-6e" x="209.082031"/>
     </g>
    </g>
   </g>
  </g>
 </g>
 <defs>
  <clipPath id="p6256e5012c">
   <rect x="58.945313" y="25.918125" width="282.126108" height="277.805625"/>
  </clipPath>
 </defs>
</svg>
