<?xml version="1.0" encoding="utf-8" standalone="no"?>
<!DOCTYPE svg PUBLIC "-//W3C//DTD SVG 1.1//EN"
  "http://www.w3.org/Graphics/SVG/1.1/DTD/svg11.dtd">
<svg xmlns:xlink="http://www.w3.org/1999/xlink" width="445.707413pt" height="337.68pt" viewBox="0 0 445.707413 337.68" xmlns="http://www.w3.org/2000/svg" version="1.1">
 <metadata>
  <rdf:RDF xmlns:dc="http://purl.org/dc/elements/1.1/" xmlns:cc="http://creativecommons.org/ns#" xmlns:rdf="http://www.w3.org/1999/02/22-rdf-syntax-ns#">
   <cc:Work>
    <dc:type rdf:resource="http://purl.org/dc/dcmitype/StillImage"/>
    <dc:date>2024-11-02T23:13:37.345020</dc:date>
    <dc:format>image/svg+xml</dc:format>
    <dc:creator>
     <cc:Agent>
      <dc:title>Matplotlib v3.9.2, https://matplotlib.org/</dc:title>
     </cc:Agent>
    </dc:creator>
   </cc:Work>
  </rdf:RDF>
 </metadata>
 <defs>
  <style type="text/css">*{stroke-linejoin: round; stroke-linecap: butt}</style>
 </defs>
 <g id="figure_1">
  <g id="patch_1">
   <path d="M 0 337.68 
L 445.707413 337.68 
L 445.707413 0 
L 0 0 
L 0 337.68 
z
" style="fill: none"/>
  </g>
  <g id="axes_1">
   <g id="patch_2">
    <path d="M 55.345313 300.12375 
L 337.47142 300.12375 
L 337.47142 22.318125 
L 55.345313 22.318125 
L 55.345313 300.12375 
z
" style="fill: none"/>
   </g>
   <g id="matplotlib.axis_1">
    <g id="xtick_1">
     <g id="line2d_1">
      <defs>
       <path id="m675020b957" d="M 0 0 
L 0 3.5 
" style="stroke: #000000; stroke-width: 0.8"/>
      </defs>
      <g>
       <use xlink:href="#m675020b957" x="83.037533" y="300.12375" style="stroke: #000000; stroke-width: 0.8"/>
      </g>
     </g>
     <g id="text_1">
      <!-- −30 -->
      <g transform="translate(72.485189 314.722188) scale(0.1 -0.1)">
       <defs>
        <path id="DejaVuSans-2212" d="M 678 2272 
L 4684 2272 
L 4684 1741 
L 678 1741 
L 678 2272 
z
" transform="scale(0.015625)"/>
        <path id="DejaVuSans-33" d="M 2597 2516 
Q 3050 2419 3304 2112 
Q 3559 1806 3559 1356 
Q 3559 666 3084 287 
Q 2609 -91 1734 -91 
Q 1441 -91 1130 -33 
Q 819 25 488 141 
L 488 750 
Q 750 597 1062 519 
Q 1375 441 1716 441 
Q 2309 441 2620 675 
Q 2931 909 2931 1356 
Q 2931 1769 2642 2001 
Q 2353 2234 1838 2234 
L 1294 2234 
L 1294 2753 
L 1863 2753 
Q 2328 2753 2575 2939 
Q 2822 3125 2822 3475 
Q 2822 3834 2567 4026 
Q 2313 4219 1838 4219 
Q 1578 4219 1281 4162 
Q 984 4106 628 3988 
L 628 4550 
Q 988 4650 1302 4700 
Q 1616 4750 1894 4750 
Q 2613 4750 3031 4423 
Q 3450 4097 3450 3541 
Q 3450 3153 3228 2886 
Q 3006 2619 2597 2516 
z
" transform="scale(0.015625)"/>
        <path id="DejaVuSans-30" d="M 2034 4250 
Q 1547 4250 1301 3770 
Q 1056 3291 1056 2328 
Q 1056 1369 1301 889 
Q 1547 409 2034 409 
Q 2525 409 2770 889 
Q 3016 1369 3016 2328 
Q 3016 3291 2770 3770 
Q 2525 4250 2034 4250 
z
M 2034 4750 
Q 2819 4750 3233 4129 
Q 3647 3509 3647 2328 
Q 3647 1150 3233 529 
Q 2819 -91 2034 -91 
Q 1250 -91 836 529 
Q 422 1150 422 2328 
Q 422 3509 836 4129 
Q 1250 4750 2034 4750 
z
" transform="scale(0.015625)"/>
       </defs>
       <use xlink:href="#DejaVuSans-2212"/>
       <use xlink:href="#DejaVuSans-33" x="83.789062"/>
       <use xlink:href="#DejaVuSans-30" x="147.412109"/>
      </g>
     </g>
    </g>
    <g id="xtick_2">
     <g id="line2d_2">
      <g>
       <use xlink:href="#m675020b957" x="120.208298" y="300.12375" style="stroke: #000000; stroke-width: 0.8"/>
      </g>
     </g>
     <g id="text_2">
      <!-- −20 -->
      <g transform="translate(109.655954 314.722188) scale(0.1 -0.1)">
       <defs>
        <path id="DejaVuSans-32" d="M 1228 531 
L 3431 531 
L 3431 0 
L 469 0 
L 469 531 
Q 828 903 1448 1529 
Q 2069 2156 2228 2338 
Q 2531 2678 2651 2914 
Q 2772 3150 2772 3378 
Q 2772 3750 2511 3984 
Q 2250 4219 1831 4219 
Q 1534 4219 1204 4116 
Q 875 4013 500 3803 
L 500 4441 
Q 881 4594 1212 4672 
Q 1544 4750 1819 4750 
Q 2544 4750 2975 4387 
Q 3406 4025 3406 3419 
Q 3406 3131 3298 2873 
Q 3191 2616 2906 2266 
Q 2828 2175 2409 1742 
Q 1991 1309 1228 531 
z
" transform="scale(0.015625)"/>
       </defs>
       <use xlink:href="#DejaVuSans-2212"/>
       <use xlink:href="#DejaVuSans-32" x="83.789062"/>
       <use xlink:href="#DejaVuSans-30" x="147.412109"/>
      </g>
     </g>
    </g>
    <g id="xtick_3">
     <g id="line2d_3">
      <g>
       <use xlink:href="#m675020b957" x="157.379063" y="300.12375" style="stroke: #000000; stroke-width: 0.8"/>
      </g>
     </g>
     <g id="text_3">
      <!-- −10 -->
      <g transform="translate(146.826719 314.722188) scale(0.1 -0.1)">
       <defs>
        <path id="DejaVuSans-31" d="M 794 531 
L 1825 531 
L 1825 4091 
L 703 3866 
L 703 4441 
L 1819 4666 
L 2450 4666 
L 2450 531 
L 3481 531 
L 3481 0 
L 794 0 
L 794 531 
z
" transform="scale(0.015625)"/>
       </defs>
       <use xlink:href="#DejaVuSans-2212"/>
       <use xlink:href="#DejaVuSans-31" x="83.789062"/>
       <use xlink:href="#DejaVuSans-30" x="147.412109"/>
      </g>
     </g>
    </g>
    <g id="xtick_4">
     <g id="line2d_4">
      <g>
       <use xlink:href="#m675020b957" x="194.549828" y="300.12375" style="stroke: #000000; stroke-width: 0.8"/>
      </g>
     </g>
     <g id="text_4">
      <!-- 0 -->
      <g transform="translate(191.368578 314.722188) scale(0.1 -0.1)">
       <use xlink:href="#DejaVuSans-30"/>
      </g>
     </g>
    </g>
    <g id="xtick_5">
     <g id="line2d_5">
      <g>
       <use xlink:href="#m675020b957" x="231.720593" y="300.12375" style="stroke: #000000; stroke-width: 0.8"/>
      </g>
     </g>
     <g id="text_5">
      <!-- 10 -->
      <g transform="translate(225.358093 314.722188) scale(0.1 -0.1)">
       <use xlink:href="#DejaVuSans-31"/>
       <use xlink:href="#DejaVuSans-30" x="63.623047"/>
      </g>
     </g>
    </g>
    <g id="xtick_6">
     <g id="line2d_6">
      <g>
       <use xlink:href="#m675020b957" x="268.891359" y="300.12375" style="stroke: #000000; stroke-width: 0.8"/>
      </g>
     </g>
     <g id="text_6">
      <!-- 20 -->
      <g transform="translate(262.528859 314.722188) scale(0.1 -0.1)">
       <use xlink:href="#DejaVuSans-32"/>
       <use xlink:href="#DejaVuSans-30" x="63.623047"/>
      </g>
     </g>
    </g>
    <g id="xtick_7">
     <g id="line2d_7">
      <g>
       <use xlink:href="#m675020b957" x="306.062124" y="300.12375" style="stroke: #000000; stroke-width: 0.8"/>
      </g>
     </g>
     <g id="text_7">
      <!-- 30 -->
      <g transform="translate(299.699624 314.722188) scale(0.1 -0.1)">
       <use xlink:href="#DejaVuSans-33"/>
       <use xlink:href="#DejaVuSans-30" x="63.623047"/>
      </g>
     </g>
    </g>
    <g id="text_8">
     <!-- Latitude -->
     <g transform="translate(175.82946 328.400312) scale(0.1 -0.1)">
      <defs>
       <path id="DejaVuSans-4c" d="M 628 4666 
L 1259 4666 
L 1259 531 
L 3531 531 
L 3531 0 
L 628 0 
L 628 4666 
z
" transform="scale(0.015625)"/>
       <path id="DejaVuSans-61" d="M 2194 1759 
Q 1497 1759 1228 1600 
Q 959 1441 959 1056 
Q 959 750 1161 570 
Q 1363 391 1709 391 
Q 2188 391 2477 730 
Q 2766 1069 2766 1631 
L 2766 1759 
L 2194 1759 
z
M 3341 1997 
L 3341 0 
L 2766 0 
L 2766 531 
Q 2569 213 2275 61 
Q 1981 -91 1556 -91 
Q 1019 -91 701 211 
Q 384 513 384 1019 
Q 384 1609 779 1909 
Q 1175 2209 1959 2209 
L 2766 2209 
L 2766 2266 
Q 2766 2663 2505 2880 
Q 2244 3097 1772 3097 
Q 1472 3097 1187 3025 
Q 903 2953 641 2809 
L 641 3341 
Q 956 3463 1253 3523 
Q 1550 3584 1831 3584 
Q 2591 3584 2966 3190 
Q 3341 2797 3341 1997 
z
" transform="scale(0.015625)"/>
       <path id="DejaVuSans-74" d="M 1172 4494 
L 1172 3500 
L 2356 3500 
L 2356 3053 
L 1172 3053 
L 1172 1153 
Q 1172 725 1289 603 
Q 1406 481 1766 481 
L 2356 481 
L 2356 0 
L 1766 0 
Q 1100 0 847 248 
Q 594 497 594 1153 
L 594 3053 
L 172 3053 
L 172 3500 
L 594 3500 
L 594 4494 
L 1172 4494 
z
" transform="scale(0.015625)"/>
       <path id="DejaVuSans-69" d="M 603 3500 
L 1178 3500 
L 1178 0 
L 603 0 
L 603 3500 
z
M 603 4863 
L 1178 4863 
L 1178 4134 
L 603 4134 
L 603 4863 
z
" transform="scale(0.015625)"/>
       <path id="DejaVuSans-75" d="M 544 1381 
L 544 3500 
L 1119 3500 
L 1119 1403 
Q 1119 906 1312 657 
Q 1506 409 1894 409 
Q 2359 409 2629 706 
Q 2900 1003 2900 1516 
L 2900 3500 
L 3475 3500 
L 3475 0 
L 2900 0 
L 2900 538 
Q 2691 219 2414 64 
Q 2138 -91 1772 -91 
Q 1169 -91 856 284 
Q 544 659 544 1381 
z
M 1991 3584 
L 1991 3584 
z
" transform="scale(0.015625)"/>
       <path id="DejaVuSans-64" d="M 2906 2969 
L 2906 4863 
L 3481 4863 
L 3481 0 
L 2906 0 
L 2906 525 
Q 2725 213 2448 61 
Q 2172 -91 1784 -91 
Q 1150 -91 751 415 
Q 353 922 353 1747 
Q 353 2572 751 3078 
Q 1150 3584 1784 3584 
Q 2172 3584 2448 3432 
Q 2725 3281 2906 2969 
z
M 947 1747 
Q 947 1113 1208 752 
Q 1469 391 1925 391 
Q 2381 391 2643 752 
Q 2906 1113 2906 1747 
Q 2906 2381 2643 2742 
Q 2381 3103 1925 3103 
Q 1469 3103 1208 2742 
Q 947 2381 947 1747 
z
" transform="scale(0.015625)"/>
       <path id="DejaVuSans-65" d="M 3597 1894 
L 3597 1613 
L 953 1613 
Q 991 1019 1311 708 
Q 1631 397 2203 397 
Q 2534 397 2845 478 
Q 3156 559 3463 722 
L 3463 178 
Q 3153 47 2828 -22 
Q 2503 -91 2169 -91 
Q 1331 -91 842 396 
Q 353 884 353 1716 
Q 353 2575 817 3079 
Q 1281 3584 2069 3584 
Q 2775 3584 3186 3129 
Q 3597 2675 3597 1894 
z
M 3022 2063 
Q 3016 2534 2758 2815 
Q 2500 3097 2075 3097 
Q 1594 3097 1305 2825 
Q 1016 2553 972 2059 
L 3022 2063 
z
" transform="scale(0.015625)"/>
      </defs>
      <use xlink:href="#DejaVuSans-4c"/>
      <use xlink:href="#DejaVuSans-61" x="55.712891"/>
      <use xlink:href="#DejaVuSans-74" x="116.992188"/>
      <use xlink:href="#DejaVuSans-69" x="156.201172"/>
      <use xlink:href="#DejaVuSans-74" x="183.984375"/>
      <use xlink:href="#DejaVuSans-75" x="223.193359"/>
      <use xlink:href="#DejaVuSans-64" x="286.572266"/>
      <use xlink:href="#DejaVuSans-65" x="350.048828"/>
     </g>
    </g>
   </g>
   <g id="matplotlib.axis_2">
    <g id="ytick_1">
     <g id="line2d_8">
      <defs>
       <path id="mcd21e6ce3c" d="M 0 0 
L -3.5 0 
" style="stroke: #000000; stroke-width: 0.8"/>
      </defs>
      <g>
       <use xlink:href="#mcd21e6ce3c" x="55.345313" y="291.721682" style="stroke: #000000; stroke-width: 0.8"/>
      </g>
     </g>
     <g id="text_9">
      <!-- −100 -->
      <g transform="translate(20.878125 295.520901) scale(0.1 -0.1)">
       <use xlink:href="#DejaVuSans-2212"/>
       <use xlink:href="#DejaVuSans-31" x="83.789062"/>
       <use xlink:href="#DejaVuSans-30" x="147.412109"/>
       <use xlink:href="#DejaVuSans-30" x="211.035156"/>
      </g>
     </g>
    </g>
    <g id="ytick_2">
     <g id="line2d_9">
      <g>
       <use xlink:href="#mcd21e6ce3c" x="55.345313" y="244.149031" style="stroke: #000000; stroke-width: 0.8"/>
      </g>
     </g>
     <g id="text_10">
      <!-- −80 -->
      <g transform="translate(27.240625 247.94825) scale(0.1 -0.1)">
       <defs>
        <path id="DejaVuSans-38" d="M 2034 2216 
Q 1584 2216 1326 1975 
Q 1069 1734 1069 1313 
Q 1069 891 1326 650 
Q 1584 409 2034 409 
Q 2484 409 2743 651 
Q 3003 894 3003 1313 
Q 3003 1734 2745 1975 
Q 2488 2216 2034 2216 
z
M 1403 2484 
Q 997 2584 770 2862 
Q 544 3141 544 3541 
Q 544 4100 942 4425 
Q 1341 4750 2034 4750 
Q 2731 4750 3128 4425 
Q 3525 4100 3525 3541 
Q 3525 3141 3298 2862 
Q 3072 2584 2669 2484 
Q 3125 2378 3379 2068 
Q 3634 1759 3634 1313 
Q 3634 634 3220 271 
Q 2806 -91 2034 -91 
Q 1263 -91 848 271 
Q 434 634 434 1313 
Q 434 1759 690 2068 
Q 947 2378 1403 2484 
z
M 1172 3481 
Q 1172 3119 1398 2916 
Q 1625 2713 2034 2713 
Q 2441 2713 2670 2916 
Q 2900 3119 2900 3481 
Q 2900 3844 2670 4047 
Q 2441 4250 2034 4250 
Q 1625 4250 1398 4047 
Q 1172 3844 1172 3481 
z
" transform="scale(0.015625)"/>
       </defs>
       <use xlink:href="#DejaVuSans-2212"/>
       <use xlink:href="#DejaVuSans-38" x="83.789062"/>
       <use xlink:href="#DejaVuSans-30" x="147.412109"/>
      </g>
     </g>
    </g>
    <g id="ytick_3">
     <g id="line2d_10">
      <g>
       <use xlink:href="#mcd21e6ce3c" x="55.345313" y="196.57638" style="stroke: #000000; stroke-width: 0.8"/>
      </g>
     </g>
     <g id="text_11">
      <!-- −60 -->
      <g transform="translate(27.240625 200.375599) scale(0.1 -0.1)">
       <defs>
        <path id="DejaVuSans-36" d="M 2113 2584 
Q 1688 2584 1439 2293 
Q 1191 2003 1191 1497 
Q 1191 994 1439 701 
Q 1688 409 2113 409 
Q 2538 409 2786 701 
Q 3034 994 3034 1497 
Q 3034 2003 2786 2293 
Q 2538 2584 2113 2584 
z
M 3366 4563 
L 3366 3988 
Q 3128 4100 2886 4159 
Q 2644 4219 2406 4219 
Q 1781 4219 1451 3797 
Q 1122 3375 1075 2522 
Q 1259 2794 1537 2939 
Q 1816 3084 2150 3084 
Q 2853 3084 3261 2657 
Q 3669 2231 3669 1497 
Q 3669 778 3244 343 
Q 2819 -91 2113 -91 
Q 1303 -91 875 529 
Q 447 1150 447 2328 
Q 447 3434 972 4092 
Q 1497 4750 2381 4750 
Q 2619 4750 2861 4703 
Q 3103 4656 3366 4563 
z
" transform="scale(0.015625)"/>
       </defs>
       <use xlink:href="#DejaVuSans-2212"/>
       <use xlink:href="#DejaVuSans-36" x="83.789062"/>
       <use xlink:href="#DejaVuSans-30" x="147.412109"/>
      </g>
     </g>
    </g>
    <g id="ytick_4">
     <g id="line2d_11">
      <g>
       <use xlink:href="#mcd21e6ce3c" x="55.345313" y="149.003729" style="stroke: #000000; stroke-width: 0.8"/>
      </g>
     </g>
     <g id="text_12">
      <!-- −40 -->
      <g transform="translate(27.240625 152.802947) scale(0.1 -0.1)">
       <defs>
        <path id="DejaVuSans-34" d="M 2419 4116 
L 825 1625 
L 2419 1625 
L 2419 4116 
z
M 2253 4666 
L 3047 4666 
L 3047 1625 
L 3713 1625 
L 3713 1100 
L 3047 1100 
L 3047 0 
L 2419 0 
L 2419 1100 
L 313 1100 
L 313 1709 
L 2253 4666 
z
" transform="scale(0.015625)"/>
       </defs>
       <use xlink:href="#DejaVuSans-2212"/>
       <use xlink:href="#DejaVuSans-34" x="83.789062"/>
       <use xlink:href="#DejaVuSans-30" x="147.412109"/>
      </g>
     </g>
    </g>
    <g id="ytick_5">
     <g id="line2d_12">
      <g>
       <use xlink:href="#mcd21e6ce3c" x="55.345313" y="101.431078" style="stroke: #000000; stroke-width: 0.8"/>
      </g>
     </g>
     <g id="text_13">
      <!-- −20 -->
      <g transform="translate(27.240625 105.230296) scale(0.1 -0.1)">
       <use xlink:href="#DejaVuSans-2212"/>
       <use xlink:href="#DejaVuSans-32" x="83.789062"/>
       <use xlink:href="#DejaVuSans-30" x="147.412109"/>
      </g>
     </g>
    </g>
    <g id="ytick_6">
     <g id="line2d_13">
      <g>
       <use xlink:href="#mcd21e6ce3c" x="55.345313" y="53.858427" style="stroke: #000000; stroke-width: 0.8"/>
      </g>
     </g>
     <g id="text_14">
      <!-- 0 -->
      <g transform="translate(41.982813 57.657645) scale(0.1 -0.1)">
       <use xlink:href="#DejaVuSans-30"/>
      </g>
     </g>
    </g>
    <g id="text_15">
     <!-- Average Coral Cover Change Rate (%) -->
     <g transform="translate(14.798438 256.659219) rotate(-90) scale(0.1 -0.1)">
      <defs>
       <path id="DejaVuSans-41" d="M 2188 4044 
L 1331 1722 
L 3047 1722 
L 2188 4044 
z
M 1831 4666 
L 2547 4666 
L 4325 0 
L 3669 0 
L 3244 1197 
L 1141 1197 
L 716 0 
L 50 0 
L 1831 4666 
z
" transform="scale(0.015625)"/>
       <path id="DejaVuSans-76" d="M 191 3500 
L 800 3500 
L 1894 563 
L 2988 3500 
L 3597 3500 
L 2284 0 
L 1503 0 
L 191 3500 
z
" transform="scale(0.015625)"/>
       <path id="DejaVuSans-72" d="M 2631 2963 
Q 2534 3019 2420 3045 
Q 2306 3072 2169 3072 
Q 1681 3072 1420 2755 
Q 1159 2438 1159 1844 
L 1159 0 
L 581 0 
L 581 3500 
L 1159 3500 
L 1159 2956 
Q 1341 3275 1631 3429 
Q 1922 3584 2338 3584 
Q 2397 3584 2469 3576 
Q 2541 3569 2628 3553 
L 2631 2963 
z
" transform="scale(0.015625)"/>
       <path id="DejaVuSans-67" d="M 2906 1791 
Q 2906 2416 2648 2759 
Q 2391 3103 1925 3103 
Q 1463 3103 1205 2759 
Q 947 2416 947 1791 
Q 947 1169 1205 825 
Q 1463 481 1925 481 
Q 2391 481 2648 825 
Q 2906 1169 2906 1791 
z
M 3481 434 
Q 3481 -459 3084 -895 
Q 2688 -1331 1869 -1331 
Q 1566 -1331 1297 -1286 
Q 1028 -1241 775 -1147 
L 775 -588 
Q 1028 -725 1275 -790 
Q 1522 -856 1778 -856 
Q 2344 -856 2625 -561 
Q 2906 -266 2906 331 
L 2906 616 
Q 2728 306 2450 153 
Q 2172 0 1784 0 
Q 1141 0 747 490 
Q 353 981 353 1791 
Q 353 2603 747 3093 
Q 1141 3584 1784 3584 
Q 2172 3584 2450 3431 
Q 2728 3278 2906 2969 
L 2906 3500 
L 3481 3500 
L 3481 434 
z
" transform="scale(0.015625)"/>
       <path id="DejaVuSans-20" transform="scale(0.015625)"/>
       <path id="DejaVuSans-43" d="M 4122 4306 
L 4122 3641 
Q 3803 3938 3442 4084 
Q 3081 4231 2675 4231 
Q 1875 4231 1450 3742 
Q 1025 3253 1025 2328 
Q 1025 1406 1450 917 
Q 1875 428 2675 428 
Q 3081 428 3442 575 
Q 3803 722 4122 1019 
L 4122 359 
Q 3791 134 3420 21 
Q 3050 -91 2638 -91 
Q 1578 -91 968 557 
Q 359 1206 359 2328 
Q 359 3453 968 4101 
Q 1578 4750 2638 4750 
Q 3056 4750 3426 4639 
Q 3797 4528 4122 4306 
z
" transform="scale(0.015625)"/>
       <path id="DejaVuSans-6f" d="M 1959 3097 
Q 1497 3097 1228 2736 
Q 959 2375 959 1747 
Q 959 1119 1226 758 
Q 1494 397 1959 397 
Q 2419 397 2687 759 
Q 2956 1122 2956 1747 
Q 2956 2369 2687 2733 
Q 2419 3097 1959 3097 
z
M 1959 3584 
Q 2709 3584 3137 3096 
Q 3566 2609 3566 1747 
Q 3566 888 3137 398 
Q 2709 -91 1959 -91 
Q 1206 -91 779 398 
Q 353 888 353 1747 
Q 353 2609 779 3096 
Q 1206 3584 1959 3584 
z
" transform="scale(0.015625)"/>
       <path id="DejaVuSans-6c" d="M 603 4863 
L 1178 4863 
L 1178 0 
L 603 0 
L 603 4863 
z
" transform="scale(0.015625)"/>
       <path id="DejaVuSans-68" d="M 3513 2113 
L 3513 0 
L 2938 0 
L 2938 2094 
Q 2938 2591 2744 2837 
Q 2550 3084 2163 3084 
Q 1697 3084 1428 2787 
Q 1159 2491 1159 1978 
L 1159 0 
L 581 0 
L 581 4863 
L 1159 4863 
L 1159 2956 
Q 1366 3272 1645 3428 
Q 1925 3584 2291 3584 
Q 2894 3584 3203 3211 
Q 3513 2838 3513 2113 
z
" transform="scale(0.015625)"/>
       <path id="DejaVuSans-6e" d="M 3513 2113 
L 3513 0 
L 2938 0 
L 2938 2094 
Q 2938 2591 2744 2837 
Q 2550 3084 2163 3084 
Q 1697 3084 1428 2787 
Q 1159 2491 1159 1978 
L 1159 0 
L 581 0 
L 581 3500 
L 1159 3500 
L 1159 2956 
Q 1366 3272 1645 3428 
Q 1925 3584 2291 3584 
Q 2894 3584 3203 3211 
Q 3513 2838 3513 2113 
z
" transform="scale(0.015625)"/>
       <path id="DejaVuSans-52" d="M 2841 2188 
Q 3044 2119 3236 1894 
Q 3428 1669 3622 1275 
L 4263 0 
L 3584 0 
L 2988 1197 
Q 2756 1666 2539 1819 
Q 2322 1972 1947 1972 
L 1259 1972 
L 1259 0 
L 628 0 
L 628 4666 
L 2053 4666 
Q 2853 4666 3247 4331 
Q 3641 3997 3641 3322 
Q 3641 2881 3436 2590 
Q 3231 2300 2841 2188 
z
M 1259 4147 
L 1259 2491 
L 2053 2491 
Q 2509 2491 2742 2702 
Q 2975 2913 2975 3322 
Q 2975 3731 2742 3939 
Q 2509 4147 2053 4147 
L 1259 4147 
z
" transform="scale(0.015625)"/>
       <path id="DejaVuSans-28" d="M 1984 4856 
Q 1566 4138 1362 3434 
Q 1159 2731 1159 2009 
Q 1159 1288 1364 580 
Q 1569 -128 1984 -844 
L 1484 -844 
Q 1016 -109 783 600 
Q 550 1309 550 2009 
Q 550 2706 781 3412 
Q 1013 4119 1484 4856 
L 1984 4856 
z
" transform="scale(0.015625)"/>
       <path id="DejaVuSans-25" d="M 4653 2053 
Q 4381 2053 4226 1822 
Q 4072 1591 4072 1178 
Q 4072 772 4226 539 
Q 4381 306 4653 306 
Q 4919 306 5073 539 
Q 5228 772 5228 1178 
Q 5228 1588 5073 1820 
Q 4919 2053 4653 2053 
z
M 4653 2450 
Q 5147 2450 5437 2106 
Q 5728 1763 5728 1178 
Q 5728 594 5436 251 
Q 5144 -91 4653 -91 
Q 4153 -91 3862 251 
Q 3572 594 3572 1178 
Q 3572 1766 3864 2108 
Q 4156 2450 4653 2450 
z
M 1428 4353 
Q 1159 4353 1004 4120 
Q 850 3888 850 3481 
Q 850 3069 1003 2837 
Q 1156 2606 1428 2606 
Q 1700 2606 1854 2837 
Q 2009 3069 2009 3481 
Q 2009 3884 1853 4118 
Q 1697 4353 1428 4353 
z
M 4250 4750 
L 4750 4750 
L 1831 -91 
L 1331 -91 
L 4250 4750 
z
M 1428 4750 
Q 1922 4750 2215 4408 
Q 2509 4066 2509 3481 
Q 2509 2891 2217 2550 
Q 1925 2209 1428 2209 
Q 931 2209 642 2551 
Q 353 2894 353 3481 
Q 353 4063 643 4406 
Q 934 4750 1428 4750 
z
" transform="scale(0.015625)"/>
       <path id="DejaVuSans-29" d="M 513 4856 
L 1013 4856 
Q 1481 4119 1714 3412 
Q 1947 2706 1947 2009 
Q 1947 1309 1714 600 
Q 1481 -109 1013 -844 
L 513 -844 
Q 928 -128 1133 580 
Q 1338 1288 1338 2009 
Q 1338 2731 1133 3434 
Q 928 4138 513 4856 
z
" transform="scale(0.015625)"/>
      </defs>
      <use xlink:href="#DejaVuSans-41"/>
      <use xlink:href="#DejaVuSans-76" x="62.533203"/>
      <use xlink:href="#DejaVuSans-65" x="121.712891"/>
      <use xlink:href="#DejaVuSans-72" x="183.236328"/>
      <use xlink:href="#DejaVuSans-61" x="224.349609"/>
      <use xlink:href="#DejaVuSans-67" x="285.628906"/>
      <use xlink:href="#DejaVuSans-65" x="349.105469"/>
      <use xlink:href="#DejaVuSans-20" x="410.628906"/>
      <use xlink:href="#DejaVuSans-43" x="442.416016"/>
      <use xlink:href="#DejaVuSans-6f" x="512.240234"/>
      <use xlink:href="#DejaVuSans-72" x="573.421875"/>
      <use xlink:href="#DejaVuSans-61" x="614.535156"/>
      <use xlink:href="#DejaVuSans-6c" x="675.814453"/>
      <use xlink:href="#DejaVuSans-20" x="703.597656"/>
      <use xlink:href="#DejaVuSans-43" x="735.384766"/>
      <use xlink:href="#DejaVuSans-6f" x="805.208984"/>
      <use xlink:href="#DejaVuSans-76" x="866.390625"/>
      <use xlink:href="#DejaVuSans-65" x="925.570312"/>
      <use xlink:href="#DejaVuSans-72" x="987.09375"/>
      <use xlink:href="#DejaVuSans-20" x="1028.207031"/>
      <use xlink:href="#DejaVuSans-43" x="1059.994141"/>
      <use xlink:href="#DejaVuSans-68" x="1129.818359"/>
      <use xlink:href="#DejaVuSans-61" x="1193.197266"/>
      <use xlink:href="#DejaVuSans-6e" x="1254.476562"/>
      <use xlink:href="#DejaVuSans-67" x="1317.855469"/>
      <use xlink:href="#DejaVuSans-65" x="1381.332031"/>
      <use xlink:href="#DejaVuSans-20" x="1442.855469"/>
      <use xlink:href="#DejaVuSans-52" x="1474.642578"/>
      <use xlink:href="#DejaVuSans-61" x="1541.875"/>
      <use xlink:href="#DejaVuSans-74" x="1603.154297"/>
      <use xlink:href="#DejaVuSans-65" x="1642.363281"/>
      <use xlink:href="#DejaVuSans-20" x="1703.886719"/>
      <use xlink:href="#DejaVuSans-28" x="1735.673828"/>
      <use xlink:href="#DejaVuSans-25" x="1774.6875"/>
      <use xlink:href="#DejaVuSans-29" x="1869.707031"/>
     </g>
    </g>
   </g>
   <g id="line2d_14">
    <path d="M 71.886303 109.50618 
L 75.60338 202.095443 
L 79.320456 250.569915 
L 83.037533 237.149686 
L 86.754609 285.727275 
L 90.471686 287.496222 
L 94.188762 287.045786 
L 97.905839 281.380394 
L 101.622915 283.897179 
L 105.339992 274.371089 
L 109.057068 281.068506 
L 112.774145 274.776659 
L 116.491221 271.120263 
L 120.208298 272.789109 
L 123.925374 261.900861 
L 127.642451 263.321643 
L 131.359527 263.742141 
L 135.076604 268.428409 
L 138.79368 269.619305 
L 142.510757 267.148624 
L 146.227833 268.965361 
L 149.94491 264.504717 
L 153.661986 255.205648 
L 157.379063 251.372049 
L 161.096139 256.13851 
L 164.813216 258.26116 
L 168.530293 254.026467 
L 172.247369 250.752261 
L 175.964446 260.881058 
L 179.681522 264.216185 
L 183.398599 244.842592 
L 187.115675 246.338859 
L 190.832752 240.525959 
L 194.549828 244.578935 
L 198.266905 248.524155 
L 201.983981 252.183345 
L 205.701058 256.5496 
L 209.418134 248.3595 
L 213.135211 249.164331 
L 216.852287 257.117245 
L 220.569364 252.77915 
L 224.28644 258.091312 
L 228.003517 266.134056 
L 231.720593 264.576093 
L 235.43767 265.971584 
L 239.154746 267.486432 
L 242.871823 270.112493 
L 246.588899 270.567655 
L 250.305976 272.839498 
L 254.023052 264.815623 
L 257.740129 253.24911 
L 261.457206 254.752383 
L 265.174282 264.046465 
L 268.891359 266.276209 
L 272.608435 255.030149 
L 276.325512 241.770342 
L 280.042588 231.628465 
L 283.759665 251.496909 
L 287.476741 247.312552 
L 291.193818 271.856019 
L 294.910894 270.844032 
L 298.627971 262.347338 
L 302.345047 276.710189 
L 306.062124 285.331748 
L 309.7792 156.758448 
L 313.496277 198.252201 
L 317.213353 198.321215 
L 320.93043 252.104181 
L 324.647506 234.635661 
" clip-path="url(#p503da407aa)" style="fill: none; stroke: #1f77b4; stroke-width: 1.5; stroke-linecap: square"/>
   </g>
   <g id="line2d_15">
    <path d="M 71.886303 75.306973 
L 75.60338 177.204564 
L 79.320456 220.168381 
L 83.037533 208.335223 
L 86.754609 280.742599 
L 90.471686 284.539976 
L 94.188762 283.103191 
L 97.905839 277.065863 
L 101.622915 276.847136 
L 105.339992 272.735983 
L 109.057068 276.894112 
L 112.774145 269.027118 
L 116.491221 263.884756 
L 120.208298 266.82334 
L 123.925374 252.550227 
L 127.642451 256.825506 
L 131.359527 261.57863 
L 135.076604 271.342617 
L 138.79368 266.21436 
L 142.510757 259.291994 
L 146.227833 258.351236 
L 149.94491 255.606669 
L 153.661986 251.198125 
L 157.379063 249.075213 
L 161.096139 250.550886 
L 164.813216 252.709112 
L 168.530293 252.292259 
L 172.247369 249.431486 
L 175.964446 260.445484 
L 179.681522 261.436581 
L 183.398599 236.200862 
L 187.115675 234.300743 
L 190.832752 228.836554 
L 194.549828 235.133845 
L 198.266905 243.461801 
L 201.983981 248.799338 
L 205.701058 254.111879 
L 209.418134 242.517274 
L 213.135211 245.925318 
L 216.852287 252.861203 
L 220.569364 244.985248 
L 224.28644 252.635901 
L 228.003517 260.25683 
L 231.720593 259.333419 
L 235.43767 262.21499 
L 239.154746 264.153042 
L 242.871823 264.866289 
L 246.588899 263.594096 
L 250.305976 268.284701 
L 254.023052 258.377385 
L 257.740129 247.984588 
L 261.457206 251.030899 
L 265.174282 260.657004 
L 268.891359 264.615361 
L 272.608435 253.705214 
L 276.325512 242.555411 
L 280.042588 233.854571 
L 283.759665 255.613563 
L 287.476741 252.282831 
L 291.193818 276.726708 
L 294.910894 273.006171 
L 298.627971 262.945536 
L 302.345047 275.022311 
L 306.062124 240.333148 
L 309.7792 142.185991 
L 313.496277 209.047206 
L 317.213353 212.879628 
L 320.93043 232.489378 
L 324.647506 228.726561 
" clip-path="url(#p503da407aa)" style="fill: none; stroke: #aec7e8; stroke-width: 1.5; stroke-linecap: square"/>
   </g>
   <g id="line2d_16">
    <path d="M 71.886303 72.636025 
L 75.60338 158.251761 
L 79.320456 152.621442 
L 83.037533 165.245175 
L 86.754609 233.558753 
L 90.471686 272.489038 
L 94.188762 218.834061 
L 97.905839 232.966799 
L 101.622915 258.090994 
L 105.339992 266.345389 
L 109.057068 270.69017 
L 112.774145 267.208383 
L 116.491221 262.140071 
L 120.208298 266.410904 
L 123.925374 257.182986 
L 127.642451 262.039547 
L 131.359527 259.316363 
L 135.076604 257.694575 
L 138.79368 258.225797 
L 142.510757 256.66124 
L 146.227833 257.204338 
L 149.94491 256.055352 
L 153.661986 252.842463 
L 157.379063 254.040252 
L 161.096139 256.791198 
L 164.813216 258.256345 
L 168.530293 255.153514 
L 172.247369 251.345883 
L 175.964446 260.793763 
L 179.681522 263.782094 
L 183.398599 250.136319 
L 187.115675 249.219388 
L 190.832752 239.45615 
L 194.549828 244.681899 
L 198.266905 249.733626 
L 201.983981 253.519743 
L 205.701058 260.632934 
L 209.418134 251.963499 
L 213.135211 254.139148 
L 216.852287 259.355699 
L 220.569364 250.203243 
L 224.28644 261.591549 
L 228.003517 271.61605 
L 231.720593 271.72728 
L 235.43767 275.27781 
L 239.154746 278.01189 
L 242.871823 277.797985 
L 246.588899 279.738073 
L 250.305976 281.429663 
L 254.023052 276.265068 
L 257.740129 273.883857 
L 261.457206 275.672145 
L 265.174282 281.167305 
L 268.891359 279.389118 
L 272.608435 274.782205 
L 276.325512 269.486519 
L 280.042588 260.603172 
L 283.759665 271.315726 
L 287.476741 262.934455 
L 291.193818 283.851683 
L 294.910894 284.436575 
L 298.627971 268.934489 
L 302.345047 267.000564 
L 306.062124 287.161624 
L 309.7792 186.035447 
L 313.496277 226.910141 
L 317.213353 264.285263 
L 320.93043 195.397659 
L 324.647506 95.936212 
" clip-path="url(#p503da407aa)" style="fill: none; stroke: #ffbb78; stroke-width: 1.5; stroke-linecap: square"/>
   </g>
   <g id="line2d_17">
    <path d="M 71.886303 61.733371 
L 75.60338 134.494065 
L 79.320456 125.560138 
L 83.037533 158.700184 
L 86.754609 249.553445 
L 90.471686 274.913628 
L 94.188762 256.451768 
L 97.905839 251.238095 
L 101.622915 260.849774 
L 105.339992 270.640349 
L 109.057068 276.083265 
L 112.774145 273.780911 
L 116.491221 271.068682 
L 120.208298 272.170536 
L 123.925374 256.660518 
L 127.642451 261.29198 
L 131.359527 259.50782 
L 135.076604 262.706478 
L 138.79368 259.516268 
L 142.510757 253.449602 
L 146.227833 247.711341 
L 149.94491 250.956846 
L 153.661986 245.203442 
L 157.379063 244.576017 
L 161.096139 241.083742 
L 164.813216 243.264296 
L 168.530293 237.236632 
L 172.247369 230.38962 
L 175.964446 241.059718 
L 179.681522 245.3321 
L 183.398599 227.148601 
L 187.115675 226.731845 
L 190.832752 218.846637 
L 194.549828 227.56065 
L 198.266905 235.556958 
L 201.983981 235.499549 
L 205.701058 242.711438 
L 209.418134 236.683545 
L 213.135211 235.971075 
L 216.852287 242.148921 
L 220.569364 242.184134 
L 224.28644 252.011799 
L 228.003517 256.028731 
L 231.720593 254.382492 
L 235.43767 251.68233 
L 239.154746 250.558711 
L 242.871823 250.772724 
L 246.588899 252.320596 
L 250.305976 261.436529 
L 254.023052 257.650145 
L 257.740129 253.790681 
L 261.457206 256.520569 
L 265.174282 265.08301 
L 268.891359 268.170326 
L 272.608435 246.877227 
L 276.325512 257.535667 
L 280.042588 259.375599 
L 283.759665 273.357831 
L 287.476741 255.231824 
L 291.193818 284.538747 
L 294.910894 273.500614 
L 298.627971 261.581796 
L 302.345047 281.144957 
L 306.062124 242.695788 
L 309.7792 190.306544 
L 313.496277 269.480338 
L 317.213353 245.751488 
L 320.93043 263.56604 
L 324.647506 231.762356 
" clip-path="url(#p503da407aa)" style="fill: none; stroke: #98df8a; stroke-width: 1.5; stroke-linecap: square"/>
   </g>
   <g id="line2d_18">
    <path d="M 71.886303 69.789437 
L 75.60338 133.587545 
L 79.320456 114.709413 
L 83.037533 138.749902 
L 86.754609 240.268005 
L 90.471686 254.267557 
L 94.188762 259.69634 
L 97.905839 245.041597 
L 101.622915 243.183413 
L 105.339992 240.772511 
L 109.057068 253.786075 
L 112.774145 246.70296 
L 116.491221 251.074964 
L 120.208298 255.751241 
L 123.925374 243.977611 
L 127.642451 247.468249 
L 131.359527 249.240681 
L 135.076604 258.332511 
L 138.79368 254.957416 
L 142.510757 242.213135 
L 146.227833 242.92719 
L 149.94491 241.999004 
L 153.661986 237.147935 
L 157.379063 233.009146 
L 161.096139 234.189838 
L 164.813216 233.044215 
L 168.530293 224.611883 
L 172.247369 215.671642 
L 175.964446 228.948858 
L 179.681522 230.526118 
L 183.398599 207.496197 
L 187.115675 209.518361 
L 190.832752 202.289373 
L 194.549828 212.778353 
L 198.266905 221.398235 
L 201.983981 229.675767 
L 205.701058 238.393944 
L 209.418134 232.625026 
L 213.135211 233.358224 
L 216.852287 241.300303 
L 220.569364 232.730894 
L 224.28644 244.182083 
L 228.003517 254.406406 
L 231.720593 252.854645 
L 235.43767 252.845253 
L 239.154746 251.127026 
L 242.871823 252.409846 
L 246.588899 254.395243 
L 250.305976 266.661795 
L 254.023052 259.029124 
L 257.740129 254.247329 
L 261.457206 253.667258 
L 265.174282 263.074897 
L 268.891359 264.302409 
L 272.608435 252.233909 
L 276.325512 262.731623 
L 280.042588 258.913734 
L 283.759665 276.913355 
L 287.476741 260.804637 
L 291.193818 285.337669 
L 294.910894 284.269933 
L 298.627971 269.988768 
L 302.345047 259.086748 
L 306.062124 226.122379 
L 309.7792 159.575402 
L 313.496277 207.406 
L 317.213353 219.874781 
L 320.93043 247.312147 
L 324.647506 218.919345 
" clip-path="url(#p503da407aa)" style="fill: none; stroke: #ff9896; stroke-width: 1.5; stroke-linecap: square"/>
   </g>
   <g id="line2d_19">
    <path d="M 68.169226 74.210264 
L 71.886303 61.912519 
L 75.60338 117.547026 
L 79.320456 84.078135 
L 83.037533 88.290418 
L 86.754609 180.918473 
L 90.471686 216.594179 
L 94.188762 202.411501 
L 97.905839 206.28925 
L 101.622915 200.630015 
L 105.339992 195.505417 
L 109.057068 214.743904 
L 112.774145 197.529097 
L 116.491221 206.803039 
L 120.208298 214.583558 
L 123.925374 198.476405 
L 127.642451 204.507084 
L 131.359527 207.406543 
L 135.076604 217.14087 
L 138.79368 215.039149 
L 142.510757 204.002337 
L 146.227833 200.493477 
L 149.94491 208.268261 
L 153.661986 197.226675 
L 157.379063 198.098645 
L 161.096139 191.037423 
L 164.813216 185.009627 
L 168.530293 173.359592 
L 172.247369 163.22839 
L 175.964446 170.701355 
L 179.681522 165.929881 
L 183.398599 144.787063 
L 187.115675 147.006218 
L 190.832752 142.949656 
L 194.549828 161.105325 
L 198.266905 167.966662 
L 201.983981 178.161986 
L 205.701058 194.198706 
L 209.418134 180.366044 
L 213.135211 179.745596 
L 216.852287 185.661544 
L 220.569364 186.828228 
L 224.28644 208.010029 
L 228.003517 212.511404 
L 231.720593 210.210145 
L 235.43767 211.238544 
L 239.154746 207.888247 
L 242.871823 212.413988 
L 246.588899 219.88739 
L 250.305976 229.891704 
L 254.023052 213.461455 
L 257.740129 194.254918 
L 261.457206 206.345985 
L 265.174282 219.273859 
L 268.891359 238.140596 
L 272.608435 210.988857 
L 276.325512 221.167106 
L 280.042588 203.571343 
L 283.759665 228.773895 
L 287.476741 224.71416 
L 291.193818 261.944365 
L 294.910894 254.403209 
L 298.627971 247.29517 
L 302.345047 260.840497 
L 306.062124 187.364045 
L 309.7792 134.760362 
L 313.496277 221.763689 
L 317.213353 203.653888 
L 320.93043 219.182412 
L 324.647506 176.728853 
" clip-path="url(#p503da407aa)" style="fill: none; stroke: #c5b0d5; stroke-width: 1.5; stroke-linecap: square"/>
   </g>
   <g id="line2d_20">
    <path d="M 71.886303 122.733839 
L 75.60338 174.918597 
L 79.320456 195.534098 
L 83.037533 229.462762 
L 86.754609 269.4878 
L 90.471686 283.667131 
L 94.188762 275.067445 
L 97.905839 277.835123 
L 101.622915 279.546535 
L 105.339992 268.974235 
L 109.057068 275.644197 
L 112.774145 270.124334 
L 116.491221 264.715069 
L 120.208298 265.545458 
L 123.925374 251.920138 
L 127.642451 261.03487 
L 131.359527 258.893243 
L 135.076604 262.658943 
L 138.79368 264.375217 
L 142.510757 261.020739 
L 146.227833 262.811977 
L 149.94491 262.697859 
L 153.661986 258.018742 
L 157.379063 259.085854 
L 161.096139 258.552959 
L 164.813216 257.082182 
L 168.530293 252.761295 
L 172.247369 253.361362 
L 175.964446 260.71156 
L 179.681522 264.404798 
L 183.398599 254.242637 
L 187.115675 256.039232 
L 190.832752 246.569569 
L 194.549828 249.986648 
L 198.266905 259.42285 
L 201.983981 261.567226 
L 205.701058 263.913183 
L 209.418134 253.311614 
L 213.135211 254.483061 
L 216.852287 259.11015 
L 220.569364 251.665411 
L 224.28644 261.538093 
L 228.003517 265.755476 
L 231.720593 262.407649 
L 235.43767 264.164085 
L 239.154746 267.682913 
L 242.871823 268.770698 
L 246.588899 267.436146 
L 250.305976 271.505575 
L 254.023052 266.309346 
L 257.740129 268.311531 
L 261.457206 270.285918 
L 265.174282 280.754283 
L 268.891359 278.161412 
L 272.608435 263.095685 
L 276.325512 262.304682 
L 280.042588 256.130573 
L 283.759665 272.035582 
L 287.476741 272.52115 
L 291.193818 278.851253 
L 294.910894 286.941279 
L 298.627971 277.953274 
L 302.345047 261.000018 
L 306.062124 206.966558 
L 309.7792 171.615501 
L 313.496277 206.321578 
L 317.213353 254.973582 
L 320.93043 260.447995 
L 324.647506 245.929091 
" clip-path="url(#p503da407aa)" style="fill: none; stroke: #8c564b; stroke-width: 1.5; stroke-linecap: square"/>
   </g>
   <g id="line2d_21">
    <path d="M 71.886303 60.938788 
L 75.60338 99.441388 
L 79.320456 72.879606 
L 83.037533 80.867151 
L 86.754609 172.192211 
L 90.471686 215.929677 
L 94.188762 172.367581 
L 97.905839 196.383708 
L 101.622915 196.789381 
L 105.339992 185.11294 
L 109.057068 224.75908 
L 112.774145 212.992843 
L 116.491221 221.289609 
L 120.208298 228.400642 
L 123.925374 207.829561 
L 127.642451 216.88414 
L 131.359527 218.875268 
L 135.076604 215.284048 
L 138.79368 209.824611 
L 142.510757 205.343327 
L 146.227833 205.642181 
L 149.94491 214.79551 
L 153.661986 197.022005 
L 157.379063 198.929023 
L 161.096139 197.866561 
L 164.813216 196.899274 
L 168.530293 184.859901 
L 172.247369 174.931038 
L 175.964446 193.765557 
L 179.681522 200.432497 
L 183.398599 185.576844 
L 187.115675 191.451204 
L 190.832752 189.704808 
L 194.549828 192.810641 
L 198.266905 194.684005 
L 201.983981 191.084233 
L 205.701058 198.765844 
L 209.418134 184.66332 
L 213.135211 186.709522 
L 216.852287 193.72166 
L 220.569364 183.474863 
L 224.28644 200.470736 
L 228.003517 206.425169 
L 231.720593 201.159798 
L 235.43767 205.274268 
L 239.154746 212.116906 
L 242.871823 217.046687 
L 246.588899 219.937266 
L 250.305976 236.262243 
L 254.023052 234.334124 
L 257.740129 225.611002 
L 261.457206 236.31301 
L 265.174282 247.330643 
L 268.891359 260.20094 
L 272.608435 233.294359 
L 276.325512 246.88698 
L 280.042588 240.052997 
L 283.759665 247.299481 
L 287.476741 235.712973 
L 291.193818 258.459985 
L 294.910894 261.236571 
L 298.627971 268.797788 
L 302.345047 281.838781 
L 306.062124 285.069847 
L 309.7792 245.453233 
L 313.496277 242.7538 
L 317.213353 248.184145 
L 320.93043 208.51273 
L 324.647506 170.877055 
" clip-path="url(#p503da407aa)" style="fill: none; stroke: #e377c2; stroke-width: 1.5; stroke-linecap: square"/>
   </g>
   <g id="line2d_22">
    <path d="M 68.169226 74.982367 
L 71.886303 59.646849 
L 75.60338 100.80358 
L 79.320456 87.076237 
L 83.037533 113.721398 
L 86.754609 180.722175 
L 90.471686 221.46819 
L 94.188762 213.288035 
L 97.905839 199.803978 
L 101.622915 204.098589 
L 105.339992 201.200334 
L 109.057068 212.138839 
L 112.774145 209.846317 
L 116.491221 208.525038 
L 120.208298 220.50524 
L 123.925374 203.935387 
L 127.642451 199.006368 
L 131.359527 200.892654 
L 135.076604 207.125871 
L 138.79368 205.054922 
L 142.510757 193.669254 
L 146.227833 179.967587 
L 149.94491 189.01002 
L 153.661986 170.033595 
L 157.379063 160.155109 
L 161.096139 142.954204 
L 164.813216 143.238575 
L 168.530293 140.30019 
L 172.247369 138.164943 
L 175.964446 150.502831 
L 179.681522 146.582112 
L 183.398599 126.816103 
L 187.115675 131.172737 
L 190.832752 129.00985 
L 194.549828 133.68928 
L 198.266905 132.169609 
L 201.983981 133.422229 
L 205.701058 145.705136 
L 209.418134 140.012362 
L 213.135211 141.686157 
L 216.852287 148.610838 
L 220.569364 141.750245 
L 224.28644 157.3064 
L 228.003517 158.437148 
L 231.720593 158.172693 
L 235.43767 165.541783 
L 239.154746 159.403433 
L 242.871823 168.989227 
L 246.588899 170.548875 
L 250.305976 183.251736 
L 254.023052 189.417664 
L 257.740129 184.525655 
L 261.457206 192.123643 
L 265.174282 205.706992 
L 268.891359 226.164577 
L 272.608435 196.118575 
L 276.325512 215.272113 
L 280.042588 207.851693 
L 283.759665 232.451299 
L 287.476741 233.084531 
L 291.193818 243.464845 
L 294.910894 249.910974 
L 298.627971 256.801871 
L 302.345047 273.393643 
L 306.062124 197.096818 
L 309.7792 119.018289 
L 313.496277 207.626466 
L 317.213353 153.089426 
L 320.93043 229.818449 
L 324.647506 170.874408 
" clip-path="url(#p503da407aa)" style="fill: none; stroke: #7f7f7f; stroke-width: 1.5; stroke-linecap: square"/>
   </g>
   <g id="line2d_23">
    <path d="M 68.169226 62.720439 
L 71.886303 62.484248 
L 75.60338 90.975447 
L 79.320456 76.576661 
L 83.037533 75.671972 
L 86.754609 151.647353 
L 90.471686 208.235509 
L 94.188762 181.219886 
L 97.905839 191.606816 
L 101.622915 203.248152 
L 105.339992 194.014766 
L 109.057068 220.408931 
L 112.774145 205.204492 
L 116.491221 207.239903 
L 120.208298 213.92058 
L 123.925374 201.065966 
L 127.642451 202.302744 
L 131.359527 198.511854 
L 135.076604 198.181351 
L 138.79368 193.780555 
L 142.510757 180.39126 
L 146.227833 169.120463 
L 149.94491 185.286242 
L 153.661986 160.650976 
L 157.379063 159.972521 
L 161.096139 163.23447 
L 164.813216 160.466093 
L 168.530293 155.493445 
L 172.247369 145.310517 
L 175.964446 151.040837 
L 179.681522 153.317225 
L 183.398599 141.117864 
L 187.115675 141.941299 
L 190.832752 136.024272 
L 194.549828 141.13303 
L 198.266905 144.068882 
L 201.983981 152.526398 
L 205.701058 162.146516 
L 209.418134 156.121075 
L 213.135211 156.371008 
L 216.852287 159.522298 
L 220.569364 150.505422 
L 224.28644 166.090714 
L 228.003517 172.626663 
L 231.720593 161.519324 
L 235.43767 164.979474 
L 239.154746 168.551936 
L 242.871823 180.002849 
L 246.588899 180.851624 
L 250.305976 198.017855 
L 254.023052 200.951968 
L 257.740129 188.190218 
L 261.457206 194.650172 
L 265.174282 205.784254 
L 268.891359 222.498181 
L 272.608435 195.270499 
L 276.325512 206.0148 
L 280.042588 194.057267 
L 283.759665 213.67095 
L 287.476741 211.067644 
L 291.193818 240.537222 
L 294.910894 250.069936 
L 298.627971 247.777084 
L 302.345047 266.832471 
L 306.062124 193.108288 
L 309.7792 103.39819 
L 313.496277 222.676068 
L 317.213353 168.372838 
L 320.93043 213.092541 
L 324.647506 135.148649 
" clip-path="url(#p503da407aa)" style="fill: none; stroke: #bcbd22; stroke-width: 1.5; stroke-linecap: square"/>
   </g>
   <g id="line2d_24">
    <path d="M 68.169226 81.895745 
L 71.886303 66.399009 
L 75.60338 92.038859 
L 79.320456 68.776456 
L 83.037533 83.387763 
L 86.754609 172.114854 
L 90.471686 210.159784 
L 94.188762 182.623983 
L 97.905839 187.372331 
L 101.622915 190.746243 
L 105.339992 179.891281 
L 109.057068 194.464851 
L 112.774145 193.937004 
L 116.491221 205.82177 
L 120.208298 224.534565 
L 123.925374 205.727577 
L 127.642451 210.737381 
L 131.359527 216.392419 
L 135.076604 222.851687 
L 138.79368 216.417066 
L 142.510757 206.529126 
L 146.227833 203.841412 
L 149.94491 214.76875 
L 153.661986 188.05411 
L 157.379063 187.209733 
L 161.096139 188.32354 
L 164.813216 180.748107 
L 168.530293 170.786734 
L 172.247369 160.680696 
L 175.964446 175.289304 
L 179.681522 176.667923 
L 183.398599 160.197325 
L 187.115675 160.034906 
L 190.832752 147.525026 
L 194.549828 153.183523 
L 198.266905 160.088186 
L 201.983981 168.879663 
L 205.701058 181.691701 
L 209.418134 166.176159 
L 213.135211 169.528773 
L 216.852287 177.355323 
L 220.569364 170.092745 
L 224.28644 187.59947 
L 228.003517 197.492894 
L 231.720593 203.825117 
L 235.43767 215.993246 
L 239.154746 214.858032 
L 242.871823 222.428364 
L 246.588899 225.617948 
L 250.305976 240.087574 
L 254.023052 239.135708 
L 257.740129 232.977481 
L 261.457206 236.18472 
L 265.174282 252.51759 
L 268.891359 255.902316 
L 272.608435 228.535084 
L 276.325512 230.463271 
L 280.042588 221.329561 
L 283.759665 242.881102 
L 287.476741 242.648977 
L 291.193818 271.529688 
L 294.910894 266.341653 
L 298.627971 261.935034 
L 302.345047 277.570399 
L 306.062124 245.51585 
L 309.7792 131.953674 
L 313.496277 212.80364 
L 317.213353 220.036541 
L 320.93043 207.367064 
L 324.647506 182.195647 
" clip-path="url(#p503da407aa)" style="fill: none; stroke: #17becf; stroke-width: 1.5; stroke-linecap: square"/>
   </g>
   <g id="line2d_25">
    <path d="M 68.169226 34.945653 
L 71.886303 56.873623 
L 75.60338 78.854635 
L 79.320456 71.304673 
L 83.037533 97.305824 
L 86.754609 186.704993 
L 90.471686 193.113514 
L 94.188762 184.421573 
L 97.905839 203.566079 
L 101.622915 191.444661 
L 105.339992 182.169268 
L 109.057068 199.415878 
L 112.774145 189.501 
L 116.491221 202.546588 
L 120.208298 223.001109 
L 123.925374 203.767092 
L 127.642451 208.394633 
L 131.359527 212.68551 
L 135.076604 218.720026 
L 138.79368 209.457686 
L 142.510757 195.884036 
L 146.227833 186.842477 
L 149.94491 199.503856 
L 153.661986 192.377517 
L 157.379063 191.378249 
L 161.096139 191.992412 
L 164.813216 192.698495 
L 168.530293 185.116413 
L 172.247369 173.932019 
L 175.964446 182.230997 
L 179.681522 185.175306 
L 183.398599 161.230628 
L 187.115675 164.207468 
L 190.832752 155.627736 
L 194.549828 159.429315 
L 198.266905 157.888086 
L 201.983981 161.040638 
L 205.701058 175.442349 
L 209.418134 164.138399 
L 213.135211 170.456701 
L 216.852287 180.659817 
L 220.569364 176.651786 
L 224.28644 198.917753 
L 228.003517 201.994138 
L 231.720593 192.419396 
L 235.43767 198.797984 
L 239.154746 202.064632 
L 242.871823 211.424255 
L 246.588899 219.11105 
L 250.305976 235.06523 
L 254.023052 228.937772 
L 257.740129 222.723353 
L 261.457206 231.16751 
L 265.174282 245.564729 
L 268.891359 254.504338 
L 272.608435 236.240318 
L 276.325512 241.031125 
L 280.042588 234.86637 
L 283.759665 252.380296 
L 287.476741 245.903604 
L 291.193818 275.897315 
L 294.910894 268.391749 
L 298.627971 256.860391 
L 302.345047 274.252712 
L 306.062124 277.136714 
L 309.7792 146.151963 
L 313.496277 230.710267 
L 317.213353 228.803206 
L 320.93043 223.168968 
L 324.647506 176.913593 
" clip-path="url(#p503da407aa)" style="fill: none; stroke: #9edae5; stroke-width: 1.5; stroke-linecap: square"/>
   </g>
   <g id="line2d_26">
    <path d="M 68.169226 65.750894 
L 71.886303 73.330072 
L 75.60338 130.017743 
L 79.320456 126.654596 
L 83.037533 139.740621 
L 86.754609 216.969828 
L 90.471686 243.572867 
L 94.188762 226.377596 
L 97.905839 229.212503 
L 101.622915 232.447673 
L 105.339992 227.644464 
L 109.057068 241.674817 
L 112.774145 234.21926 
L 116.491221 236.352479 
L 120.208298 243.703023 
L 123.925374 228.749527 
L 127.642451 232.817845 
L 131.359527 233.92026 
L 135.076604 238.372282 
L 138.79368 235.206863 
L 142.510757 227.133723 
L 146.227833 223.656587 
L 149.94491 228.621091 
L 153.661986 217.081769 
L 157.379063 215.575151 
L 161.096139 214.392979 
L 164.813216 213.473123 
L 168.530293 207.166527 
L 172.247369 200.599988 
L 175.964446 211.364277 
L 179.681522 213.150235 
L 183.398599 194.982753 
L 187.115675 196.496855 
L 190.832752 189.780466 
L 194.549828 196.339287 
L 198.266905 201.246921 
L 201.983981 205.53001 
L 205.701058 214.521936 
L 209.418134 204.744818 
L 213.135211 206.461576 
L 216.852287 213.11875 
L 220.569364 206.987614 
L 224.28644 220.70382 
L 228.003517 226.973747 
L 231.720593 224.382338 
L 235.43767 227.831779 
L 239.154746 228.6586 
L 242.871823 233.086284 
L 246.588899 235.33383 
L 250.305976 245.394509 
L 254.023052 240.723782 
L 257.740129 233.312477 
L 261.457206 238.226184 
L 265.174282 249.246752 
L 268.891359 256.527149 
L 272.608435 237.181007 
L 276.325512 241.43497 
L 280.042588 233.519612 
L 283.759665 251.515832 
L 287.476741 245.351612 
L 291.193818 269.416292 
L 294.910894 268.612725 
L 298.627971 261.934878 
L 302.345047 271.224441 
L 306.062124 239.491901 
L 309.7792 157.267754 
L 313.496277 221.312616 
L 317.213353 218.1855 
L 320.93043 229.37163 
L 324.647506 189.053953 
" clip-path="url(#p503da407aa)" style="fill: none; stroke: #000000; stroke-width: 2.5; stroke-linecap: square"/>
   </g>
   <g id="patch_3">
    <path d="M 55.345313 300.12375 
L 55.345313 22.318125 
" style="fill: none; stroke: #000000; stroke-width: 0.8; stroke-linejoin: miter; stroke-linecap: square"/>
   </g>
   <g id="patch_4">
    <path d="M 337.47142 300.12375 
L 337.47142 22.318125 
" style="fill: none; stroke: #000000; stroke-width: 0.8; stroke-linejoin: miter; stroke-linecap: square"/>
   </g>
   <g id="patch_5">
    <path d="M 55.345313 300.12375 
L 337.47142 300.12375 
" style="fill: none; stroke: #000000; stroke-width: 0.8; stroke-linejoin: miter; stroke-linecap: square"/>
   </g>
   <g id="patch_6">
    <path d="M 55.345313 22.318125 
L 337.47142 22.318125 
" style="fill: none; stroke: #000000; stroke-width: 0.8; stroke-linejoin: miter; stroke-linecap: square"/>
   </g>
   <g id="text_16">
    <!-- Average Coral Cover Change Rate by Latitude -->
    <g transform="translate(41.568991 16.318125) scale(0.12 -0.12)">
     <defs>
      <path id="DejaVuSans-Bold-41" d="M 3419 850 
L 1538 850 
L 1241 0 
L 31 0 
L 1759 4666 
L 3194 4666 
L 4922 0 
L 3713 0 
L 3419 850 
z
M 1838 1716 
L 3116 1716 
L 2478 3572 
L 1838 1716 
z
" transform="scale(0.015625)"/>
      <path id="DejaVuSans-Bold-76" d="M 97 3500 
L 1216 3500 
L 2088 1081 
L 2956 3500 
L 4078 3500 
L 2700 0 
L 1472 0 
L 97 3500 
z
" transform="scale(0.015625)"/>
      <path id="DejaVuSans-Bold-65" d="M 4031 1759 
L 4031 1441 
L 1416 1441 
Q 1456 1047 1700 850 
Q 1944 653 2381 653 
Q 2734 653 3104 758 
Q 3475 863 3866 1075 
L 3866 213 
Q 3469 63 3072 -14 
Q 2675 -91 2278 -91 
Q 1328 -91 801 392 
Q 275 875 275 1747 
Q 275 2603 792 3093 
Q 1309 3584 2216 3584 
Q 3041 3584 3536 3087 
Q 4031 2591 4031 1759 
z
M 2881 2131 
Q 2881 2450 2695 2645 
Q 2509 2841 2209 2841 
Q 1884 2841 1681 2658 
Q 1478 2475 1428 2131 
L 2881 2131 
z
" transform="scale(0.015625)"/>
      <path id="DejaVuSans-Bold-72" d="M 3138 2547 
Q 2991 2616 2845 2648 
Q 2700 2681 2553 2681 
Q 2122 2681 1889 2404 
Q 1656 2128 1656 1613 
L 1656 0 
L 538 0 
L 538 3500 
L 1656 3500 
L 1656 2925 
Q 1872 3269 2151 3426 
Q 2431 3584 2822 3584 
Q 2878 3584 2943 3579 
Q 3009 3575 3134 3559 
L 3138 2547 
z
" transform="scale(0.015625)"/>
      <path id="DejaVuSans-Bold-61" d="M 2106 1575 
Q 1756 1575 1579 1456 
Q 1403 1338 1403 1106 
Q 1403 894 1545 773 
Q 1688 653 1941 653 
Q 2256 653 2472 879 
Q 2688 1106 2688 1447 
L 2688 1575 
L 2106 1575 
z
M 3816 1997 
L 3816 0 
L 2688 0 
L 2688 519 
Q 2463 200 2181 54 
Q 1900 -91 1497 -91 
Q 953 -91 614 226 
Q 275 544 275 1050 
Q 275 1666 698 1953 
Q 1122 2241 2028 2241 
L 2688 2241 
L 2688 2328 
Q 2688 2594 2478 2717 
Q 2269 2841 1825 2841 
Q 1466 2841 1156 2769 
Q 847 2697 581 2553 
L 581 3406 
Q 941 3494 1303 3539 
Q 1666 3584 2028 3584 
Q 2975 3584 3395 3211 
Q 3816 2838 3816 1997 
z
" transform="scale(0.015625)"/>
      <path id="DejaVuSans-Bold-67" d="M 2919 594 
Q 2688 288 2409 144 
Q 2131 0 1766 0 
Q 1125 0 706 504 
Q 288 1009 288 1791 
Q 288 2575 706 3076 
Q 1125 3578 1766 3578 
Q 2131 3578 2409 3434 
Q 2688 3291 2919 2981 
L 2919 3500 
L 4044 3500 
L 4044 353 
Q 4044 -491 3511 -936 
Q 2978 -1381 1966 -1381 
Q 1638 -1381 1331 -1331 
Q 1025 -1281 716 -1178 
L 716 -306 
Q 1009 -475 1290 -558 
Q 1572 -641 1856 -641 
Q 2406 -641 2662 -400 
Q 2919 -159 2919 353 
L 2919 594 
z
M 2181 2772 
Q 1834 2772 1640 2515 
Q 1447 2259 1447 1791 
Q 1447 1309 1634 1061 
Q 1822 813 2181 813 
Q 2531 813 2725 1069 
Q 2919 1325 2919 1791 
Q 2919 2259 2725 2515 
Q 2531 2772 2181 2772 
z
" transform="scale(0.015625)"/>
      <path id="DejaVuSans-Bold-20" transform="scale(0.015625)"/>
      <path id="DejaVuSans-Bold-43" d="M 4288 256 
Q 3956 84 3597 -3 
Q 3238 -91 2847 -91 
Q 1681 -91 1000 561 
Q 319 1213 319 2328 
Q 319 3447 1000 4098 
Q 1681 4750 2847 4750 
Q 3238 4750 3597 4662 
Q 3956 4575 4288 4403 
L 4288 3438 
Q 3953 3666 3628 3772 
Q 3303 3878 2944 3878 
Q 2300 3878 1931 3465 
Q 1563 3053 1563 2328 
Q 1563 1606 1931 1193 
Q 2300 781 2944 781 
Q 3303 781 3628 887 
Q 3953 994 4288 1222 
L 4288 256 
z
" transform="scale(0.015625)"/>
      <path id="DejaVuSans-Bold-6f" d="M 2203 2784 
Q 1831 2784 1636 2517 
Q 1441 2250 1441 1747 
Q 1441 1244 1636 976 
Q 1831 709 2203 709 
Q 2569 709 2762 976 
Q 2956 1244 2956 1747 
Q 2956 2250 2762 2517 
Q 2569 2784 2203 2784 
z
M 2203 3584 
Q 3106 3584 3614 3096 
Q 4122 2609 4122 1747 
Q 4122 884 3614 396 
Q 3106 -91 2203 -91 
Q 1297 -91 786 396 
Q 275 884 275 1747 
Q 275 2609 786 3096 
Q 1297 3584 2203 3584 
z
" transform="scale(0.015625)"/>
      <path id="DejaVuSans-Bold-6c" d="M 538 4863 
L 1656 4863 
L 1656 0 
L 538 0 
L 538 4863 
z
" transform="scale(0.015625)"/>
      <path id="DejaVuSans-Bold-68" d="M 4056 2131 
L 4056 0 
L 2931 0 
L 2931 347 
L 2931 1625 
Q 2931 2084 2911 2256 
Q 2891 2428 2841 2509 
Q 2775 2619 2662 2680 
Q 2550 2741 2406 2741 
Q 2056 2741 1856 2470 
Q 1656 2200 1656 1722 
L 1656 0 
L 538 0 
L 538 4863 
L 1656 4863 
L 1656 2988 
Q 1909 3294 2193 3439 
Q 2478 3584 2822 3584 
Q 3428 3584 3742 3212 
Q 4056 2841 4056 2131 
z
" transform="scale(0.015625)"/>
      <path id="DejaVuSans-Bold-6e" d="M 4056 2131 
L 4056 0 
L 2931 0 
L 2931 347 
L 2931 1631 
Q 2931 2084 2911 2256 
Q 2891 2428 2841 2509 
Q 2775 2619 2662 2680 
Q 2550 2741 2406 2741 
Q 2056 2741 1856 2470 
Q 1656 2200 1656 1722 
L 1656 0 
L 538 0 
L 538 3500 
L 1656 3500 
L 1656 2988 
Q 1909 3294 2193 3439 
Q 2478 3584 2822 3584 
Q 3428 3584 3742 3212 
Q 4056 2841 4056 2131 
z
" transform="scale(0.015625)"/>
      <path id="DejaVuSans-Bold-52" d="M 2297 2597 
Q 2675 2597 2839 2737 
Q 3003 2878 3003 3200 
Q 3003 3519 2839 3656 
Q 2675 3794 2297 3794 
L 1791 3794 
L 1791 2597 
L 2297 2597 
z
M 1791 1766 
L 1791 0 
L 588 0 
L 588 4666 
L 2425 4666 
Q 3347 4666 3776 4356 
Q 4206 4047 4206 3378 
Q 4206 2916 3982 2619 
Q 3759 2322 3309 2181 
Q 3556 2125 3751 1926 
Q 3947 1728 4147 1325 
L 4800 0 
L 3519 0 
L 2950 1159 
Q 2778 1509 2601 1637 
Q 2425 1766 2131 1766 
L 1791 1766 
z
" transform="scale(0.015625)"/>
      <path id="DejaVuSans-Bold-74" d="M 1759 4494 
L 1759 3500 
L 2913 3500 
L 2913 2700 
L 1759 2700 
L 1759 1216 
Q 1759 972 1856 886 
Q 1953 800 2241 800 
L 2816 800 
L 2816 0 
L 1856 0 
Q 1194 0 917 276 
Q 641 553 641 1216 
L 641 2700 
L 84 2700 
L 84 3500 
L 641 3500 
L 641 4494 
L 1759 4494 
z
" transform="scale(0.015625)"/>
      <path id="DejaVuSans-Bold-62" d="M 2400 722 
Q 2759 722 2948 984 
Q 3138 1247 3138 1747 
Q 3138 2247 2948 2509 
Q 2759 2772 2400 2772 
Q 2041 2772 1848 2508 
Q 1656 2244 1656 1747 
Q 1656 1250 1848 986 
Q 2041 722 2400 722 
z
M 1656 2988 
Q 1888 3294 2169 3439 
Q 2450 3584 2816 3584 
Q 3463 3584 3878 3070 
Q 4294 2556 4294 1747 
Q 4294 938 3878 423 
Q 3463 -91 2816 -91 
Q 2450 -91 2169 54 
Q 1888 200 1656 506 
L 1656 0 
L 538 0 
L 538 4863 
L 1656 4863 
L 1656 2988 
z
" transform="scale(0.015625)"/>
      <path id="DejaVuSans-Bold-79" d="M 78 3500 
L 1197 3500 
L 2138 1125 
L 2938 3500 
L 4056 3500 
L 2584 -331 
Q 2363 -916 2067 -1148 
Q 1772 -1381 1288 -1381 
L 641 -1381 
L 641 -647 
L 991 -647 
Q 1275 -647 1404 -556 
Q 1534 -466 1606 -231 
L 1638 -134 
L 78 3500 
z
" transform="scale(0.015625)"/>
      <path id="DejaVuSans-Bold-4c" d="M 588 4666 
L 1791 4666 
L 1791 909 
L 3903 909 
L 3903 0 
L 588 0 
L 588 4666 
z
" transform="scale(0.015625)"/>
      <path id="DejaVuSans-Bold-69" d="M 538 3500 
L 1656 3500 
L 1656 0 
L 538 0 
L 538 3500 
z
M 538 4863 
L 1656 4863 
L 1656 3950 
L 538 3950 
L 538 4863 
z
" transform="scale(0.015625)"/>
      <path id="DejaVuSans-Bold-75" d="M 500 1363 
L 500 3500 
L 1625 3500 
L 1625 3150 
Q 1625 2866 1622 2436 
Q 1619 2006 1619 1863 
Q 1619 1441 1641 1255 
Q 1663 1069 1716 984 
Q 1784 875 1895 815 
Q 2006 756 2150 756 
Q 2500 756 2700 1025 
Q 2900 1294 2900 1772 
L 2900 3500 
L 4019 3500 
L 4019 0 
L 2900 0 
L 2900 506 
Q 2647 200 2364 54 
Q 2081 -91 1741 -91 
Q 1134 -91 817 281 
Q 500 653 500 1363 
z
" transform="scale(0.015625)"/>
      <path id="DejaVuSans-Bold-64" d="M 2919 2988 
L 2919 4863 
L 4044 4863 
L 4044 0 
L 2919 0 
L 2919 506 
Q 2688 197 2409 53 
Q 2131 -91 1766 -91 
Q 1119 -91 703 423 
Q 288 938 288 1747 
Q 288 2556 703 3070 
Q 1119 3584 1766 3584 
Q 2128 3584 2408 3439 
Q 2688 3294 2919 2988 
z
M 2181 722 
Q 2541 722 2730 984 
Q 2919 1247 2919 1747 
Q 2919 2247 2730 2509 
Q 2541 2772 2181 2772 
Q 1825 2772 1636 2509 
Q 1447 2247 1447 1747 
Q 1447 1247 1636 984 
Q 1825 722 2181 722 
z
" transform="scale(0.015625)"/>
     </defs>
     <use xlink:href="#DejaVuSans-Bold-41"/>
     <use xlink:href="#DejaVuSans-Bold-76" x="73.767578"/>
     <use xlink:href="#DejaVuSans-Bold-65" x="138.953125"/>
     <use xlink:href="#DejaVuSans-Bold-72" x="206.775391"/>
     <use xlink:href="#DejaVuSans-Bold-61" x="256.091797"/>
     <use xlink:href="#DejaVuSans-Bold-67" x="323.572266"/>
     <use xlink:href="#DejaVuSans-Bold-65" x="395.154297"/>
     <use xlink:href="#DejaVuSans-Bold-20" x="462.976562"/>
     <use xlink:href="#DejaVuSans-Bold-43" x="497.791016"/>
     <use xlink:href="#DejaVuSans-Bold-6f" x="571.179688"/>
     <use xlink:href="#DejaVuSans-Bold-72" x="639.880859"/>
     <use xlink:href="#DejaVuSans-Bold-61" x="689.197266"/>
     <use xlink:href="#DejaVuSans-Bold-6c" x="756.677734"/>
     <use xlink:href="#DejaVuSans-Bold-20" x="790.955078"/>
     <use xlink:href="#DejaVuSans-Bold-43" x="825.769531"/>
     <use xlink:href="#DejaVuSans-Bold-6f" x="899.158203"/>
     <use xlink:href="#DejaVuSans-Bold-76" x="967.859375"/>
     <use xlink:href="#DejaVuSans-Bold-65" x="1033.044922"/>
     <use xlink:href="#DejaVuSans-Bold-72" x="1100.867188"/>
     <use xlink:href="#DejaVuSans-Bold-20" x="1150.183594"/>
     <use xlink:href="#DejaVuSans-Bold-43" x="1184.998047"/>
     <use xlink:href="#DejaVuSans-Bold-68" x="1258.386719"/>
     <use xlink:href="#DejaVuSans-Bold-61" x="1329.578125"/>
     <use xlink:href="#DejaVuSans-Bold-6e" x="1397.058594"/>
     <use xlink:href="#DejaVuSans-Bold-67" x="1468.25"/>
     <use xlink:href="#DejaVuSans-Bold-65" x="1539.832031"/>
     <use xlink:href="#DejaVuSans-Bold-20" x="1607.654297"/>
     <use xlink:href="#DejaVuSans-Bold-52" x="1642.46875"/>
     <use xlink:href="#DejaVuSans-Bold-61" x="1719.470703"/>
     <use xlink:href="#DejaVuSans-Bold-74" x="1786.951172"/>
     <use xlink:href="#DejaVuSans-Bold-65" x="1834.753906"/>
     <use xlink:href="#DejaVuSans-Bold-20" x="1902.576172"/>
     <use xlink:href="#DejaVuSans-Bold-62" x="1937.390625"/>
     <use xlink:href="#DejaVuSans-Bold-79" x="2008.972656"/>
     <use xlink:href="#DejaVuSans-Bold-20" x="2074.158203"/>
     <use xlink:href="#DejaVuSans-Bold-4c" x="2108.972656"/>
     <use xlink:href="#DejaVuSans-Bold-61" x="2172.693359"/>
     <use xlink:href="#DejaVuSans-Bold-74" x="2240.173828"/>
     <use xlink:href="#DejaVuSans-Bold-69" x="2287.976562"/>
     <use xlink:href="#DejaVuSans-Bold-74" x="2322.253906"/>
     <use xlink:href="#DejaVuSans-Bold-75" x="2370.056641"/>
     <use xlink:href="#DejaVuSans-Bold-64" x="2441.248047"/>
     <use xlink:href="#DejaVuSans-Bold-65" x="2512.830078"/>
    </g>
   </g>
   <g id="legend_1">
    <g id="patch_7">
     <path d="M 358.577726 235.811875 
L 436.507413 235.811875 
Q 438.507413 235.811875 438.507413 233.811875 
L 438.507413 29.318125 
Q 438.507413 27.318125 436.507413 27.318125 
L 358.577726 27.318125 
Q 356.577726 27.318125 356.577726 29.318125 
L 356.577726 233.811875 
Q 356.577726 235.811875 358.577726 235.811875 
z
" style="fill: #ffffff; opacity: 0.8; stroke: #cccccc; stroke-linejoin: miter"/>
    </g>
    <g id="text_17">
     <!-- Model Number -->
     <g transform="translate(360.854288 38.916563) scale(0.1 -0.1)">
      <defs>
       <path id="DejaVuSans-4d" d="M 628 4666 
L 1569 4666 
L 2759 1491 
L 3956 4666 
L 4897 4666 
L 4897 0 
L 4281 0 
L 4281 4097 
L 3078 897 
L 2444 897 
L 1241 4097 
L 1241 0 
L 628 0 
L 628 4666 
z
" transform="scale(0.015625)"/>
       <path id="DejaVuSans-4e" d="M 628 4666 
L 1478 4666 
L 3547 763 
L 3547 4666 
L 4159 4666 
L 4159 0 
L 3309 0 
L 1241 3903 
L 1241 0 
L 628 0 
L 628 4666 
z
" transform="scale(0.015625)"/>
       <path id="DejaVuSans-6d" d="M 3328 2828 
Q 3544 3216 3844 3400 
Q 4144 3584 4550 3584 
Q 5097 3584 5394 3201 
Q 5691 2819 5691 2113 
L 5691 0 
L 5113 0 
L 5113 2094 
Q 5113 2597 4934 2840 
Q 4756 3084 4391 3084 
Q 3944 3084 3684 2787 
Q 3425 2491 3425 1978 
L 3425 0 
L 2847 0 
L 2847 2094 
Q 2847 2600 2669 2842 
Q 2491 3084 2119 3084 
Q 1678 3084 1418 2786 
Q 1159 2488 1159 1978 
L 1159 0 
L 581 0 
L 581 3500 
L 1159 3500 
L 1159 2956 
Q 1356 3278 1631 3431 
Q 1906 3584 2284 3584 
Q 2666 3584 2933 3390 
Q 3200 3197 3328 2828 
z
" transform="scale(0.015625)"/>
       <path id="DejaVuSans-62" d="M 3116 1747 
Q 3116 2381 2855 2742 
Q 2594 3103 2138 3103 
Q 1681 3103 1420 2742 
Q 1159 2381 1159 1747 
Q 1159 1113 1420 752 
Q 1681 391 2138 391 
Q 2594 391 2855 752 
Q 3116 1113 3116 1747 
z
M 1159 2969 
Q 1341 3281 1617 3432 
Q 1894 3584 2278 3584 
Q 2916 3584 3314 3078 
Q 3713 2572 3713 1747 
Q 3713 922 3314 415 
Q 2916 -91 2278 -91 
Q 1894 -91 1617 61 
Q 1341 213 1159 525 
L 1159 0 
L 581 0 
L 581 4863 
L 1159 4863 
L 1159 2969 
z
" transform="scale(0.015625)"/>
      </defs>
      <use xlink:href="#DejaVuSans-4d"/>
      <use xlink:href="#DejaVuSans-6f" x="86.279297"/>
      <use xlink:href="#DejaVuSans-64" x="147.460938"/>
      <use xlink:href="#DejaVuSans-65" x="210.9375"/>
      <use xlink:href="#DejaVuSans-6c" x="272.460938"/>
      <use xlink:href="#DejaVuSans-20" x="300.244141"/>
      <use xlink:href="#DejaVuSans-4e" x="332.03125"/>
      <use xlink:href="#DejaVuSans-75" x="406.835938"/>
      <use xlink:href="#DejaVuSans-6d" x="470.214844"/>
      <use xlink:href="#DejaVuSans-62" x="567.626953"/>
      <use xlink:href="#DejaVuSans-65" x="631.103516"/>
      <use xlink:href="#DejaVuSans-72" x="692.626953"/>
     </g>
    </g>
    <g id="line2d_27">
     <path d="M 360.577726 50.094688 
L 370.577726 50.094688 
L 380.577726 50.094688 
" style="fill: none; stroke: #1f77b4; stroke-width: 1.5; stroke-linecap: square"/>
    </g>
    <g id="text_18">
     <!-- Model 0 -->
     <g transform="translate(388.577726 53.594688) scale(0.1 -0.1)">
      <use xlink:href="#DejaVuSans-4d"/>
      <use xlink:href="#DejaVuSans-6f" x="86.279297"/>
      <use xlink:href="#DejaVuSans-64" x="147.460938"/>
      <use xlink:href="#DejaVuSans-65" x="210.9375"/>
      <use xlink:href="#DejaVuSans-6c" x="272.460938"/>
      <use xlink:href="#DejaVuSans-20" x="300.244141"/>
      <use xlink:href="#DejaVuSans-30" x="332.03125"/>
     </g>
    </g>
    <g id="line2d_28">
     <path d="M 360.577726 64.772813 
L 370.577726 64.772813 
L 380.577726 64.772813 
" style="fill: none; stroke: #aec7e8; stroke-width: 1.5; stroke-linecap: square"/>
    </g>
    <g id="text_19">
     <!-- Model 1 -->
     <g transform="translate(388.577726 68.272813) scale(0.1 -0.1)">
      <use xlink:href="#DejaVuSans-4d"/>
      <use xlink:href="#DejaVuSans-6f" x="86.279297"/>
      <use xlink:href="#DejaVuSans-64" x="147.460938"/>
      <use xlink:href="#DejaVuSans-65" x="210.9375"/>
      <use xlink:href="#DejaVuSans-6c" x="272.460938"/>
      <use xlink:href="#DejaVuSans-20" x="300.244141"/>
      <use xlink:href="#DejaVuSans-31" x="332.03125"/>
     </g>
    </g>
    <g id="line2d_29">
     <path d="M 360.577726 79.450938 
L 370.577726 79.450938 
L 380.577726 79.450938 
" style="fill: none; stroke: #ffbb78; stroke-width: 1.5; stroke-linecap: square"/>
    </g>
    <g id="text_20">
     <!-- Model 2 -->
     <g transform="translate(388.577726 82.950938) scale(0.1 -0.1)">
      <use xlink:href="#DejaVuSans-4d"/>
      <use xlink:href="#DejaVuSans-6f" x="86.279297"/>
      <use xlink:href="#DejaVuSans-64" x="147.460938"/>
      <use xlink:href="#DejaVuSans-65" x="210.9375"/>
      <use xlink:href="#DejaVuSans-6c" x="272.460938"/>
      <use xlink:href="#DejaVuSans-20" x="300.244141"/>
      <use xlink:href="#DejaVuSans-32" x="332.03125"/>
     </g>
    </g>
    <g id="line2d_30">
     <path d="M 360.577726 94.129063 
L 370.577726 94.129063 
L 380.577726 94.129063 
" style="fill: none; stroke: #98df8a; stroke-width: 1.5; stroke-linecap: square"/>
    </g>
    <g id="text_21">
     <!-- Model 3 -->
     <g transform="translate(388.577726 97.629063) scale(0.1 -0.1)">
      <use xlink:href="#DejaVuSans-4d"/>
      <use xlink:href="#DejaVuSans-6f" x="86.279297"/>
      <use xlink:href="#DejaVuSans-64" x="147.460938"/>
      <use xlink:href="#DejaVuSans-65" x="210.9375"/>
      <use xlink:href="#DejaVuSans-6c" x="272.460938"/>
      <use xlink:href="#DejaVuSans-20" x="300.244141"/>
      <use xlink:href="#DejaVuSans-33" x="332.03125"/>
     </g>
    </g>
    <g id="line2d_31">
     <path d="M 360.577726 108.807188 
L 370.577726 108.807188 
L 380.577726 108.807188 
" style="fill: none; stroke: #ff9896; stroke-width: 1.5; stroke-linecap: square"/>
    </g>
    <g id="text_22">
     <!-- Model 4 -->
     <g transform="translate(388.577726 112.307188) scale(0.1 -0.1)">
      <use xlink:href="#DejaVuSans-4d"/>
      <use xlink:href="#DejaVuSans-6f" x="86.279297"/>
      <use xlink:href="#DejaVuSans-64" x="147.460938"/>
      <use xlink:href="#DejaVuSans-65" x="210.9375"/>
      <use xlink:href="#DejaVuSans-6c" x="272.460938"/>
      <use xlink:href="#DejaVuSans-20" x="300.244141"/>
      <use xlink:href="#DejaVuSans-34" x="332.03125"/>
     </g>
    </g>
    <g id="line2d_32">
     <path d="M 360.577726 123.485313 
L 370.577726 123.485313 
L 380.577726 123.485313 
" style="fill: none; stroke: #c5b0d5; stroke-width: 1.5; stroke-linecap: square"/>
    </g>
    <g id="text_23">
     <!-- Model 5 -->
     <g transform="translate(388.577726 126.985313) scale(0.1 -0.1)">
      <defs>
       <path id="DejaVuSans-35" d="M 691 4666 
L 3169 4666 
L 3169 4134 
L 1269 4134 
L 1269 2991 
Q 1406 3038 1543 3061 
Q 1681 3084 1819 3084 
Q 2600 3084 3056 2656 
Q 3513 2228 3513 1497 
Q 3513 744 3044 326 
Q 2575 -91 1722 -91 
Q 1428 -91 1123 -41 
Q 819 9 494 109 
L 494 744 
Q 775 591 1075 516 
Q 1375 441 1709 441 
Q 2250 441 2565 725 
Q 2881 1009 2881 1497 
Q 2881 1984 2565 2268 
Q 2250 2553 1709 2553 
Q 1456 2553 1204 2497 
Q 953 2441 691 2322 
L 691 4666 
z
" transform="scale(0.015625)"/>
      </defs>
      <use xlink:href="#DejaVuSans-4d"/>
      <use xlink:href="#DejaVuSans-6f" x="86.279297"/>
      <use xlink:href="#DejaVuSans-64" x="147.460938"/>
      <use xlink:href="#DejaVuSans-65" x="210.9375"/>
      <use xlink:href="#DejaVuSans-6c" x="272.460938"/>
      <use xlink:href="#DejaVuSans-20" x="300.244141"/>
      <use xlink:href="#DejaVuSans-35" x="332.03125"/>
     </g>
    </g>
    <g id="line2d_33">
     <path d="M 360.577726 138.163438 
L 370.577726 138.163438 
L 380.577726 138.163438 
" style="fill: none; stroke: #8c564b; stroke-width: 1.5; stroke-linecap: square"/>
    </g>
    <g id="text_24">
     <!-- Model 6 -->
     <g transform="translate(388.577726 141.663438) scale(0.1 -0.1)">
      <use xlink:href="#DejaVuSans-4d"/>
      <use xlink:href="#DejaVuSans-6f" x="86.279297"/>
      <use xlink:href="#DejaVuSans-64" x="147.460938"/>
      <use xlink:href="#DejaVuSans-65" x="210.9375"/>
      <use xlink:href="#DejaVuSans-6c" x="272.460938"/>
      <use xlink:href="#DejaVuSans-20" x="300.244141"/>
      <use xlink:href="#DejaVuSans-36" x="332.03125"/>
     </g>
    </g>
    <g id="line2d_34">
     <path d="M 360.577726 152.841563 
L 370.577726 152.841563 
L 380.577726 152.841563 
" style="fill: none; stroke: #e377c2; stroke-width: 1.5; stroke-linecap: square"/>
    </g>
    <g id="text_25">
     <!-- Model 7 -->
     <g transform="translate(388.577726 156.341563) scale(0.1 -0.1)">
      <defs>
       <path id="DejaVuSans-37" d="M 525 4666 
L 3525 4666 
L 3525 4397 
L 1831 0 
L 1172 0 
L 2766 4134 
L 525 4134 
L 525 4666 
z
" transform="scale(0.015625)"/>
      </defs>
      <use xlink:href="#DejaVuSans-4d"/>
      <use xlink:href="#DejaVuSans-6f" x="86.279297"/>
      <use xlink:href="#DejaVuSans-64" x="147.460938"/>
      <use xlink:href="#DejaVuSans-65" x="210.9375"/>
      <use xlink:href="#DejaVuSans-6c" x="272.460938"/>
      <use xlink:href="#DejaVuSans-20" x="300.244141"/>
      <use xlink:href="#DejaVuSans-37" x="332.03125"/>
     </g>
    </g>
    <g id="line2d_35">
     <path d="M 360.577726 167.519688 
L 370.577726 167.519688 
L 380.577726 167.519688 
" style="fill: none; stroke: #7f7f7f; stroke-width: 1.5; stroke-linecap: square"/>
    </g>
    <g id="text_26">
     <!-- Model 8 -->
     <g transform="translate(388.577726 171.019688) scale(0.1 -0.1)">
      <use xlink:href="#DejaVuSans-4d"/>
      <use xlink:href="#DejaVuSans-6f" x="86.279297"/>
      <use xlink:href="#DejaVuSans-64" x="147.460938"/>
      <use xlink:href="#DejaVuSans-65" x="210.9375"/>
      <use xlink:href="#DejaVuSans-6c" x="272.460938"/>
      <use xlink:href="#DejaVuSans-20" x="300.244141"/>
      <use xlink:href="#DejaVuSans-38" x="332.03125"/>
     </g>
    </g>
    <g id="line2d_36">
     <path d="M 360.577726 182.197812 
L 370.577726 182.197812 
L 380.577726 182.197812 
" style="fill: none; stroke: #bcbd22; stroke-width: 1.5; stroke-linecap: square"/>
    </g>
    <g id="text_27">
     <!-- Model 9 -->
     <g transform="translate(388.577726 185.697812) scale(0.1 -0.1)">
      <defs>
       <path id="DejaVuSans-39" d="M 703 97 
L 703 672 
Q 941 559 1184 500 
Q 1428 441 1663 441 
Q 2288 441 2617 861 
Q 2947 1281 2994 2138 
Q 2813 1869 2534 1725 
Q 2256 1581 1919 1581 
Q 1219 1581 811 2004 
Q 403 2428 403 3163 
Q 403 3881 828 4315 
Q 1253 4750 1959 4750 
Q 2769 4750 3195 4129 
Q 3622 3509 3622 2328 
Q 3622 1225 3098 567 
Q 2575 -91 1691 -91 
Q 1453 -91 1209 -44 
Q 966 3 703 97 
z
M 1959 2075 
Q 2384 2075 2632 2365 
Q 2881 2656 2881 3163 
Q 2881 3666 2632 3958 
Q 2384 4250 1959 4250 
Q 1534 4250 1286 3958 
Q 1038 3666 1038 3163 
Q 1038 2656 1286 2365 
Q 1534 2075 1959 2075 
z
" transform="scale(0.015625)"/>
      </defs>
      <use xlink:href="#DejaVuSans-4d"/>
      <use xlink:href="#DejaVuSans-6f" x="86.279297"/>
      <use xlink:href="#DejaVuSans-64" x="147.460938"/>
      <use xlink:href="#DejaVuSans-65" x="210.9375"/>
      <use xlink:href="#DejaVuSans-6c" x="272.460938"/>
      <use xlink:href="#DejaVuSans-20" x="300.244141"/>
      <use xlink:href="#DejaVuSans-39" x="332.03125"/>
     </g>
    </g>
    <g id="line2d_37">
     <path d="M 360.577726 196.875937 
L 370.577726 196.875937 
L 380.577726 196.875937 
" style="fill: none; stroke: #17becf; stroke-width: 1.5; stroke-linecap: square"/>
    </g>
    <g id="text_28">
     <!-- Model 10 -->
     <g transform="translate(388.577726 200.375937) scale(0.1 -0.1)">
      <use xlink:href="#DejaVuSans-4d"/>
      <use xlink:href="#DejaVuSans-6f" x="86.279297"/>
      <use xlink:href="#DejaVuSans-64" x="147.460938"/>
      <use xlink:href="#DejaVuSans-65" x="210.9375"/>
      <use xlink:href="#DejaVuSans-6c" x="272.460938"/>
      <use xlink:href="#DejaVuSans-20" x="300.244141"/>
      <use xlink:href="#DejaVuSans-31" x="332.03125"/>
      <use xlink:href="#DejaVuSans-30" x="395.654297"/>
     </g>
    </g>
    <g id="line2d_38">
     <path d="M 360.577726 211.554062 
L 370.577726 211.554062 
L 380.577726 211.554062 
" style="fill: none; stroke: #9edae5; stroke-width: 1.5; stroke-linecap: square"/>
    </g>
    <g id="text_29">
     <!-- Model 11 -->
     <g transform="translate(388.577726 215.054062) scale(0.1 -0.1)">
      <use xlink:href="#DejaVuSans-4d"/>
      <use xlink:href="#DejaVuSans-6f" x="86.279297"/>
      <use xlink:href="#DejaVuSans-64" x="147.460938"/>
      <use xlink:href="#DejaVuSans-65" x="210.9375"/>
      <use xlink:href="#DejaVuSans-6c" x="272.460938"/>
      <use xlink:href="#DejaVuSans-20" x="300.244141"/>
      <use xlink:href="#DejaVuSans-31" x="332.03125"/>
      <use xlink:href="#DejaVuSans-31" x="395.654297"/>
     </g>
    </g>
    <g id="line2d_39">
     <path d="M 360.577726 226.232187 
L 370.577726 226.232187 
L 380.577726 226.232187 
" style="fill: none; stroke: #000000; stroke-width: 2.5; stroke-linecap: square"/>
    </g>
    <g id="text_30">
     <!-- Mean -->
     <g transform="translate(388.577726 229.732187) scale(0.1 -0.1)">
      <use xlink:href="#DejaVuSans-4d"/>
      <use xlink:href="#DejaVuSans-65" x="86.279297"/>
      <use xlink:href="#DejaVuSans-61" x="147.802734"/>
      <use xlink:href="#DejaVuSans-6e" x="209.082031"/>
     </g>
    </g>
   </g>
  </g>
 </g>
 <defs>
  <clipPath id="p503da407aa">
   <rect x="55.345313" y="22.318125" width="282.126108" height="277.805625"/>
  </clipPath>
 </defs>
</svg>
